0
SECTION
2
HEADER
9
$INSUNITS
70
4
9
$ACADVER
1
AC1014
9
$HANDSEED
5
FFFF
0
ENDSEC
0
SECTION
2
TABLES
0
TABLE
2
VPORT
5
8
100
AcDbSymbolTable
0
ENDTAB
0
TABLE
2
LTYPE
5
5
100
AcDbSymbolTable
0
LTYPE
5
14
100
AcDbSymbolTableRecord
100
AcDbLinetypeTableRecord
2
BYBLOCK
70
0
0
LTYPE
5
15
100
AcDbSymbolTableRecord
100
AcDbLinetypeTableRecord
2
BYLAYER
70
0
0
ENDTAB
0
TABLE
2
LAYER
5
2
100
AcDbSymbolTable
70
2
0
LAYER
5
50
100
AcDbSymbolTableRecord
100
AcDbLayerTableRecord
2
0
70
0
6
CONTINUOUS
0
ENDTAB
0
TABLE
2
STYLE
5
3
100
AcDbSymbolTable
70
1
0
STYLE
5
11
100
AcDbSymbolTableRecord
100
AcDbTextStyleTableRecord
2
STANDARD
70
0
0
ENDTAB
0
TABLE
2
VIEW
5
6
100
AcDbSymbolTable
70
0
0
ENDTAB
0
TABLE
2
UCS
5
7
100
AcDbSymbolTable
70
0
0
ENDTAB
0
TABLE
2
APPID
5
9
100
AcDbSymbolTable
70
2
0
APPID
5
12
100
AcDbSymbolTableRecord
100
AcDbRegAppTableRecord
2
ACAD
70
0
0
ENDTAB
0
TABLE
2
DIMSTYLE
5
A
100
AcDbSymbolTable
70
1
0
ENDTAB
0
TABLE
2
BLOCK_RECORD
5
1
100
AcDbSymbolTable
70
1
0
BLOCK_RECORD
5
1F
100
AcDbSymbolTableRecord
100
AcDbBlockTableRecord
2
*MODEL_SPACE
0
BLOCK_RECORD
5
1B
100
AcDbSymbolTableRecord
100
AcDbBlockTableRecord
2
*PAPER_SPACE
0
ENDTAB
0
ENDSEC
0
SECTION
2
BLOCKS
0
BLOCK
5
20
100
AcDbEntity
100
AcDbBlockBegin
2
*MODEL_SPACE
0
ENDBLK
5
21
100
AcDbEntity
100
AcDbBlockEnd
0
BLOCK
5
1C
100
AcDbEntity
100
AcDbBlockBegin
2
*PAPER_SPACE
0
ENDBLK
5
1D
100
AcDbEntity
100
AcDbBlockEnd
0
ENDSEC
0
SECTION
2
ENTITIES
0
LWPOLYLINE
5
100
100
AcDbEntity
8
0
100
AcDbPolyline
90
40
70
1
43
0.0
10
-86.205173757619193
20
-215.4572170704819
42
0.41421356237310281
10
-84.204917648713689
20
-213.45747321218752
10
-84.199667079949705
20
-172.45747354838838
42
-0.41421356237309503
10
-82.199410971044173
20
-170.45772969009397
10
-32.999411810726315
20
-170.46403037255493
42
-0.41421356237309631
10
-30.999667952431913
20
-172.46428648146048
10
-31.004918521195897
20
-213.46428614525951
42
0.41421356237309698
10
-29.005174662901503
20
-215.46454225416505
10
19.458257458266679
20
-215.47074860989619
42
0.41427837214393121
10
21.458513574884766
20
-213.47056221294625
10
21.458424847511477
20
-212.51861995227839
42
-0.38309098295055494
10
23.24382131531992
20
-210.52998054031377
42
0.35260237978428777
10
38.016004597305361
20
-195.75504326945489
42
-0.38309098295055916
10
40.004311152982368
20
-193.96927612373472
10
40.957231674858427
20
-193.96918730518098
42
0.4141351064619701
10
42.957045231000336
20
-191.96953664584811
10
42.98393079880951
20
-38.043935953265247
42
0.41413510646196655
10
40.98481590660171
20
-36.043586817126119
10
40.031895473896562
20
-36.043165112970613
42
-0.38309098295055716
10
38.044212865101471
20
-34.256703497157027
42
0.35260237978428666
10
23.27719184246806
20
-19.476606731862024
42
-0.38309098295055588
10
21.492490178929966
20
-17.487343745164171
10
21.492911450167107
20
-16.53540157357558
42
0.41427837214392582
10
19.493354184660419
20
-14.53451654525168
10
-134.49955746134717
20
-14.500442636583911
42
0.41427837214392815
10
-136.5
20
-16.500442587623798
10
-136.5
20
-17.452384852426793
42
-0.38309098295055311
10
-138.28558181452041
20
-19.440857844884981
42
0.35260237978428616
10
-153.05914215511501
20
-34.21441818547958
42
-0.38309098295055516
10
-155.04761514757323
20
-36
10
-156.00034930147669
20
-36
42
0.41416240481413885
10
-158.00034927096848
20
-37.999650668020415
10
-158.02723804570337
20
-191.94361169304031
42
0.41416240481413114
10
-156.02793674016007
20
-193.94396090298704
10
-155.07520264438904
20
-193.94429372348998
42
-0.38309098295055577
10
-153.08735353408079
20
-195.73057006625677
42
0.35260237978428605
10
-138.31895497191641
20
-210.50929038242225
42
-0.38309098295055288
10
-136.534067903542
20
-212.49838701437139
10
-136.53440044741271
20
-213.45032922109027
42
0.41427837214392033
10
-134.53465669475111
20
-215.45102786863868
0
CIRCLE
5
101
100
AcDbEntity
8
0
100
AcDbCircle
10
-145.03055743166641
20
-202.44780315808646
30
0
40
1.7000000000000004
210
0
220
0
230
1
0
CIRCLE
5
102
100
AcDbEntity
8
0
100
AcDbCircle
10
-145
20
-27.5
30
0
40
1.7000000000000004
210
0
220
0
230
1
0
CIRCLE
5
103
100
AcDbEntity
8
0
100
AcDbCircle
10
29.988042888645232
20
-27.538719487329683
30
0
40
1.7000000000000171
210
0
220
0
230
1
0
CIRCLE
5
104
100
AcDbEntity
8
0
100
AcDbCircle
10
29.957488305790534
20
-202.47021259161218
30
0
40
1.7000000000000171
210
0
220
0
230
1
0
ENDSEC
0
SECTION
2
OBJECTS
0
DICTIONARY
5
C
100
AcDbDictionary
3
ACAD_GROUP
350
D
3
ACAD_MLINESTYLE
350
17
0
DICTIONARY
5
D
100
AcDbDictionary
0
DICTIONARY
5
1A
330
C
100
AcDbDictionary
0
DICTIONARY
5
17
100
AcDbDictionary
0
ENDSEC
0
EOF
