0
SECTION
2
HEADER
9
$INSUNITS
70
4
9
$ACADVER
1
AC1014
9
$HANDSEED
5
FFFF
0
ENDSEC
0
SECTION
2
TABLES
0
TABLE
2
VPORT
5
8
100
AcDbSymbolTable
0
ENDTAB
0
TABLE
2
LTYPE
5
5
100
AcDbSymbolTable
0
LTYPE
5
14
100
AcDbSymbolTableRecord
100
AcDbLinetypeTableRecord
2
BYBLOCK
70
0
0
LTYPE
5
15
100
AcDbSymbolTableRecord
100
AcDbLinetypeTableRecord
2
BYLAYER
70
0
0
ENDTAB
0
TABLE
2
LAYER
5
2
100
AcDbSymbolTable
70
2
0
LAYER
5
50
100
AcDbSymbolTableRecord
100
AcDbLayerTableRecord
2
0
70
0
6
CONTINUOUS
0
ENDTAB
0
TABLE
2
STYLE
5
3
100
AcDbSymbolTable
70
1
0
STYLE
5
11
100
AcDbSymbolTableRecord
100
AcDbTextStyleTableRecord
2
STANDARD
70
0
0
ENDTAB
0
TABLE
2
VIEW
5
6
100
AcDbSymbolTable
70
0
0
ENDTAB
0
TABLE
2
UCS
5
7
100
AcDbSymbolTable
70
0
0
ENDTAB
0
TABLE
2
APPID
5
9
100
AcDbSymbolTable
70
2
0
APPID
5
12
100
AcDbSymbolTableRecord
100
AcDbRegAppTableRecord
2
ACAD
70
0
0
ENDTAB
0
TABLE
2
DIMSTYLE
5
A
100
AcDbSymbolTable
70
1
0
ENDTAB
0
TABLE
2
BLOCK_RECORD
5
1
100
AcDbSymbolTable
70
1
0
BLOCK_RECORD
5
1F
100
AcDbSymbolTableRecord
100
AcDbBlockTableRecord
2
*MODEL_SPACE
0
BLOCK_RECORD
5
1B
100
AcDbSymbolTableRecord
100
AcDbBlockTableRecord
2
*PAPER_SPACE
0
ENDTAB
0
ENDSEC
0
SECTION
2
BLOCKS
0
BLOCK
5
20
100
AcDbEntity
100
AcDbBlockBegin
2
*MODEL_SPACE
0
ENDBLK
5
21
100
AcDbEntity
100
AcDbBlockEnd
0
BLOCK
5
1C
100
AcDbEntity
100
AcDbBlockBegin
2
*PAPER_SPACE
0
ENDBLK
5
1D
100
AcDbEntity
100
AcDbBlockEnd
0
ENDSEC
0
SECTION
2
ENTITIES
0
LWPOLYLINE
5
100
100
AcDbEntity
8
0
100
AcDbPolyline
90
36
70
1
43
0.0
10
42.499999999999602
20
-96.999999999999901
42
0.41421356237309337
10
45.499999999999602
20
-99.999999999999929
10
96.999999999999602
20
-99.999999999999915
42
0.41421356237308637
10
99.999999999999588
20
-96.999999999999901
10
99.999999999999602
20
39.000000000000114
42
0.41421356237309337
10
96.999999999999602
20
42.000000000000099
10
93.796693311223564
20
42.000000000000099
42
-0.13052020391575531
10
92.308276496153056
20
42.395270573626725
10
66.511583184929123
20
57.136238180040387
42
-0.26914263590792464
10
64.999999999999631
20
59.740967606413761
10
64.999999999999631
20
60.000000000000085
42
0.41421356237309936
10
61.999999999999631
20
63.000000000000078
10
-62.000000000000391
20
63.000000000000121
42
0.41421356237309853
10
-65.000000000000369
20
60.000000000000114
10
-65.000000000000384
20
59.74096760641379
42
-0.26914263590792575
10
-66.511583184929876
20
57.136238180040408
10
-92.308276496153809
20
42.395270573626746
42
-0.13052020391575483
10
-93.796693311224317
20
42.000000000000114
10
-97.000000000000384
20
42.000000000000114
42
0.4142135623730937
10
-100.0000000000004
20
39.000000000000128
10
-100.00000000000041
20
-96.999999999999886
42
0.41421356237308982
10
-97.000000000000398
20
-99.999999999999915
10
-45.500000000000412
20
-99.999999999999886
42
0.41421356237309503
10
-42.500000000000412
20
-96.999999999999901
10
-42.500000000000412
20
-94.999999999999915
42
-0.41421356237309548
10
-39.500000000000391
20
-91.999999999999901
10
-30.500000000000398
20
-91.999999999999901
42
0.4142135623730942
10
-27.500000000000398
20
-88.999999999999915
10
-27.500000000000387
20
-54.999999999999901
42
-0.41421356237309681
10
-24.500000000000387
20
-51.999999999999886
10
24.499999999999606
20
-51.999999999999901
42
-0.41421356237309503
10
27.499999999999609
20
-54.999999999999901
10
27.499999999999602
20
-88.999999999999915
42
0.4142135623730942
10
30.499999999999599
20
-91.999999999999915
10
39.499999999999595
20
-91.999999999999901
42
-0.41421356237309503
10
42.499999999999602
20
-94.999999999999915
0
ENDSEC
0
SECTION
2
OBJECTS
0
DICTIONARY
5
C
100
AcDbDictionary
3
ACAD_GROUP
350
D
3
ACAD_MLINESTYLE
350
17
0
DICTIONARY
5
D
100
AcDbDictionary
0
DICTIONARY
5
1A
330
C
100
AcDbDictionary
0
DICTIONARY
5
17
100
AcDbDictionary
0
ENDSEC
0
EOF
