0
SECTION
2
HEADER
9
$INSUNITS
70
4
9
$ACADVER
1
AC1014
9
$HANDSEED
5
FFFF
0
ENDSEC
0
SECTION
2
TABLES
0
TABLE
2
VPORT
5
8
100
AcDbSymbolTable
0
ENDTAB
0
TABLE
2
LTYPE
5
5
100
AcDbSymbolTable
0
LTYPE
5
14
100
AcDbSymbolTableRecord
100
AcDbLinetypeTableRecord
2
BYBLOCK
70
0
0
LTYPE
5
15
100
AcDbSymbolTableRecord
100
AcDbLinetypeTableRecord
2
BYLAYER
70
0
0
ENDTAB
0
TABLE
2
LAYER
5
2
100
AcDbSymbolTable
70
2
0
LAYER
5
50
100
AcDbSymbolTableRecord
100
AcDbLayerTableRecord
2
0
70
0
6
CONTINUOUS
0
ENDTAB
0
TABLE
2
STYLE
5
3
100
AcDbSymbolTable
70
1
0
STYLE
5
11
100
AcDbSymbolTableRecord
100
AcDbTextStyleTableRecord
2
STANDARD
70
0
0
ENDTAB
0
TABLE
2
VIEW
5
6
100
AcDbSymbolTable
70
0
0
ENDTAB
0
TABLE
2
UCS
5
7
100
AcDbSymbolTable
70
0
0
ENDTAB
0
TABLE
2
APPID
5
9
100
AcDbSymbolTable
70
2
0
APPID
5
12
100
AcDbSymbolTableRecord
100
AcDbRegAppTableRecord
2
ACAD
70
0
0
ENDTAB
0
TABLE
2
DIMSTYLE
5
A
100
AcDbSymbolTable
70
1
0
ENDTAB
0
TABLE
2
BLOCK_RECORD
5
1
100
AcDbSymbolTable
70
1
0
BLOCK_RECORD
5
1F
100
AcDbSymbolTableRecord
100
AcDbBlockTableRecord
2
*MODEL_SPACE
0
BLOCK_RECORD
5
1B
100
AcDbSymbolTableRecord
100
AcDbBlockTableRecord
2
*PAPER_SPACE
0
ENDTAB
0
ENDSEC
0
SECTION
2
BLOCKS
0
BLOCK
5
20
100
AcDbEntity
100
AcDbBlockBegin
2
*MODEL_SPACE
0
ENDBLK
5
21
100
AcDbEntity
100
AcDbBlockEnd
0
BLOCK
5
1C
100
AcDbEntity
100
AcDbBlockBegin
2
*PAPER_SPACE
0
ENDBLK
5
1D
100
AcDbEntity
100
AcDbBlockEnd
0
ENDSEC
0
SECTION
2
ENTITIES
0
CIRCLE
5
100
100
AcDbEntity
8
0
100
AcDbCircle
10
-209.00000000000003
20
329.00000000000006
30
0
40
1.7000000000000002
210
0
220
0
230
1
0
CIRCLE
5
101
100
AcDbEntity
8
0
100
AcDbCircle
10
-185.5
20
20.999999999999588
30
0
40
1.7000000000000002
210
0
220
0
230
1
0
CIRCLE
5
102
100
AcDbEntity
8
0
100
AcDbCircle
10
-185.5
20
329.0000000000004
30
0
40
1.7000000000000002
210
0
220
0
230
1
0
CIRCLE
5
103
100
AcDbEntity
8
0
100
AcDbCircle
10
-209.00000000000003
20
20.999999999999943
30
0
40
1.7000000000000002
210
0
220
0
230
1
0
CIRCLE
5
104
100
AcDbEntity
8
0
100
AcDbCircle
10
-28.000000000000014
20
55
30
0
40
1.7000000000000002
210
0
220
0
230
1
0
CIRCLE
5
105
100
AcDbEntity
8
0
100
AcDbCircle
10
-20
20
295
30
0
40
1.7000000000000002
210
0
220
0
230
1
0
CIRCLE
5
106
100
AcDbEntity
8
0
100
AcDbCircle
10
-28.000000000000007
20
295
30
0
40
1.7000000000000002
210
0
220
0
230
1
0
CIRCLE
5
107
100
AcDbEntity
8
0
100
AcDbCircle
10
-20.000000000000007
20
54.999999999999986
30
0
40
1.7000000000000002
210
0
220
0
230
1
0
LWPOLYLINE
5
108
100
AcDbEntity
8
0
100
AcDbPolyline
90
24
70
1
43
0.0
10
-0.99999999999999645
20
320
42
0.41421356237307672
10
-4.4825254619240695e-14
20
321
10
0
20
346.50000000000006
42
0.41421356237309986
10
-2.9999999999999987
20
349.5
10
-227
20
349.5
42
0.41421356237310197
10
-230.00000000000003
20
346.50000000000006
10
-230.00000000000003
20
3.5000000000000147
42
0.41421356237308915
10
-227.00000000000003
20
0.49999999999999656
10
-3.0000000000000071
20
0.50000000000000711
42
0.41421356237309648
10
-6.6613381477509392e-15
20
3.5000000000000147
10
0
20
28.999999999999986
42
0.41421356237309781
10
-0.99999999999999667
20
30
10
-7.5
20
30
42
-0.41421356237309503
10
-15.5
20
38
10
-15.500000000000007
20
72
42
-0.41421356237309509
10
-7.500000000000008
20
79.999999999999986
10
-0.99999999999999645
20
80
42
0.41421356237310847
10
-7.3552275381416621e-15
20
81.000000000000014
10
0
20
269
42
0.41421356237310497
10
-0.99999999999999656
20
270.00000000000006
10
-7.5000000000000089
20
270
42
-0.41421356237309503
10
-15.500000000000009
20
278
10
-15.499999999999972
20
312
42
-0.41421356237309509
10
-7.4999999999999991
20
320
0
ENDSEC
0
SECTION
2
OBJECTS
0
DICTIONARY
5
C
100
AcDbDictionary
3
ACAD_GROUP
350
D
3
ACAD_MLINESTYLE
350
17
0
DICTIONARY
5
D
100
AcDbDictionary
0
DICTIONARY
5
1A
330
C
100
AcDbDictionary
0
DICTIONARY
5
17
100
AcDbDictionary
0
ENDSEC
0
EOF
