%TF.GenerationSoftware,KiCad,Pcbnew,(6.0.7)*%
%TF.CreationDate,2023-07-30T17:13:32-07:00*%
%TF.ProjectId,xol-pcb,786f6c2d-7063-4622-9e6b-696361645f70,rev?*%
%TF.SameCoordinates,Original*%
%TF.FileFunction,Copper,L2,Bot*%
%TF.FilePolarity,Positive*%
%FSLAX46Y46*%
G04 Gerber Fmt 4.6, Leading zero omitted, Abs format (unit mm)*
G04 Created by KiCad (PCBNEW (6.0.7)) date 2023-07-30 17:13:32*
%MOMM*%
%LPD*%
G01*
G04 APERTURE LIST*
G04 Aperture macros list*
%AMRoundRect*
0 Rectangle with rounded corners*
0 $1 Rounding radius*
0 $2 $3 $4 $5 $6 $7 $8 $9 X,Y pos of 4 corners*
0 Add a 4 corners polygon primitive as box body*
4,1,4,$2,$3,$4,$5,$6,$7,$8,$9,$2,$3,0*
0 Add four circle primitives for the rounded corners*
1,1,$1+$1,$2,$3*
1,1,$1+$1,$4,$5*
1,1,$1+$1,$6,$7*
1,1,$1+$1,$8,$9*
0 Add four rect primitives between the rounded corners*
20,1,$1+$1,$2,$3,$4,$5,0*
20,1,$1+$1,$4,$5,$6,$7,0*
20,1,$1+$1,$6,$7,$8,$9,0*
20,1,$1+$1,$8,$9,$2,$3,0*%
%AMHorizOval*
0 Thick line with rounded ends*
0 $1 width*
0 $2 $3 position (X,Y) of the first rounded end (center of the circle)*
0 $4 $5 position (X,Y) of the second rounded end (center of the circle)*
0 Add line between two ends*
20,1,$1,$2,$3,$4,$5,0*
0 Add two circle primitives to create the rounded ends*
1,1,$1,$2,$3*
1,1,$1,$4,$5*%
%AMFreePoly0*
4,1,6,1.000000,0.000000,0.500000,-0.750000,-0.500000,-0.750000,-0.500000,0.750000,0.500000,0.750000,1.000000,0.000000,1.000000,0.000000,$1*%
%AMFreePoly1*
4,1,6,0.500000,-0.750000,-0.650000,-0.750000,-0.150000,0.000000,-0.650000,0.750000,0.500000,0.750000,0.500000,-0.750000,0.500000,-0.750000,$1*%
G04 Aperture macros list end*
%TA.AperFunction,ComponentPad*%
%ADD10RoundRect,0.250001X0.499999X0.759999X-0.499999X0.759999X-0.499999X-0.759999X0.499999X-0.759999X0*%
%TD*%
%TA.AperFunction,ComponentPad*%
%ADD11O,1.500000X2.020000*%
%TD*%
%TA.AperFunction,ComponentPad*%
%ADD12RoundRect,0.250000X0.750000X-0.600000X0.750000X0.600000X-0.750000X0.600000X-0.750000X-0.600000X0*%
%TD*%
%TA.AperFunction,ComponentPad*%
%ADD13O,2.000000X1.700000*%
%TD*%
%TA.AperFunction,ComponentPad*%
%ADD14RoundRect,0.250001X-0.499999X-0.499999X0.499999X-0.499999X0.499999X0.499999X-0.499999X0.499999X0*%
%TD*%
%TA.AperFunction,ComponentPad*%
%ADD15C,1.500000*%
%TD*%
%TA.AperFunction,ComponentPad*%
%ADD16C,6.400000*%
%TD*%
%TA.AperFunction,ComponentPad*%
%ADD17RoundRect,0.250000X0.725000X-0.600000X0.725000X0.600000X-0.725000X0.600000X-0.725000X-0.600000X0*%
%TD*%
%TA.AperFunction,ComponentPad*%
%ADD18O,1.950000X1.700000*%
%TD*%
%TA.AperFunction,SMDPad,CuDef*%
%ADD19FreePoly0,180.000000*%
%TD*%
%TA.AperFunction,SMDPad,CuDef*%
%ADD20FreePoly1,180.000000*%
%TD*%
%TA.AperFunction,ComponentPad*%
%ADD21RoundRect,0.250000X0.809935X-0.479198X0.622213X0.706028X-0.809935X0.479198X-0.622213X-0.706028X0*%
%TD*%
%TA.AperFunction,ComponentPad*%
%ADD22HorizOval,1.700000X0.123461X0.019554X-0.123461X-0.019554X0*%
%TD*%
%TA.AperFunction,ViaPad*%
%ADD23C,0.800000*%
%TD*%
%TA.AperFunction,Conductor*%
%ADD24C,0.300000*%
%TD*%
%TA.AperFunction,Conductor*%
%ADD25C,0.500000*%
%TD*%
%TA.AperFunction,Conductor*%
%ADD26C,1.000000*%
%TD*%
%TA.AperFunction,Conductor*%
%ADD27C,2.500000*%
%TD*%
G04 APERTURE END LIST*
D10*
%TO.P,HE1,1,Pin_1*%
%TO.N,HE-*%
X49506000Y-56736000D03*
D11*
%TO.P,HE1,2,Pin_2*%
%TO.N,HE+*%
X46506000Y-56736000D03*
%TD*%
D12*
%TO.P,HEF1,1,Pin_1*%
%TO.N,HEF+*%
X52324000Y-50292000D03*
D13*
%TO.P,HEF1,2,Pin_2*%
%TO.N,HEF-*%
X52324000Y-47792000D03*
%TD*%
D12*
%TO.P,PCF1,1,Pin_1*%
%TO.N,PCF+*%
X43180000Y-50292000D03*
D13*
%TO.P,PCF1,2,Pin_2*%
%TO.N,PCF-*%
X43180000Y-47792000D03*
%TD*%
D14*
%TO.P,J1,1,Pin_1*%
%TO.N,RGB*%
X47124000Y-39161000D03*
D15*
%TO.P,J1,2,Pin_2*%
%TO.N,PCF-*%
X50124000Y-39161000D03*
%TO.P,J1,3,Pin_3*%
%TO.N,HEF-*%
X53124000Y-39161000D03*
%TO.P,J1,4,Pin_4*%
%TO.N,TH-*%
X56124000Y-39161000D03*
%TO.P,J1,5,Pin_5*%
%TO.N,A1*%
X59124000Y-39161000D03*
%TO.P,J1,6,Pin_6*%
%TO.N,A2*%
X62124000Y-39161000D03*
%TO.P,J1,7,Pin_7*%
%TO.N,GND*%
X65124000Y-39161000D03*
%TO.P,J1,8,Pin_8*%
%TO.N,5V*%
X68124000Y-39161000D03*
%TO.P,J1,9,Pin_9*%
%TO.N,HE+*%
X47124000Y-42161000D03*
%TO.P,J1,10,Pin_10*%
%TO.N,HE-*%
X50124000Y-42161000D03*
%TO.P,J1,11,Pin_11*%
%TO.N,VALT*%
X53124000Y-42161000D03*
%TO.P,J1,12,Pin_12*%
%TO.N,TH*%
X56124000Y-42161000D03*
%TO.P,J1,13,Pin_13*%
%TO.N,B1*%
X59124000Y-42161000D03*
%TO.P,J1,14,Pin_14*%
%TO.N,B2*%
X62124000Y-42161000D03*
%TO.P,J1,15,Pin_15*%
%TO.N,AUX1*%
X65124000Y-42161000D03*
%TO.P,J1,16,Pin_16*%
%TO.N,AUX2*%
X68124000Y-42161000D03*
%TD*%
D10*
%TO.P,TH1,1,Pin_1*%
%TO.N,TH-*%
X75946000Y-56736000D03*
D11*
%TO.P,TH1,2,Pin_2*%
%TO.N,TH*%
X72946000Y-56736000D03*
%TD*%
D16*
%TO.P,H1,1,1*%
%TO.N,GND*%
X79559001Y-49376179D03*
%TD*%
%TO.P,H2,1,1*%
%TO.N,GND*%
X35709001Y-49376179D03*
%TD*%
D17*
%TO.P,AUX2,1,Pin_1*%
%TO.N,GND*%
X64245000Y-63206000D03*
D18*
%TO.P,AUX2,2,Pin_2*%
%TO.N,AUX2*%
X64245000Y-60706000D03*
%TO.P,AUX2,3,Pin_3*%
%TO.N,5V*%
X64245000Y-58206000D03*
%TD*%
D17*
%TO.P,RGB1,1,Pin_1*%
%TO.N,GND*%
X56642000Y-63246000D03*
D18*
%TO.P,RGB1,2,Pin_2*%
%TO.N,RGB*%
X56642000Y-60746000D03*
%TO.P,RGB1,3,Pin_3*%
%TO.N,5V*%
X56642000Y-58246000D03*
%TD*%
D12*
%TO.P,PCF2,1,Pin_1*%
%TO.N,PCF+*%
X70866000Y-50292000D03*
D13*
%TO.P,PCF2,2,Pin_2*%
%TO.N,PCF-*%
X70866000Y-47792000D03*
%TD*%
D12*
%TO.P,AUX1,1,Pin_1*%
%TO.N,GND*%
X61722000Y-50292000D03*
D13*
%TO.P,AUX1,2,Pin_2*%
%TO.N,AUX1*%
X61722000Y-47792000D03*
%TD*%
D19*
%TO.P,JP4,1,A*%
%TO.N,5V*%
X68797000Y-61722000D03*
D20*
%TO.P,JP4,2,B*%
%TO.N,PCF+*%
X67347000Y-61722000D03*
%TD*%
D21*
%TO.P,MOTOR1,1,Pin_1*%
%TO.N,B1*%
X38419166Y-64929703D03*
D22*
%TO.P,MOTOR1,2,Pin_2*%
%TO.N,B2*%
X38028080Y-62460482D03*
%TO.P,MOTOR1,3,Pin_3*%
%TO.N,A1*%
X37636994Y-59991261D03*
%TO.P,MOTOR1,4,Pin_4*%
%TO.N,A2*%
X37245908Y-57522040D03*
%TD*%
D19*
%TO.P,JP1,1,A*%
%TO.N,5V*%
X68797000Y-59182000D03*
D20*
%TO.P,JP1,2,B*%
%TO.N,HEF+*%
X67347000Y-59182000D03*
%TD*%
D19*
%TO.P,JP3,1,A*%
%TO.N,HE+*%
X53557000Y-59182000D03*
D20*
%TO.P,JP3,2,B*%
%TO.N,HEF+*%
X52107000Y-59182000D03*
%TD*%
D19*
%TO.P,JP5,1,A*%
%TO.N,VALT*%
X61177000Y-61722000D03*
D20*
%TO.P,JP5,2,B*%
%TO.N,PCF+*%
X59727000Y-61722000D03*
%TD*%
D19*
%TO.P,JP6,1,A*%
%TO.N,HE+*%
X53557000Y-61722000D03*
D20*
%TO.P,JP6,2,B*%
%TO.N,PCF+*%
X52107000Y-61722000D03*
%TD*%
D19*
%TO.P,JP2,1,A*%
%TO.N,VALT*%
X61177000Y-59182000D03*
D20*
%TO.P,JP2,2,B*%
%TO.N,HEF+*%
X59727000Y-59182000D03*
%TD*%
D23*
%TO.N,HE+*%
X54356000Y-63500000D03*
%TO.N,HEF+*%
X67310000Y-56896000D03*
X59690000Y-56896000D03*
X52324000Y-56896000D03*
%TO.N,GND*%
X54102000Y-57404000D03*
X45974000Y-59182000D03*
X67564000Y-53594000D03*
X54610000Y-48768000D03*
%TD*%
D24*
%TO.N,AUX1*%
X60198000Y-52324000D02*
X60198000Y-49276000D01*
X61468000Y-53594000D02*
X60198000Y-52324000D01*
X65124000Y-42161000D02*
X65124000Y-52478000D01*
X65124000Y-52478000D02*
X64008000Y-53594000D01*
X64008000Y-53594000D02*
X61468000Y-53594000D01*
X61682000Y-47792000D02*
X61722000Y-47792000D01*
X60198000Y-49276000D02*
X61682000Y-47792000D01*
D25*
%TO.N,A1*%
X57843000Y-37846000D02*
X59158000Y-39161000D01*
X46228000Y-37846000D02*
X57843000Y-37846000D01*
X37636994Y-59991261D02*
X41148000Y-56480255D01*
X41148000Y-56480255D02*
X41148000Y-42926000D01*
X41148000Y-42926000D02*
X46228000Y-37846000D01*
D24*
%TO.N,AUX2*%
X62738000Y-59199000D02*
X64245000Y-60706000D01*
X68124000Y-42161000D02*
X65624000Y-44661000D01*
X62738000Y-55626000D02*
X62738000Y-59199000D01*
X65624000Y-44661000D02*
X65624000Y-52740000D01*
X65624000Y-52740000D02*
X62738000Y-55626000D01*
D25*
%TO.N,A2*%
X45974000Y-37084000D02*
X60081000Y-37084000D01*
X40448000Y-42610000D02*
X45974000Y-37084000D01*
X60081000Y-37084000D02*
X62158000Y-39161000D01*
X37245908Y-57522040D02*
X40448000Y-54319948D01*
X40448000Y-54319948D02*
X40448000Y-42610000D01*
D26*
%TO.N,HE+*%
X53557000Y-59182000D02*
X53557000Y-61722000D01*
X53557000Y-62701000D02*
X54356000Y-63500000D01*
X53557000Y-61722000D02*
X53557000Y-62701000D01*
%TO.N,HEF+*%
X52324000Y-56896000D02*
X52324000Y-58175050D01*
X59690000Y-56896000D02*
X59690000Y-58420000D01*
X52324000Y-50292000D02*
X52324000Y-56896000D01*
X52324000Y-58175050D02*
X52074525Y-58424525D01*
X67310000Y-56896000D02*
X67310000Y-58420000D01*
D27*
%TO.N,HE-*%
X50124000Y-44958000D02*
X49276000Y-45806000D01*
X49276000Y-45806000D02*
X49276000Y-56506000D01*
X49276000Y-56506000D02*
X49506000Y-56736000D01*
X50124000Y-42161000D02*
X50124000Y-44958000D01*
D26*
%TO.N,5V*%
X68158000Y-39161000D02*
X68158000Y-39202000D01*
X68580000Y-46990000D02*
X68580000Y-51308000D01*
X70104000Y-45466000D02*
X68580000Y-46990000D01*
X64245000Y-58206000D02*
X67370000Y-55081000D01*
X67370000Y-55081000D02*
X69305000Y-55081000D01*
X69305000Y-52033000D02*
X69305000Y-55081000D01*
X69305000Y-61214000D02*
X68797000Y-61722000D01*
X69305000Y-55081000D02*
X69305000Y-61214000D01*
X70104000Y-41148000D02*
X70104000Y-45466000D01*
X68580000Y-51308000D02*
X69305000Y-52033000D01*
X68158000Y-39202000D02*
X70104000Y-41148000D01*
%TO.N,PCF+*%
X59436000Y-65024000D02*
X65278000Y-65024000D01*
X66802000Y-63500000D02*
X67097000Y-63205000D01*
X53340000Y-65024000D02*
X59436000Y-65024000D01*
X45466000Y-63754000D02*
X43180000Y-61468000D01*
X66802000Y-63500000D02*
X69258950Y-63500000D01*
X43180000Y-61468000D02*
X43180000Y-50292000D01*
X59436000Y-65024000D02*
X59477000Y-64983000D01*
X67097000Y-63205000D02*
X67097000Y-61722000D01*
X70866000Y-50292000D02*
X70866000Y-61892950D01*
X69258950Y-63500000D02*
X70866000Y-61892950D01*
X59477000Y-64983000D02*
X59477000Y-61722000D01*
X53340000Y-65024000D02*
X52070000Y-63754000D01*
X52070000Y-63754000D02*
X45466000Y-63754000D01*
X65278000Y-65024000D02*
X66802000Y-63500000D01*
X52070000Y-63754000D02*
X52070000Y-62484000D01*
%TO.N,PCF-*%
X43180000Y-42672000D02*
X43180000Y-47792000D01*
X48679000Y-40640000D02*
X45212000Y-40640000D01*
X45212000Y-40640000D02*
X43180000Y-42672000D01*
X50158000Y-39161000D02*
X48679000Y-40640000D01*
%TO.N,VALT*%
X53158000Y-42161000D02*
X58420000Y-47423000D01*
X58420000Y-53086000D02*
X61177000Y-55843000D01*
X58420000Y-47423000D02*
X58420000Y-53086000D01*
X61177000Y-55843000D02*
X61177000Y-61722000D01*
%TD*%
%TA.AperFunction,Conductor*%
%TO.N,GND*%
G36*
X65810644Y-30755996D02*
G01*
X65825476Y-30758306D01*
X65825479Y-30758306D01*
X65834348Y-30759687D01*
X65843250Y-30758523D01*
X65843254Y-30758523D01*
X65854149Y-30757098D01*
X65876384Y-30756172D01*
X66161270Y-30769525D01*
X66173016Y-30770629D01*
X66332924Y-30793245D01*
X66484998Y-30814753D01*
X66496581Y-30816948D01*
X66803078Y-30890059D01*
X66814397Y-30893326D01*
X67112718Y-30994782D01*
X67123688Y-30999095D01*
X67411212Y-31128007D01*
X67421729Y-31133326D01*
X67535773Y-31197890D01*
X67695929Y-31288559D01*
X67705911Y-31294845D01*
X67964389Y-31475039D01*
X67973741Y-31482231D01*
X68214235Y-31685812D01*
X68222872Y-31693847D01*
X68417242Y-31892432D01*
X68433045Y-31912215D01*
X68439363Y-31921999D01*
X68446153Y-31927870D01*
X68446154Y-31927871D01*
X68463441Y-31942818D01*
X68475101Y-31954306D01*
X80617573Y-45581543D01*
X80647957Y-45645709D01*
X80638827Y-45716116D01*
X80593082Y-45770411D01*
X80525245Y-45791354D01*
X80490889Y-45787073D01*
X80334185Y-45745085D01*
X80327735Y-45743714D01*
X79950372Y-45683945D01*
X79943834Y-45683259D01*
X79562302Y-45663263D01*
X79555700Y-45663263D01*
X79174168Y-45683259D01*
X79167630Y-45683945D01*
X78790267Y-45743714D01*
X78783817Y-45745085D01*
X78414785Y-45843967D01*
X78408503Y-45846008D01*
X78051837Y-45982919D01*
X78045812Y-45985601D01*
X77705398Y-46159051D01*
X77699688Y-46162348D01*
X77379266Y-46370432D01*
X77373940Y-46374302D01*
X77135166Y-46567657D01*
X77126701Y-46579912D01*
X77133035Y-46591003D01*
X82343311Y-51801279D01*
X82356833Y-51808663D01*
X82422278Y-51785664D01*
X82491352Y-51802073D01*
X82540589Y-51853222D01*
X82554357Y-51922871D01*
X82553443Y-51930412D01*
X79896835Y-69421171D01*
X79892443Y-69440105D01*
X79887927Y-69454441D01*
X79887926Y-69454445D01*
X79885230Y-69463005D01*
X79884974Y-69475393D01*
X79884911Y-69478450D01*
X79881855Y-69503549D01*
X79864524Y-69580440D01*
X79844859Y-69667685D01*
X79839701Y-69684803D01*
X79770791Y-69865840D01*
X79763264Y-69882051D01*
X79669444Y-70051475D01*
X79669423Y-70051513D01*
X79659675Y-70066497D01*
X79625914Y-70111117D01*
X79542803Y-70220960D01*
X79531031Y-70234417D01*
X79393464Y-70370791D01*
X79379906Y-70382445D01*
X79224426Y-70497973D01*
X79209354Y-70507591D01*
X79039094Y-70599946D01*
X79022817Y-70607332D01*
X78909088Y-70649493D01*
X78841192Y-70674663D01*
X78824029Y-70679673D01*
X78634704Y-70720618D01*
X78617006Y-70723148D01*
X78543058Y-70728405D01*
X78456375Y-70734568D01*
X78437519Y-70733779D01*
X78430001Y-70733687D01*
X78421128Y-70732305D01*
X78412225Y-70733469D01*
X78412224Y-70733469D01*
X78389553Y-70736433D01*
X78373219Y-70737496D01*
X67000961Y-70737496D01*
X66980056Y-70735750D01*
X66965055Y-70733226D01*
X66965052Y-70733226D01*
X66960263Y-70732420D01*
X66953948Y-70732343D01*
X66952569Y-70732326D01*
X66952566Y-70732326D01*
X66947711Y-70732267D01*
X66942907Y-70732955D01*
X66940238Y-70733129D01*
X66932021Y-70733895D01*
X66759260Y-70741438D01*
X66554396Y-70750382D01*
X66314733Y-70781933D01*
X66166798Y-70801408D01*
X66166792Y-70801409D01*
X66164073Y-70801767D01*
X65779715Y-70886977D01*
X65777090Y-70887805D01*
X65777085Y-70887806D01*
X65674992Y-70919996D01*
X65404245Y-71005361D01*
X65040523Y-71156019D01*
X64691315Y-71337804D01*
X64551422Y-71426925D01*
X64361604Y-71547851D01*
X64359279Y-71549332D01*
X64357104Y-71551001D01*
X64049111Y-71787331D01*
X64049105Y-71787336D01*
X64046943Y-71788995D01*
X63943584Y-71883705D01*
X63779550Y-72034014D01*
X63772691Y-72039564D01*
X63772713Y-72039590D01*
X63768976Y-72042713D01*
X63765006Y-72045539D01*
X63756023Y-72054307D01*
X63753108Y-72058196D01*
X63753104Y-72058201D01*
X63739283Y-72076642D01*
X63727552Y-72090172D01*
X60137775Y-75679949D01*
X60123007Y-75692596D01*
X60103631Y-75706751D01*
X60091183Y-75722945D01*
X60076324Y-75739131D01*
X59877317Y-75921138D01*
X59868714Y-75928328D01*
X59630149Y-76110303D01*
X59620947Y-76116693D01*
X59367135Y-76276690D01*
X59357394Y-76282240D01*
X59090341Y-76418996D01*
X59080125Y-76423665D01*
X58801970Y-76536088D01*
X58791378Y-76539829D01*
X58540471Y-76616049D01*
X58515907Y-76620911D01*
X58508415Y-76621631D01*
X58508410Y-76621632D01*
X58503739Y-76622081D01*
X58503735Y-76622082D01*
X58503730Y-76622083D01*
X58498375Y-76624224D01*
X58498369Y-76624226D01*
X58498042Y-76624357D01*
X58497278Y-76624550D01*
X58492849Y-76625867D01*
X58492795Y-76625686D01*
X58465828Y-76632518D01*
X58384976Y-76641926D01*
X58351198Y-76641296D01*
X58327554Y-76637648D01*
X58254653Y-76626399D01*
X58222262Y-76616819D01*
X58133136Y-76576801D01*
X58104451Y-76558955D01*
X58029171Y-76496699D01*
X58006259Y-76471875D01*
X57950223Y-76391850D01*
X57934733Y-76361836D01*
X57901973Y-76269794D01*
X57895016Y-76236739D01*
X57887890Y-76139312D01*
X57889965Y-76105590D01*
X57908984Y-76009770D01*
X57919945Y-75977813D01*
X57963741Y-75890490D01*
X57982798Y-75862595D01*
X58035333Y-75804340D01*
X58048673Y-75791568D01*
X58050505Y-75790055D01*
X58058172Y-75785375D01*
X58088689Y-75751836D01*
X58096506Y-75743970D01*
X60151139Y-73850870D01*
X60163318Y-73840977D01*
X60190635Y-73821482D01*
X60199609Y-73812704D01*
X60202526Y-73808803D01*
X60204346Y-73806724D01*
X60206942Y-73803517D01*
X60389869Y-73594457D01*
X60392151Y-73591034D01*
X60392156Y-73591027D01*
X60548146Y-73357006D01*
X60548148Y-73357002D01*
X60550438Y-73353567D01*
X60678191Y-73093779D01*
X60770942Y-72819539D01*
X60827104Y-72535539D01*
X60839514Y-72342917D01*
X60845452Y-72250758D01*
X60845452Y-72250750D01*
X60845717Y-72246637D01*
X60845443Y-72242527D01*
X60845443Y-72242519D01*
X60826735Y-71961889D01*
X60826461Y-71957778D01*
X60769667Y-71673903D01*
X60676306Y-71399870D01*
X60613241Y-71272343D01*
X60549806Y-71144069D01*
X60549804Y-71144066D01*
X60547975Y-71140367D01*
X60458256Y-71006414D01*
X60389165Y-70903259D01*
X60389160Y-70903252D01*
X60386871Y-70899835D01*
X60384154Y-70896743D01*
X60384148Y-70896736D01*
X60243251Y-70736433D01*
X60195749Y-70682388D01*
X60192653Y-70679679D01*
X60192647Y-70679673D01*
X59984994Y-70497973D01*
X59977880Y-70491748D01*
X59796422Y-70370791D01*
X59740431Y-70333468D01*
X59740427Y-70333466D01*
X59736992Y-70331176D01*
X59730684Y-70328074D01*
X59480902Y-70205237D01*
X59480894Y-70205234D01*
X59477206Y-70203420D01*
X59442229Y-70191590D01*
X59206871Y-70111986D01*
X59206865Y-70111984D01*
X59202967Y-70110666D01*
X58918967Y-70054500D01*
X58630066Y-70035883D01*
X58625955Y-70036157D01*
X58625947Y-70036157D01*
X58437874Y-70048692D01*
X58341207Y-70055135D01*
X58149112Y-70093565D01*
X58061374Y-70111117D01*
X58061371Y-70111118D01*
X58057331Y-70111926D01*
X58053433Y-70113254D01*
X58053429Y-70113255D01*
X57924738Y-70157097D01*
X57783297Y-70205283D01*
X57779600Y-70207111D01*
X57779598Y-70207112D01*
X57527486Y-70331783D01*
X57527483Y-70331785D01*
X57523792Y-70333610D01*
X57520373Y-70335900D01*
X57520366Y-70335904D01*
X57286688Y-70492413D01*
X57286681Y-70492418D01*
X57283258Y-70494711D01*
X57280162Y-70497432D01*
X57280157Y-70497436D01*
X57088553Y-70665841D01*
X57078559Y-70673765D01*
X57074436Y-70676707D01*
X57070136Y-70680913D01*
X57069917Y-70681073D01*
X57069752Y-70681288D01*
X57065462Y-70685484D01*
X57062545Y-70689385D01*
X57051399Y-70704291D01*
X57038350Y-70719150D01*
X56469677Y-71272343D01*
X56425814Y-71315012D01*
X56423088Y-71317586D01*
X55762711Y-71922742D01*
X55759954Y-71925194D01*
X55275908Y-72342917D01*
X55081867Y-72510371D01*
X55078997Y-72512775D01*
X55050971Y-72535539D01*
X54383765Y-73077487D01*
X54380815Y-73079811D01*
X53704828Y-73596227D01*
X53686860Y-73607685D01*
X53669553Y-73616761D01*
X53669549Y-73616765D01*
X53669541Y-73616769D01*
X53662639Y-73623428D01*
X53657580Y-73627006D01*
X53638630Y-73641209D01*
X53579659Y-73674885D01*
X53552205Y-73686502D01*
X53469349Y-73710482D01*
X53439936Y-73715324D01*
X53403170Y-73716964D01*
X53353762Y-73719168D01*
X53324033Y-73716964D01*
X53239370Y-73700456D01*
X53210992Y-73691330D01*
X53132577Y-73655395D01*
X53107137Y-73639858D01*
X53057864Y-73601074D01*
X53045619Y-73590066D01*
X53040932Y-73585263D01*
X53035641Y-73578020D01*
X53010384Y-73558604D01*
X52998089Y-73547810D01*
X51545938Y-72095660D01*
X51532391Y-72079644D01*
X51523573Y-72067258D01*
X51523569Y-72067253D01*
X51520748Y-72063291D01*
X51511981Y-72054307D01*
X51508086Y-72051388D01*
X51505884Y-72049455D01*
X51499864Y-72044460D01*
X51223085Y-71790841D01*
X51221065Y-71788990D01*
X51218903Y-71787331D01*
X51218897Y-71787326D01*
X50910903Y-71550996D01*
X50908728Y-71549327D01*
X50716595Y-71426925D01*
X50579006Y-71339271D01*
X50579003Y-71339269D01*
X50576692Y-71337797D01*
X50227484Y-71156012D01*
X49863760Y-71005353D01*
X49539956Y-70903259D01*
X49490920Y-70887798D01*
X49490915Y-70887797D01*
X49488290Y-70886969D01*
X49103931Y-70801759D01*
X49101212Y-70801401D01*
X49101206Y-70801400D01*
X48954198Y-70782047D01*
X48713608Y-70750373D01*
X48529070Y-70742316D01*
X48351265Y-70734553D01*
X48342494Y-70733628D01*
X48342491Y-70733663D01*
X48337651Y-70733229D01*
X48332844Y-70732420D01*
X48326326Y-70732341D01*
X48325152Y-70732326D01*
X48325149Y-70732326D01*
X48320292Y-70732267D01*
X48294350Y-70735982D01*
X48292668Y-70736223D01*
X48274806Y-70737496D01*
X36902540Y-70737496D01*
X36883152Y-70735995D01*
X36868326Y-70733686D01*
X36868319Y-70733686D01*
X36859451Y-70732305D01*
X36850548Y-70733469D01*
X36850544Y-70733469D01*
X36844125Y-70734308D01*
X36818849Y-70735054D01*
X36737534Y-70729269D01*
X36651028Y-70723115D01*
X36633331Y-70720585D01*
X36444006Y-70679633D01*
X36426845Y-70674623D01*
X36245226Y-70607291D01*
X36228957Y-70599908D01*
X36058681Y-70507541D01*
X36043617Y-70497927D01*
X35888132Y-70382394D01*
X35874583Y-70370746D01*
X35737016Y-70234371D01*
X35725245Y-70220916D01*
X35713382Y-70205237D01*
X35608374Y-70066459D01*
X35598626Y-70051475D01*
X35589992Y-70035883D01*
X35504781Y-69882013D01*
X35497252Y-69865798D01*
X35428343Y-69684778D01*
X35423185Y-69667664D01*
X35387712Y-69510312D01*
X35385795Y-69492800D01*
X35384620Y-69484367D01*
X35384653Y-69475393D01*
X35382168Y-69466774D01*
X35382167Y-69466770D01*
X35375832Y-69444802D01*
X35372328Y-69428812D01*
X33554539Y-57460732D01*
X35761435Y-57460732D01*
X35763686Y-57549650D01*
X35765133Y-57606801D01*
X35767269Y-57691203D01*
X35811851Y-57917398D01*
X35813749Y-57922382D01*
X35813750Y-57922385D01*
X35841817Y-57996080D01*
X35893906Y-58132847D01*
X35951459Y-58230358D01*
X35998599Y-58310226D01*
X36011090Y-58331390D01*
X36067720Y-58398284D01*
X36151927Y-58497753D01*
X36160051Y-58507350D01*
X36336530Y-58655698D01*
X36535480Y-58772189D01*
X36560336Y-58781556D01*
X36569393Y-58784970D01*
X36626083Y-58827711D01*
X36650667Y-58894316D01*
X36635339Y-58963638D01*
X36610809Y-58995101D01*
X36548238Y-59053347D01*
X36503513Y-59094980D01*
X36482820Y-59122095D01*
X36373852Y-59264878D01*
X36363645Y-59278252D01*
X36256655Y-59482468D01*
X36185603Y-59701792D01*
X36175338Y-59772588D01*
X36155814Y-59907243D01*
X36152521Y-59929953D01*
X36158355Y-60160424D01*
X36159386Y-60165654D01*
X36159386Y-60165656D01*
X36171732Y-60228296D01*
X36202937Y-60386619D01*
X36284992Y-60602068D01*
X36402176Y-60800611D01*
X36478850Y-60891182D01*
X36545363Y-60969750D01*
X36551137Y-60976571D01*
X36727616Y-61124919D01*
X36926566Y-61241410D01*
X36951422Y-61250777D01*
X36960479Y-61254191D01*
X37017169Y-61296932D01*
X37041753Y-61363537D01*
X37026425Y-61432859D01*
X37001895Y-61464322D01*
X36912793Y-61547265D01*
X36894599Y-61564201D01*
X36891358Y-61568448D01*
X36770484Y-61726832D01*
X36754731Y-61747473D01*
X36752252Y-61752205D01*
X36752250Y-61752208D01*
X36750805Y-61754967D01*
X36647741Y-61951689D01*
X36576689Y-62171013D01*
X36571316Y-62208072D01*
X36547132Y-62374864D01*
X36543607Y-62399174D01*
X36549441Y-62629645D01*
X36550472Y-62634875D01*
X36550472Y-62634877D01*
X36568333Y-62725498D01*
X36594023Y-62855840D01*
X36595921Y-62860824D01*
X36595922Y-62860827D01*
X36609640Y-62896846D01*
X36676078Y-63071289D01*
X36793262Y-63269832D01*
X36942223Y-63445792D01*
X37118702Y-63594140D01*
X37123313Y-63596840D01*
X37123316Y-63596842D01*
X37158479Y-63617431D01*
X37207158Y-63669112D01*
X37220168Y-63738906D01*
X37193379Y-63804655D01*
X37177063Y-63821615D01*
X37113371Y-63876497D01*
X37047101Y-63933600D01*
X36943264Y-64076781D01*
X36940448Y-64083530D01*
X36940446Y-64083533D01*
X36882266Y-64222958D01*
X36875150Y-64240011D01*
X36872606Y-64255462D01*
X36850017Y-64392657D01*
X36846415Y-64414532D01*
X36846793Y-64421402D01*
X36846793Y-64421403D01*
X36847961Y-64442630D01*
X36852185Y-64519381D01*
X36852686Y-64522543D01*
X36852686Y-64522545D01*
X36887957Y-64745235D01*
X37055675Y-65804166D01*
X37083060Y-65906913D01*
X37086236Y-65913028D01*
X37086238Y-65913032D01*
X37111912Y-65962456D01*
X37164593Y-66063871D01*
X37169370Y-66069415D01*
X37275266Y-66192314D01*
X37275269Y-66192316D01*
X37280047Y-66197862D01*
X37285978Y-66202163D01*
X37417303Y-66297401D01*
X37417306Y-66297403D01*
X37423229Y-66301698D01*
X37429982Y-66304516D01*
X37429984Y-66304517D01*
X37579703Y-66366993D01*
X37586459Y-66369812D01*
X37713784Y-66390776D01*
X37754188Y-66397429D01*
X37754189Y-66397429D01*
X37760979Y-66398547D01*
X37767849Y-66398169D01*
X37767850Y-66398169D01*
X37836816Y-66394374D01*
X37865829Y-66392777D01*
X37868991Y-66392276D01*
X37868993Y-66392276D01*
X39394329Y-66150686D01*
X39394330Y-66150686D01*
X39397536Y-66150178D01*
X39500283Y-66122794D01*
X39657241Y-66041261D01*
X39667409Y-66032500D01*
X39715717Y-65990874D01*
X39791231Y-65925806D01*
X39895068Y-65782625D01*
X39898554Y-65774273D01*
X39960363Y-65626151D01*
X39960363Y-65626149D01*
X39963182Y-65619395D01*
X39991917Y-65444874D01*
X39986147Y-65340025D01*
X39782657Y-64055240D01*
X39755272Y-63952493D01*
X39752096Y-63946378D01*
X39752094Y-63946374D01*
X39677112Y-63802029D01*
X39673739Y-63795535D01*
X39668962Y-63789991D01*
X39563066Y-63667092D01*
X39563063Y-63667090D01*
X39558285Y-63661544D01*
X39460598Y-63590701D01*
X39421029Y-63562005D01*
X39421026Y-63562003D01*
X39415103Y-63557708D01*
X39408350Y-63554890D01*
X39408348Y-63554889D01*
X39257210Y-63491821D01*
X39202046Y-63447128D01*
X39179802Y-63379706D01*
X39197540Y-63310961D01*
X39205570Y-63299097D01*
X39298188Y-63177738D01*
X39298189Y-63177736D01*
X39301429Y-63173491D01*
X39408419Y-62969274D01*
X39479471Y-62749951D01*
X39499436Y-62612254D01*
X39511788Y-62527069D01*
X39511788Y-62527064D01*
X39512553Y-62521790D01*
X39506719Y-62291319D01*
X39503798Y-62276496D01*
X39477819Y-62144690D01*
X39462137Y-62065124D01*
X39459710Y-62058750D01*
X39415882Y-61943675D01*
X39380082Y-61849675D01*
X39281270Y-61682259D01*
X39265611Y-61655728D01*
X39265609Y-61655725D01*
X39262898Y-61651132D01*
X39149707Y-61517425D01*
X39117387Y-61479247D01*
X39117385Y-61479245D01*
X39113937Y-61475172D01*
X38937458Y-61326824D01*
X38738508Y-61210333D01*
X38704595Y-61197552D01*
X38647905Y-61154811D01*
X38623321Y-61088206D01*
X38638649Y-61018884D01*
X38663179Y-60987421D01*
X38766565Y-60891182D01*
X38766567Y-60891180D01*
X38770475Y-60887542D01*
X38864076Y-60764895D01*
X38907102Y-60708517D01*
X38907103Y-60708515D01*
X38910343Y-60704270D01*
X39017333Y-60500053D01*
X39088385Y-60280730D01*
X39106907Y-60152990D01*
X39120702Y-60057848D01*
X39120702Y-60057843D01*
X39121467Y-60052569D01*
X39115633Y-59822098D01*
X39104413Y-59765168D01*
X39089642Y-59690227D01*
X39096094Y-59619524D01*
X39124169Y-59576767D01*
X41636911Y-57064025D01*
X41651323Y-57051639D01*
X41662918Y-57043106D01*
X41662923Y-57043101D01*
X41668818Y-57038763D01*
X41673557Y-57033185D01*
X41673560Y-57033182D01*
X41703035Y-56998487D01*
X41709965Y-56990971D01*
X41715660Y-56985276D01*
X41733281Y-56963004D01*
X41736072Y-56959600D01*
X41778591Y-56909552D01*
X41778592Y-56909550D01*
X41783333Y-56903970D01*
X41786661Y-56897454D01*
X41790028Y-56892405D01*
X41793195Y-56887276D01*
X41797734Y-56881539D01*
X41828655Y-56815380D01*
X41830561Y-56811480D01*
X41833980Y-56804784D01*
X41863769Y-56746447D01*
X41865508Y-56739339D01*
X41867607Y-56733696D01*
X41869524Y-56727933D01*
X41872622Y-56721305D01*
X41887487Y-56649838D01*
X41888457Y-56645554D01*
X41905808Y-56574645D01*
X41906500Y-56563491D01*
X41906536Y-56563493D01*
X41906775Y-56559500D01*
X41907149Y-56555308D01*
X41908640Y-56548140D01*
X41906546Y-56470734D01*
X41906500Y-56467327D01*
X41906500Y-51686046D01*
X41926502Y-51617925D01*
X41980158Y-51571432D01*
X42050432Y-51561328D01*
X42094358Y-51577243D01*
X42094389Y-51577177D01*
X42095130Y-51577522D01*
X42098612Y-51578784D01*
X42107258Y-51584113D01*
X42106223Y-51585792D01*
X42152031Y-51626121D01*
X42171500Y-51693405D01*
X42171500Y-61406157D01*
X42170763Y-61419764D01*
X42169341Y-61432859D01*
X42166676Y-61457388D01*
X42167213Y-61463523D01*
X42171050Y-61507388D01*
X42171379Y-61512214D01*
X42171500Y-61514686D01*
X42171500Y-61517769D01*
X42171801Y-61520837D01*
X42175690Y-61560506D01*
X42175812Y-61561819D01*
X42176392Y-61568448D01*
X42183913Y-61654413D01*
X42185400Y-61659532D01*
X42185920Y-61664833D01*
X42212791Y-61753834D01*
X42213126Y-61754967D01*
X42234817Y-61829624D01*
X42239091Y-61844336D01*
X42241544Y-61849068D01*
X42243084Y-61854169D01*
X42245978Y-61859612D01*
X42286731Y-61936260D01*
X42287343Y-61937426D01*
X42319809Y-62000057D01*
X42330108Y-62019926D01*
X42333431Y-62024089D01*
X42335934Y-62028796D01*
X42394755Y-62100918D01*
X42395446Y-62101774D01*
X42426738Y-62140973D01*
X42429242Y-62143477D01*
X42429884Y-62144195D01*
X42433585Y-62148528D01*
X42460935Y-62182062D01*
X42465682Y-62185989D01*
X42465684Y-62185991D01*
X42496262Y-62211287D01*
X42505042Y-62219277D01*
X44709145Y-64423379D01*
X44718247Y-64433522D01*
X44741968Y-64463025D01*
X44779665Y-64494657D01*
X44780421Y-64495291D01*
X44784069Y-64498472D01*
X44785881Y-64500115D01*
X44788075Y-64502309D01*
X44821349Y-64529642D01*
X44822147Y-64530304D01*
X44893474Y-64590154D01*
X44898144Y-64592722D01*
X44902261Y-64596103D01*
X44960145Y-64627140D01*
X44984086Y-64639977D01*
X44985245Y-64640606D01*
X45061381Y-64682462D01*
X45061389Y-64682465D01*
X45066787Y-64685433D01*
X45071869Y-64687045D01*
X45076563Y-64689562D01*
X45165531Y-64716762D01*
X45166559Y-64717082D01*
X45255306Y-64745235D01*
X45260602Y-64745829D01*
X45265698Y-64747387D01*
X45358257Y-64756790D01*
X45359393Y-64756911D01*
X45393008Y-64760681D01*
X45405730Y-64762108D01*
X45405734Y-64762108D01*
X45409227Y-64762500D01*
X45412754Y-64762500D01*
X45413739Y-64762555D01*
X45419419Y-64763002D01*
X45448825Y-64765989D01*
X45456337Y-64766752D01*
X45456339Y-64766752D01*
X45462462Y-64767374D01*
X45508108Y-64763059D01*
X45519967Y-64762500D01*
X51600074Y-64762500D01*
X51668195Y-64782502D01*
X51689169Y-64799404D01*
X52583149Y-65693383D01*
X52592251Y-65703527D01*
X52615968Y-65733025D01*
X52654456Y-65765320D01*
X52658075Y-65768478D01*
X52659890Y-65770124D01*
X52662075Y-65772309D01*
X52664455Y-65774264D01*
X52664465Y-65774273D01*
X52695236Y-65799549D01*
X52696251Y-65800391D01*
X52706393Y-65808901D01*
X52767474Y-65860154D01*
X52772148Y-65862723D01*
X52776261Y-65866102D01*
X52781698Y-65869017D01*
X52781699Y-65869018D01*
X52796080Y-65876729D01*
X52852374Y-65906913D01*
X52858047Y-65909955D01*
X52859177Y-65910568D01*
X52940787Y-65955433D01*
X52945869Y-65957045D01*
X52950563Y-65959562D01*
X53039531Y-65986762D01*
X53040559Y-65987082D01*
X53129306Y-66015235D01*
X53134602Y-66015829D01*
X53139698Y-66017387D01*
X53232257Y-66026790D01*
X53233393Y-66026911D01*
X53267008Y-66030681D01*
X53279730Y-66032108D01*
X53279734Y-66032108D01*
X53283227Y-66032500D01*
X53286754Y-66032500D01*
X53287739Y-66032555D01*
X53293419Y-66033002D01*
X53322825Y-66035989D01*
X53330337Y-66036752D01*
X53330339Y-66036752D01*
X53336462Y-66037374D01*
X53382108Y-66033059D01*
X53393967Y-66032500D01*
X59374157Y-66032500D01*
X59387764Y-66033237D01*
X59419262Y-66036659D01*
X59419267Y-66036659D01*
X59425388Y-66037324D01*
X59473211Y-66033140D01*
X59475053Y-66032979D01*
X59486034Y-66032500D01*
X65216157Y-66032500D01*
X65229764Y-66033237D01*
X65261262Y-66036659D01*
X65261267Y-66036659D01*
X65267388Y-66037324D01*
X65293638Y-66035027D01*
X65317388Y-66032950D01*
X65322214Y-66032621D01*
X65324686Y-66032500D01*
X65327769Y-66032500D01*
X65339738Y-66031326D01*
X65370506Y-66028310D01*
X65371819Y-66028188D01*
X65416084Y-66024315D01*
X65464413Y-66020087D01*
X65469532Y-66018600D01*
X65474833Y-66018080D01*
X65563834Y-65991209D01*
X65564967Y-65990874D01*
X65648414Y-65966630D01*
X65648418Y-65966628D01*
X65654336Y-65964909D01*
X65659068Y-65962456D01*
X65664169Y-65960916D01*
X65671173Y-65957192D01*
X65746260Y-65917269D01*
X65747426Y-65916657D01*
X65824453Y-65876729D01*
X65829926Y-65873892D01*
X65834089Y-65870569D01*
X65838796Y-65868066D01*
X65910918Y-65809245D01*
X65911774Y-65808554D01*
X65950973Y-65777262D01*
X65953477Y-65774758D01*
X65954195Y-65774116D01*
X65958528Y-65770415D01*
X65992062Y-65743065D01*
X66021288Y-65707737D01*
X66029277Y-65698958D01*
X67182830Y-64545405D01*
X67245142Y-64511379D01*
X67271925Y-64508500D01*
X69197107Y-64508500D01*
X69210714Y-64509237D01*
X69242212Y-64512659D01*
X69242217Y-64512659D01*
X69248338Y-64513324D01*
X69274588Y-64511027D01*
X69298338Y-64508950D01*
X69303164Y-64508621D01*
X69305636Y-64508500D01*
X69308719Y-64508500D01*
X69320688Y-64507326D01*
X69351456Y-64504310D01*
X69352769Y-64504188D01*
X69397034Y-64500315D01*
X69445363Y-64496087D01*
X69450482Y-64494600D01*
X69455783Y-64494080D01*
X69544784Y-64467209D01*
X69545917Y-64466874D01*
X69629364Y-64442630D01*
X69629368Y-64442628D01*
X69635286Y-64440909D01*
X69640018Y-64438456D01*
X69645119Y-64436916D01*
X69670579Y-64423379D01*
X69727210Y-64393269D01*
X69728376Y-64392657D01*
X69805403Y-64352729D01*
X69810876Y-64349892D01*
X69815039Y-64346569D01*
X69819746Y-64344066D01*
X69891868Y-64285245D01*
X69892724Y-64284554D01*
X69931923Y-64253262D01*
X69934427Y-64250758D01*
X69935145Y-64250116D01*
X69939478Y-64246415D01*
X69973012Y-64219065D01*
X70002238Y-64183737D01*
X70010227Y-64174958D01*
X71535379Y-62649805D01*
X71545522Y-62640703D01*
X71570218Y-62620847D01*
X71575025Y-62616982D01*
X71607292Y-62578528D01*
X71610472Y-62574881D01*
X71612115Y-62573069D01*
X71614309Y-62570875D01*
X71641642Y-62537601D01*
X71642348Y-62536750D01*
X71650472Y-62527069D01*
X71702154Y-62465476D01*
X71704722Y-62460806D01*
X71708103Y-62456689D01*
X71751977Y-62374864D01*
X71752606Y-62373705D01*
X71794462Y-62297569D01*
X71794465Y-62297561D01*
X71797433Y-62292163D01*
X71799045Y-62287081D01*
X71801562Y-62282387D01*
X71828747Y-62193473D01*
X71829139Y-62192215D01*
X71855372Y-62109517D01*
X71857235Y-62103644D01*
X71857829Y-62098353D01*
X71859388Y-62093252D01*
X71868790Y-62000687D01*
X71868925Y-61999420D01*
X71869758Y-61992001D01*
X71874500Y-61949723D01*
X71874500Y-61946198D01*
X71874555Y-61945213D01*
X71875004Y-61939509D01*
X71875095Y-61938619D01*
X71877231Y-61917584D01*
X71878752Y-61902616D01*
X71878752Y-61902611D01*
X71879374Y-61896488D01*
X71875059Y-61850841D01*
X71874500Y-61838983D01*
X71874500Y-60985733D01*
X72433822Y-60985733D01*
X72433975Y-60990121D01*
X72433975Y-60990127D01*
X72443363Y-61258949D01*
X72443625Y-61266458D01*
X72444387Y-61270781D01*
X72444388Y-61270788D01*
X72468164Y-61405624D01*
X72492402Y-61543087D01*
X72579203Y-61810235D01*
X72581131Y-61814188D01*
X72581133Y-61814193D01*
X72624260Y-61902616D01*
X72702340Y-62062702D01*
X72704795Y-62066341D01*
X72704798Y-62066347D01*
X72757641Y-62144690D01*
X72859415Y-62295576D01*
X73047371Y-62504322D01*
X73050733Y-62507143D01*
X73050734Y-62507144D01*
X73104651Y-62552386D01*
X73262550Y-62684879D01*
X73500764Y-62833731D01*
X73634484Y-62893267D01*
X73743587Y-62941843D01*
X73757375Y-62947982D01*
X74027390Y-63025407D01*
X74031740Y-63026018D01*
X74031743Y-63026019D01*
X74134690Y-63040487D01*
X74305552Y-63064500D01*
X74516146Y-63064500D01*
X74518332Y-63064347D01*
X74518336Y-63064347D01*
X74721827Y-63050118D01*
X74721832Y-63050117D01*
X74726212Y-63049811D01*
X75000970Y-62991409D01*
X75005099Y-62989906D01*
X75005103Y-62989905D01*
X75260781Y-62896846D01*
X75260785Y-62896844D01*
X75264926Y-62895337D01*
X75512942Y-62763464D01*
X75516503Y-62760877D01*
X75736629Y-62600947D01*
X75736632Y-62600944D01*
X75740192Y-62598358D01*
X75746377Y-62592386D01*
X75857878Y-62484710D01*
X75942252Y-62403231D01*
X76115188Y-62181882D01*
X76117384Y-62178078D01*
X76117389Y-62178071D01*
X76231206Y-61980933D01*
X76255636Y-61938619D01*
X76360862Y-61678176D01*
X76363212Y-61668751D01*
X76427753Y-61409893D01*
X76427754Y-61409888D01*
X76428817Y-61405624D01*
X76433241Y-61363537D01*
X76457719Y-61130636D01*
X76457719Y-61130633D01*
X76458178Y-61126267D01*
X76457357Y-61102752D01*
X76448529Y-60849939D01*
X76448528Y-60849933D01*
X76448375Y-60845542D01*
X76445153Y-60827266D01*
X76401525Y-60579842D01*
X76399598Y-60568913D01*
X76312797Y-60301765D01*
X76302538Y-60280730D01*
X76193830Y-60057848D01*
X76189660Y-60049298D01*
X76187205Y-60045659D01*
X76187202Y-60045653D01*
X76088049Y-59898653D01*
X76032585Y-59816424D01*
X75989484Y-59768555D01*
X75885759Y-59653357D01*
X75844629Y-59607678D01*
X75811332Y-59579738D01*
X75712768Y-59497033D01*
X75629450Y-59427121D01*
X75391236Y-59278269D01*
X75134625Y-59164018D01*
X74944232Y-59109424D01*
X74868837Y-59087805D01*
X74868836Y-59087805D01*
X74864610Y-59086593D01*
X74860260Y-59085982D01*
X74860257Y-59085981D01*
X74757310Y-59071513D01*
X74586448Y-59047500D01*
X74375854Y-59047500D01*
X74373668Y-59047653D01*
X74373664Y-59047653D01*
X74170173Y-59061882D01*
X74170168Y-59061883D01*
X74165788Y-59062189D01*
X73891030Y-59120591D01*
X73886901Y-59122094D01*
X73886897Y-59122095D01*
X73631219Y-59215154D01*
X73631215Y-59215156D01*
X73627074Y-59216663D01*
X73379058Y-59348536D01*
X73375499Y-59351122D01*
X73375497Y-59351123D01*
X73192968Y-59483738D01*
X73151808Y-59513642D01*
X73148644Y-59516698D01*
X73148641Y-59516700D01*
X73080632Y-59582376D01*
X72949748Y-59708769D01*
X72776812Y-59930118D01*
X72774616Y-59933922D01*
X72774611Y-59933929D01*
X72703067Y-60057848D01*
X72636364Y-60173381D01*
X72531138Y-60433824D01*
X72530073Y-60438097D01*
X72530072Y-60438099D01*
X72464889Y-60699535D01*
X72463183Y-60706376D01*
X72462724Y-60710744D01*
X72462723Y-60710749D01*
X72442949Y-60898889D01*
X72433822Y-60985733D01*
X71874500Y-60985733D01*
X71874500Y-58007799D01*
X71894502Y-57939678D01*
X71948158Y-57893185D01*
X72018432Y-57883081D01*
X72088186Y-57917315D01*
X72150799Y-57977992D01*
X72337262Y-58103290D01*
X72542967Y-58193588D01*
X72548418Y-58194897D01*
X72548422Y-58194898D01*
X72753938Y-58244238D01*
X72761411Y-58246032D01*
X72845475Y-58250879D01*
X72980083Y-58258640D01*
X72980086Y-58258640D01*
X72985690Y-58258963D01*
X73208715Y-58231975D01*
X73423435Y-58165918D01*
X73428415Y-58163348D01*
X73428419Y-58163346D01*
X73618081Y-58065454D01*
X73618082Y-58065454D01*
X73623064Y-58062882D01*
X73801292Y-57926123D01*
X73952485Y-57759964D01*
X73969368Y-57733051D01*
X74068885Y-57574405D01*
X74071864Y-57569656D01*
X74081213Y-57546400D01*
X74687500Y-57546400D01*
X74687837Y-57549646D01*
X74687837Y-57549650D01*
X74697270Y-57640559D01*
X74698474Y-57652165D01*
X74700655Y-57658701D01*
X74700655Y-57658703D01*
X74713243Y-57696433D01*
X74754450Y-57819945D01*
X74847522Y-57970348D01*
X74972697Y-58095305D01*
X74978927Y-58099145D01*
X74978928Y-58099146D01*
X75116090Y-58183694D01*
X75123262Y-58188115D01*
X75173560Y-58204798D01*
X75284611Y-58241632D01*
X75284613Y-58241632D01*
X75291139Y-58243797D01*
X75297975Y-58244497D01*
X75297978Y-58244498D01*
X75341031Y-58248909D01*
X75395600Y-58254500D01*
X76496400Y-58254500D01*
X76499646Y-58254163D01*
X76499650Y-58254163D01*
X76595307Y-58244238D01*
X76595311Y-58244237D01*
X76602165Y-58243526D01*
X76608701Y-58241345D01*
X76608703Y-58241345D01*
X76758606Y-58191333D01*
X76769945Y-58187550D01*
X76920348Y-58094478D01*
X77045305Y-57969303D01*
X77051954Y-57958516D01*
X77134275Y-57824968D01*
X77134276Y-57824966D01*
X77138115Y-57818738D01*
X77180416Y-57691203D01*
X77191632Y-57657389D01*
X77191632Y-57657387D01*
X77193797Y-57650861D01*
X77194524Y-57643771D01*
X77201494Y-57575735D01*
X77204500Y-57546400D01*
X77204500Y-55925600D01*
X77204163Y-55922350D01*
X77194238Y-55826693D01*
X77194237Y-55826689D01*
X77193526Y-55819835D01*
X77137550Y-55652055D01*
X77044478Y-55501652D01*
X76919303Y-55376695D01*
X76913072Y-55372854D01*
X76774968Y-55287725D01*
X76774966Y-55287724D01*
X76768738Y-55283885D01*
X76688995Y-55257436D01*
X76607389Y-55230368D01*
X76607387Y-55230368D01*
X76600861Y-55228203D01*
X76594025Y-55227503D01*
X76594022Y-55227502D01*
X76550969Y-55223091D01*
X76496400Y-55217500D01*
X75395600Y-55217500D01*
X75392354Y-55217837D01*
X75392350Y-55217837D01*
X75296693Y-55227762D01*
X75296689Y-55227763D01*
X75289835Y-55228474D01*
X75283299Y-55230655D01*
X75283297Y-55230655D01*
X75189954Y-55261797D01*
X75122055Y-55284450D01*
X74971652Y-55377522D01*
X74846695Y-55502697D01*
X74842855Y-55508927D01*
X74842854Y-55508928D01*
X74816871Y-55551081D01*
X74753885Y-55653262D01*
X74698203Y-55821139D01*
X74697503Y-55827975D01*
X74697502Y-55827978D01*
X74693091Y-55871031D01*
X74687500Y-55925600D01*
X74687500Y-57546400D01*
X74081213Y-57546400D01*
X74155656Y-57361217D01*
X74201213Y-57141233D01*
X74204500Y-57084225D01*
X74204500Y-56419001D01*
X74201551Y-56385952D01*
X74196222Y-56326243D01*
X74189617Y-56252238D01*
X74167658Y-56171968D01*
X74133754Y-56048040D01*
X74130337Y-56035549D01*
X74033622Y-55832782D01*
X73902529Y-55650346D01*
X73779142Y-55530775D01*
X73745229Y-55497911D01*
X73745226Y-55497909D01*
X73741201Y-55494008D01*
X73554738Y-55368710D01*
X73349033Y-55278412D01*
X73343582Y-55277103D01*
X73343578Y-55277102D01*
X73136046Y-55227278D01*
X73136045Y-55227278D01*
X73130589Y-55225968D01*
X73046525Y-55221121D01*
X72911917Y-55213360D01*
X72911914Y-55213360D01*
X72906310Y-55213037D01*
X72683285Y-55240025D01*
X72468565Y-55306082D01*
X72463585Y-55308652D01*
X72463581Y-55308654D01*
X72273919Y-55406546D01*
X72268936Y-55409118D01*
X72090708Y-55545877D01*
X72086940Y-55550018D01*
X72085784Y-55551081D01*
X72022101Y-55582466D01*
X71951560Y-55574438D01*
X71896557Y-55529547D01*
X71874500Y-55458331D01*
X71874500Y-52173565D01*
X77126760Y-52173565D01*
X77134217Y-52183932D01*
X77373936Y-52378053D01*
X77379273Y-52381930D01*
X77699686Y-52590009D01*
X77705395Y-52593306D01*
X78045812Y-52766757D01*
X78051837Y-52769439D01*
X78408503Y-52906350D01*
X78414785Y-52908391D01*
X78783817Y-53007273D01*
X78790267Y-53008644D01*
X79167630Y-53068413D01*
X79174168Y-53069099D01*
X79555700Y-53089095D01*
X79562302Y-53089095D01*
X79943834Y-53069099D01*
X79950372Y-53068413D01*
X80327735Y-53008644D01*
X80334185Y-53007273D01*
X80703217Y-52908391D01*
X80709499Y-52906350D01*
X81066165Y-52769439D01*
X81072190Y-52766757D01*
X81412607Y-52593306D01*
X81418316Y-52590009D01*
X81738729Y-52381930D01*
X81744066Y-52378053D01*
X81982836Y-52184701D01*
X81991301Y-52172446D01*
X81984967Y-52161355D01*
X79571813Y-49748201D01*
X79557869Y-49740587D01*
X79556036Y-49740718D01*
X79549421Y-49744969D01*
X77133901Y-52160489D01*
X77126760Y-52173565D01*
X71874500Y-52173565D01*
X71874500Y-51693387D01*
X71894502Y-51625266D01*
X71940730Y-51584816D01*
X71939946Y-51583550D01*
X71991795Y-51551465D01*
X72090348Y-51490478D01*
X72215305Y-51365303D01*
X72260945Y-51291262D01*
X72304275Y-51220968D01*
X72304276Y-51220966D01*
X72308115Y-51214738D01*
X72363797Y-51046861D01*
X72374500Y-50942400D01*
X72374500Y-49641600D01*
X72374163Y-49638350D01*
X72364238Y-49542692D01*
X72364237Y-49542688D01*
X72363526Y-49535834D01*
X72311362Y-49379480D01*
X75846085Y-49379480D01*
X75866081Y-49761012D01*
X75866767Y-49767550D01*
X75926536Y-50144913D01*
X75927907Y-50151363D01*
X76026789Y-50520395D01*
X76028830Y-50526677D01*
X76165741Y-50883343D01*
X76168423Y-50889368D01*
X76341873Y-51229782D01*
X76345170Y-51235492D01*
X76553254Y-51555914D01*
X76557124Y-51561240D01*
X76750479Y-51800014D01*
X76762734Y-51808479D01*
X76773825Y-51802145D01*
X79186979Y-49388991D01*
X79194593Y-49375047D01*
X79194462Y-49373214D01*
X79190211Y-49366599D01*
X76774691Y-46951079D01*
X76761615Y-46943938D01*
X76751248Y-46951395D01*
X76557124Y-47191118D01*
X76553254Y-47196444D01*
X76345170Y-47516866D01*
X76341873Y-47522576D01*
X76168423Y-47862990D01*
X76165741Y-47869015D01*
X76028830Y-48225681D01*
X76026789Y-48231963D01*
X75927907Y-48600995D01*
X75926536Y-48607445D01*
X75866767Y-48984808D01*
X75866081Y-48991346D01*
X75846085Y-49372878D01*
X75846085Y-49379480D01*
X72311362Y-49379480D01*
X72307550Y-49368054D01*
X72214478Y-49217652D01*
X72089303Y-49092695D01*
X71943660Y-49002919D01*
X71896168Y-48950148D01*
X71884744Y-48880076D01*
X71913018Y-48814952D01*
X71922805Y-48804490D01*
X72033278Y-48699103D01*
X72037135Y-48695424D01*
X72174754Y-48510458D01*
X72279240Y-48304949D01*
X72319298Y-48175944D01*
X72346024Y-48089871D01*
X72347607Y-48084773D01*
X72360323Y-47988829D01*
X72377198Y-47861511D01*
X72377198Y-47861506D01*
X72377898Y-47856226D01*
X72377317Y-47840734D01*
X72369449Y-47631173D01*
X72369249Y-47625842D01*
X72321907Y-47400209D01*
X72319948Y-47395248D01*
X72239185Y-47190744D01*
X72239184Y-47190742D01*
X72237224Y-47185779D01*
X72207038Y-47136033D01*
X72120390Y-46993243D01*
X72117623Y-46988683D01*
X72084241Y-46950213D01*
X71970023Y-46818588D01*
X71970021Y-46818586D01*
X71966523Y-46814555D01*
X71883901Y-46746809D01*
X71792373Y-46671760D01*
X71792367Y-46671756D01*
X71788245Y-46668376D01*
X71783609Y-46665737D01*
X71783606Y-46665735D01*
X71592529Y-46556968D01*
X71587886Y-46554325D01*
X71371175Y-46475663D01*
X71365926Y-46474714D01*
X71365923Y-46474713D01*
X71148392Y-46435377D01*
X71148385Y-46435376D01*
X71144308Y-46434639D01*
X71126586Y-46433803D01*
X71121644Y-46433570D01*
X71121637Y-46433570D01*
X71120156Y-46433500D01*
X70868009Y-46433500D01*
X70799888Y-46413498D01*
X70753395Y-46359842D01*
X70743291Y-46289568D01*
X70772785Y-46224988D01*
X70789056Y-46209304D01*
X70808217Y-46193898D01*
X70808219Y-46193897D01*
X70813025Y-46190032D01*
X70845312Y-46151554D01*
X70848467Y-46147938D01*
X70850123Y-46146112D01*
X70852309Y-46143926D01*
X70854264Y-46141546D01*
X70854273Y-46141536D01*
X70879576Y-46110732D01*
X70880418Y-46109717D01*
X70936194Y-46043245D01*
X70940154Y-46038526D01*
X70942723Y-46033852D01*
X70946102Y-46029739D01*
X70989975Y-45947915D01*
X70990584Y-45946793D01*
X71032464Y-45870614D01*
X71032465Y-45870612D01*
X71035433Y-45865213D01*
X71037045Y-45860131D01*
X71039562Y-45855437D01*
X71066762Y-45766469D01*
X71067108Y-45765358D01*
X71067317Y-45764702D01*
X71095235Y-45676694D01*
X71095829Y-45671398D01*
X71097387Y-45666302D01*
X71106785Y-45573778D01*
X71106905Y-45572658D01*
X71112500Y-45522773D01*
X71112500Y-45519246D01*
X71112556Y-45518243D01*
X71113003Y-45512559D01*
X71117373Y-45469538D01*
X71113059Y-45423899D01*
X71112500Y-45412043D01*
X71112500Y-41209850D01*
X71113237Y-41196242D01*
X71115555Y-41174902D01*
X71117325Y-41158612D01*
X71112947Y-41108570D01*
X71112621Y-41103788D01*
X71112500Y-41101310D01*
X71112500Y-41098231D01*
X71112201Y-41095177D01*
X71112200Y-41095166D01*
X71108313Y-41055529D01*
X71108191Y-41054215D01*
X71101162Y-40973880D01*
X71100087Y-40961587D01*
X71098600Y-40956468D01*
X71098080Y-40951167D01*
X71071209Y-40862166D01*
X71070874Y-40861033D01*
X71046630Y-40777586D01*
X71046628Y-40777582D01*
X71044909Y-40771664D01*
X71042456Y-40766932D01*
X71040916Y-40761831D01*
X70997269Y-40679740D01*
X70996657Y-40678574D01*
X70956729Y-40601547D01*
X70953892Y-40596074D01*
X70950569Y-40591911D01*
X70948066Y-40587204D01*
X70889261Y-40515102D01*
X70888433Y-40514075D01*
X70859469Y-40477792D01*
X70859464Y-40477787D01*
X70857262Y-40475028D01*
X70854761Y-40472527D01*
X70854119Y-40471809D01*
X70850406Y-40467461D01*
X70842642Y-40457941D01*
X70823065Y-40433938D01*
X70818323Y-40430015D01*
X70818321Y-40430013D01*
X70787727Y-40404703D01*
X70778947Y-40396713D01*
X69404786Y-39022552D01*
X69370760Y-38960240D01*
X69369587Y-38952514D01*
X69369548Y-38952521D01*
X69368595Y-38947116D01*
X69368115Y-38941629D01*
X69311120Y-38728924D01*
X69246991Y-38591398D01*
X69220382Y-38534334D01*
X69220379Y-38534329D01*
X69218056Y-38529347D01*
X69186786Y-38484689D01*
X69094908Y-38353473D01*
X69094906Y-38353470D01*
X69091749Y-38348962D01*
X68936038Y-38193251D01*
X68755654Y-38066944D01*
X68556076Y-37973880D01*
X68343371Y-37916885D01*
X68124000Y-37897693D01*
X67904629Y-37916885D01*
X67691924Y-37973880D01*
X67598562Y-38017415D01*
X67497334Y-38064618D01*
X67497329Y-38064621D01*
X67492347Y-38066944D01*
X67487840Y-38070100D01*
X67487838Y-38070101D01*
X67316473Y-38190092D01*
X67316470Y-38190094D01*
X67311962Y-38193251D01*
X67156251Y-38348962D01*
X67153094Y-38353470D01*
X67153092Y-38353473D01*
X67061214Y-38484689D01*
X67029944Y-38529347D01*
X67027621Y-38534329D01*
X67027618Y-38534334D01*
X67001009Y-38591398D01*
X66936880Y-38728924D01*
X66879885Y-38941629D01*
X66860693Y-39161000D01*
X66879885Y-39380371D01*
X66936880Y-39593076D01*
X66980415Y-39686438D01*
X67027618Y-39787666D01*
X67027621Y-39787671D01*
X67029944Y-39792653D01*
X67033100Y-39797160D01*
X67033101Y-39797162D01*
X67061801Y-39838149D01*
X67156251Y-39973038D01*
X67311962Y-40128749D01*
X67492346Y-40255056D01*
X67691924Y-40348120D01*
X67902485Y-40404541D01*
X67902486Y-40404541D01*
X67904629Y-40405115D01*
X67904502Y-40405590D01*
X67968859Y-40439093D01*
X68212842Y-40683077D01*
X68246867Y-40745389D01*
X68241802Y-40816205D01*
X68199255Y-40873040D01*
X68132734Y-40897851D01*
X68127814Y-40898027D01*
X68124000Y-40897693D01*
X67904629Y-40916885D01*
X67691924Y-40973880D01*
X67598562Y-41017415D01*
X67497334Y-41064618D01*
X67497329Y-41064621D01*
X67492347Y-41066944D01*
X67487840Y-41070100D01*
X67487838Y-41070101D01*
X67316473Y-41190092D01*
X67316470Y-41190094D01*
X67311962Y-41193251D01*
X67156251Y-41348962D01*
X67029944Y-41529347D01*
X67027621Y-41534329D01*
X67027618Y-41534334D01*
X67013835Y-41563892D01*
X66936880Y-41728924D01*
X66879885Y-41941629D01*
X66860693Y-42161000D01*
X66879885Y-42380371D01*
X66881310Y-42385691D01*
X66882264Y-42391098D01*
X66880636Y-42391385D01*
X66879119Y-42454821D01*
X66848201Y-42505539D01*
X66423621Y-42930119D01*
X66361309Y-42964145D01*
X66290494Y-42959080D01*
X66233658Y-42916533D01*
X66208847Y-42850013D01*
X66220331Y-42787774D01*
X66220381Y-42787666D01*
X66311120Y-42593076D01*
X66368115Y-42380371D01*
X66387307Y-42161000D01*
X66368115Y-41941629D01*
X66311120Y-41728924D01*
X66234165Y-41563892D01*
X66220382Y-41534334D01*
X66220379Y-41534329D01*
X66218056Y-41529347D01*
X66091749Y-41348962D01*
X65936038Y-41193251D01*
X65915629Y-41178960D01*
X65808272Y-41103788D01*
X65755654Y-41066944D01*
X65556076Y-40973880D01*
X65343371Y-40916885D01*
X65124000Y-40897693D01*
X64904629Y-40916885D01*
X64691924Y-40973880D01*
X64598562Y-41017415D01*
X64497334Y-41064618D01*
X64497329Y-41064621D01*
X64492347Y-41066944D01*
X64487840Y-41070100D01*
X64487838Y-41070101D01*
X64316473Y-41190092D01*
X64316470Y-41190094D01*
X64311962Y-41193251D01*
X64156251Y-41348962D01*
X64029944Y-41529347D01*
X64027621Y-41534329D01*
X64027618Y-41534334D01*
X64013835Y-41563892D01*
X63936880Y-41728924D01*
X63879885Y-41941629D01*
X63860693Y-42161000D01*
X63879885Y-42380371D01*
X63936880Y-42593076D01*
X63980415Y-42686438D01*
X64027618Y-42787666D01*
X64027621Y-42787671D01*
X64029944Y-42792653D01*
X64033100Y-42797160D01*
X64033101Y-42797162D01*
X64126199Y-42930119D01*
X64156251Y-42973038D01*
X64311962Y-43128749D01*
X64411772Y-43198637D01*
X64456099Y-43254093D01*
X64465500Y-43301849D01*
X64465500Y-52153050D01*
X64445498Y-52221171D01*
X64428595Y-52242146D01*
X63772144Y-52898596D01*
X63709832Y-52932621D01*
X63683049Y-52935500D01*
X61792950Y-52935500D01*
X61724829Y-52915498D01*
X61703854Y-52898595D01*
X60893404Y-52088144D01*
X60859379Y-52025832D01*
X60856500Y-51999049D01*
X60856500Y-51776000D01*
X60876502Y-51707879D01*
X60930158Y-51661386D01*
X60982500Y-51650000D01*
X61449885Y-51650000D01*
X61465124Y-51645525D01*
X61466329Y-51644135D01*
X61468000Y-51636452D01*
X61468000Y-51631884D01*
X61976000Y-51631884D01*
X61980475Y-51647123D01*
X61981865Y-51648328D01*
X61989548Y-51649999D01*
X62519095Y-51649999D01*
X62525614Y-51649662D01*
X62621206Y-51639743D01*
X62634600Y-51636851D01*
X62788784Y-51585412D01*
X62801962Y-51579239D01*
X62939807Y-51493937D01*
X62951208Y-51484901D01*
X63065739Y-51370171D01*
X63074751Y-51358760D01*
X63159816Y-51220757D01*
X63165963Y-51207576D01*
X63217138Y-51053290D01*
X63220005Y-51039914D01*
X63229672Y-50945562D01*
X63230000Y-50939146D01*
X63230000Y-50564115D01*
X63225525Y-50548876D01*
X63224135Y-50547671D01*
X63216452Y-50546000D01*
X61994115Y-50546000D01*
X61978876Y-50550475D01*
X61977671Y-50551865D01*
X61976000Y-50559548D01*
X61976000Y-51631884D01*
X61468000Y-51631884D01*
X61468000Y-50164000D01*
X61488002Y-50095879D01*
X61541658Y-50049386D01*
X61594000Y-50038000D01*
X63211884Y-50038000D01*
X63227123Y-50033525D01*
X63228328Y-50032135D01*
X63229999Y-50024452D01*
X63229999Y-49644905D01*
X63229662Y-49638386D01*
X63219743Y-49542794D01*
X63216851Y-49529400D01*
X63165412Y-49375216D01*
X63159239Y-49362038D01*
X63073937Y-49224193D01*
X63064901Y-49212792D01*
X62950171Y-49098261D01*
X62938757Y-49089247D01*
X62799287Y-49003277D01*
X62751793Y-48950505D01*
X62740369Y-48880434D01*
X62768643Y-48815310D01*
X62778430Y-48804847D01*
X62778805Y-48804490D01*
X62893135Y-48695424D01*
X63030754Y-48510458D01*
X63135240Y-48304949D01*
X63175298Y-48175944D01*
X63202024Y-48089871D01*
X63203607Y-48084773D01*
X63216323Y-47988829D01*
X63233198Y-47861511D01*
X63233198Y-47861506D01*
X63233898Y-47856226D01*
X63233317Y-47840734D01*
X63225449Y-47631173D01*
X63225249Y-47625842D01*
X63177907Y-47400209D01*
X63175948Y-47395248D01*
X63095185Y-47190744D01*
X63095184Y-47190742D01*
X63093224Y-47185779D01*
X63063038Y-47136033D01*
X62976390Y-46993243D01*
X62973623Y-46988683D01*
X62940241Y-46950213D01*
X62826023Y-46818588D01*
X62826021Y-46818586D01*
X62822523Y-46814555D01*
X62739901Y-46746809D01*
X62648373Y-46671760D01*
X62648367Y-46671756D01*
X62644245Y-46668376D01*
X62639609Y-46665737D01*
X62639606Y-46665735D01*
X62448529Y-46556968D01*
X62443886Y-46554325D01*
X62227175Y-46475663D01*
X62221926Y-46474714D01*
X62221923Y-46474713D01*
X62004392Y-46435377D01*
X62004385Y-46435376D01*
X62000308Y-46434639D01*
X61982586Y-46433803D01*
X61977644Y-46433570D01*
X61977637Y-46433570D01*
X61976156Y-46433500D01*
X61514110Y-46433500D01*
X61447191Y-46439178D01*
X61347591Y-46447629D01*
X61347587Y-46447630D01*
X61342280Y-46448080D01*
X61337125Y-46449418D01*
X61337119Y-46449419D01*
X61124297Y-46504657D01*
X61124293Y-46504658D01*
X61119128Y-46505999D01*
X61114262Y-46508191D01*
X61114259Y-46508192D01*
X60980544Y-46568426D01*
X60908925Y-46600688D01*
X60717681Y-46729441D01*
X60713824Y-46733120D01*
X60713822Y-46733122D01*
X60659198Y-46785231D01*
X60550865Y-46888576D01*
X60413246Y-47073542D01*
X60410830Y-47078293D01*
X60410828Y-47078297D01*
X60395828Y-47107800D01*
X60308760Y-47279051D01*
X60307178Y-47284145D01*
X60307177Y-47284148D01*
X60246978Y-47478019D01*
X60240393Y-47499227D01*
X60239692Y-47504516D01*
X60215476Y-47687229D01*
X60210102Y-47727774D01*
X60218751Y-47958158D01*
X60219846Y-47963377D01*
X60264447Y-48175944D01*
X60266093Y-48183791D01*
X60266267Y-48184230D01*
X60266674Y-48253766D01*
X60234667Y-48308073D01*
X59790395Y-48752345D01*
X59781615Y-48760335D01*
X59781613Y-48760337D01*
X59774920Y-48764584D01*
X59769494Y-48770362D01*
X59769493Y-48770363D01*
X59726396Y-48816257D01*
X59723641Y-48819099D01*
X59703073Y-48839667D01*
X59700356Y-48843170D01*
X59692648Y-48852195D01*
X59661028Y-48885867D01*
X59657208Y-48892816D01*
X59656437Y-48893877D01*
X59600215Y-48937231D01*
X59529479Y-48943308D01*
X59466687Y-48910177D01*
X59431775Y-48848357D01*
X59428500Y-48819817D01*
X59428500Y-47484843D01*
X59429237Y-47471236D01*
X59432659Y-47439738D01*
X59432659Y-47439733D01*
X59433324Y-47433612D01*
X59428950Y-47383612D01*
X59428621Y-47378786D01*
X59428500Y-47376314D01*
X59428500Y-47373231D01*
X59427326Y-47361262D01*
X59424310Y-47330494D01*
X59424188Y-47329181D01*
X59416623Y-47242718D01*
X59416087Y-47236587D01*
X59414600Y-47231468D01*
X59414080Y-47226167D01*
X59387209Y-47137166D01*
X59386874Y-47136033D01*
X59362630Y-47052586D01*
X59362628Y-47052582D01*
X59360909Y-47046664D01*
X59358456Y-47041932D01*
X59356916Y-47036831D01*
X59351242Y-47026159D01*
X59313269Y-46954740D01*
X59312657Y-46953574D01*
X59272729Y-46876547D01*
X59269892Y-46871074D01*
X59266569Y-46866911D01*
X59264066Y-46862204D01*
X59211968Y-46798325D01*
X59205261Y-46790102D01*
X59204433Y-46789075D01*
X59175469Y-46752792D01*
X59175464Y-46752787D01*
X59173262Y-46750028D01*
X59170761Y-46747527D01*
X59170119Y-46746809D01*
X59166406Y-46742461D01*
X59153356Y-46726461D01*
X59139065Y-46708938D01*
X59134323Y-46705015D01*
X59134321Y-46705013D01*
X59103727Y-46679703D01*
X59094947Y-46671713D01*
X56060848Y-43637614D01*
X56026822Y-43575302D01*
X56031887Y-43504487D01*
X56074434Y-43447651D01*
X56138962Y-43422998D01*
X56343371Y-43405115D01*
X56556076Y-43348120D01*
X56755654Y-43255056D01*
X56896763Y-43156250D01*
X56931527Y-43131908D01*
X56931529Y-43131906D01*
X56936038Y-43128749D01*
X57091749Y-42973038D01*
X57121802Y-42930119D01*
X57214899Y-42797162D01*
X57214900Y-42797160D01*
X57218056Y-42792653D01*
X57220379Y-42787671D01*
X57220382Y-42787666D01*
X57267585Y-42686438D01*
X57311120Y-42593076D01*
X57368115Y-42380371D01*
X57387307Y-42161000D01*
X57860693Y-42161000D01*
X57879885Y-42380371D01*
X57936880Y-42593076D01*
X57980415Y-42686438D01*
X58027618Y-42787666D01*
X58027621Y-42787671D01*
X58029944Y-42792653D01*
X58033100Y-42797160D01*
X58033101Y-42797162D01*
X58126199Y-42930119D01*
X58156251Y-42973038D01*
X58311962Y-43128749D01*
X58316471Y-43131906D01*
X58316473Y-43131908D01*
X58351237Y-43156250D01*
X58492346Y-43255056D01*
X58691924Y-43348120D01*
X58904629Y-43405115D01*
X59124000Y-43424307D01*
X59343371Y-43405115D01*
X59556076Y-43348120D01*
X59755654Y-43255056D01*
X59896763Y-43156250D01*
X59931527Y-43131908D01*
X59931529Y-43131906D01*
X59936038Y-43128749D01*
X60091749Y-42973038D01*
X60121802Y-42930119D01*
X60214899Y-42797162D01*
X60214900Y-42797160D01*
X60218056Y-42792653D01*
X60220379Y-42787671D01*
X60220382Y-42787666D01*
X60267585Y-42686438D01*
X60311120Y-42593076D01*
X60368115Y-42380371D01*
X60387307Y-42161000D01*
X60860693Y-42161000D01*
X60879885Y-42380371D01*
X60936880Y-42593076D01*
X60980415Y-42686438D01*
X61027618Y-42787666D01*
X61027621Y-42787671D01*
X61029944Y-42792653D01*
X61033100Y-42797160D01*
X61033101Y-42797162D01*
X61126199Y-42930119D01*
X61156251Y-42973038D01*
X61311962Y-43128749D01*
X61316471Y-43131906D01*
X61316473Y-43131908D01*
X61351237Y-43156250D01*
X61492346Y-43255056D01*
X61691924Y-43348120D01*
X61904629Y-43405115D01*
X62124000Y-43424307D01*
X62343371Y-43405115D01*
X62556076Y-43348120D01*
X62755654Y-43255056D01*
X62896763Y-43156250D01*
X62931527Y-43131908D01*
X62931529Y-43131906D01*
X62936038Y-43128749D01*
X63091749Y-42973038D01*
X63121802Y-42930119D01*
X63214899Y-42797162D01*
X63214900Y-42797160D01*
X63218056Y-42792653D01*
X63220379Y-42787671D01*
X63220382Y-42787666D01*
X63267585Y-42686438D01*
X63311120Y-42593076D01*
X63368115Y-42380371D01*
X63387307Y-42161000D01*
X63368115Y-41941629D01*
X63311120Y-41728924D01*
X63234165Y-41563892D01*
X63220382Y-41534334D01*
X63220379Y-41534329D01*
X63218056Y-41529347D01*
X63091749Y-41348962D01*
X62936038Y-41193251D01*
X62915629Y-41178960D01*
X62808272Y-41103788D01*
X62755654Y-41066944D01*
X62556076Y-40973880D01*
X62343371Y-40916885D01*
X62124000Y-40897693D01*
X61904629Y-40916885D01*
X61691924Y-40973880D01*
X61598562Y-41017415D01*
X61497334Y-41064618D01*
X61497329Y-41064621D01*
X61492347Y-41066944D01*
X61487840Y-41070100D01*
X61487838Y-41070101D01*
X61316473Y-41190092D01*
X61316470Y-41190094D01*
X61311962Y-41193251D01*
X61156251Y-41348962D01*
X61029944Y-41529347D01*
X61027621Y-41534329D01*
X61027618Y-41534334D01*
X61013835Y-41563892D01*
X60936880Y-41728924D01*
X60879885Y-41941629D01*
X60860693Y-42161000D01*
X60387307Y-42161000D01*
X60368115Y-41941629D01*
X60311120Y-41728924D01*
X60234165Y-41563892D01*
X60220382Y-41534334D01*
X60220379Y-41534329D01*
X60218056Y-41529347D01*
X60091749Y-41348962D01*
X59936038Y-41193251D01*
X59915629Y-41178960D01*
X59808272Y-41103788D01*
X59755654Y-41066944D01*
X59556076Y-40973880D01*
X59343371Y-40916885D01*
X59124000Y-40897693D01*
X58904629Y-40916885D01*
X58691924Y-40973880D01*
X58598562Y-41017415D01*
X58497334Y-41064618D01*
X58497329Y-41064621D01*
X58492347Y-41066944D01*
X58487840Y-41070100D01*
X58487838Y-41070101D01*
X58316473Y-41190092D01*
X58316470Y-41190094D01*
X58311962Y-41193251D01*
X58156251Y-41348962D01*
X58029944Y-41529347D01*
X58027621Y-41534329D01*
X58027618Y-41534334D01*
X58013835Y-41563892D01*
X57936880Y-41728924D01*
X57879885Y-41941629D01*
X57860693Y-42161000D01*
X57387307Y-42161000D01*
X57368115Y-41941629D01*
X57311120Y-41728924D01*
X57234165Y-41563892D01*
X57220382Y-41534334D01*
X57220379Y-41534329D01*
X57218056Y-41529347D01*
X57091749Y-41348962D01*
X56936038Y-41193251D01*
X56915629Y-41178960D01*
X56808272Y-41103788D01*
X56755654Y-41066944D01*
X56556076Y-40973880D01*
X56343371Y-40916885D01*
X56124000Y-40897693D01*
X55904629Y-40916885D01*
X55691924Y-40973880D01*
X55598562Y-41017415D01*
X55497334Y-41064618D01*
X55497329Y-41064621D01*
X55492347Y-41066944D01*
X55487840Y-41070100D01*
X55487838Y-41070101D01*
X55316473Y-41190092D01*
X55316470Y-41190094D01*
X55311962Y-41193251D01*
X55156251Y-41348962D01*
X55029944Y-41529347D01*
X55027621Y-41534329D01*
X55027618Y-41534334D01*
X55013835Y-41563892D01*
X54936880Y-41728924D01*
X54879885Y-41941629D01*
X54869785Y-42057073D01*
X54862002Y-42146038D01*
X54836139Y-42212157D01*
X54778635Y-42253796D01*
X54707748Y-42257737D01*
X54647386Y-42224152D01*
X54393180Y-41969946D01*
X54360568Y-41913463D01*
X54312543Y-41734235D01*
X54311120Y-41728924D01*
X54234165Y-41563892D01*
X54220382Y-41534334D01*
X54220379Y-41534329D01*
X54218056Y-41529347D01*
X54091749Y-41348962D01*
X53936038Y-41193251D01*
X53915629Y-41178960D01*
X53808272Y-41103788D01*
X53755654Y-41066944D01*
X53556076Y-40973880D01*
X53343371Y-40916885D01*
X53124000Y-40897693D01*
X52904629Y-40916885D01*
X52691924Y-40973880D01*
X52598562Y-41017415D01*
X52497334Y-41064618D01*
X52497329Y-41064621D01*
X52492347Y-41066944D01*
X52487840Y-41070100D01*
X52487838Y-41070101D01*
X52316473Y-41190092D01*
X52316470Y-41190094D01*
X52311962Y-41193251D01*
X52156251Y-41348962D01*
X52029944Y-41529347D01*
X52027619Y-41534332D01*
X52027616Y-41534338D01*
X52010300Y-41571474D01*
X51963384Y-41624759D01*
X51895107Y-41644221D01*
X51827147Y-41623680D01*
X51778672Y-41563892D01*
X51717340Y-41406176D01*
X51717339Y-41406173D01*
X51715647Y-41401823D01*
X51685435Y-41348962D01*
X51602025Y-41203026D01*
X51585951Y-41174902D01*
X51424138Y-40969643D01*
X51233763Y-40790557D01*
X51019009Y-40641576D01*
X51014816Y-40639508D01*
X50788781Y-40528040D01*
X50788778Y-40528039D01*
X50784593Y-40525975D01*
X50747417Y-40514075D01*
X50729536Y-40508351D01*
X50670755Y-40468534D01*
X50642833Y-40403258D01*
X50654634Y-40333249D01*
X50702411Y-40280734D01*
X50714698Y-40274154D01*
X50750667Y-40257382D01*
X50750672Y-40257379D01*
X50755654Y-40255056D01*
X50936038Y-40128749D01*
X51091749Y-39973038D01*
X51186200Y-39838149D01*
X51214899Y-39797162D01*
X51214900Y-39797160D01*
X51218056Y-39792653D01*
X51220379Y-39787671D01*
X51220382Y-39787666D01*
X51267585Y-39686438D01*
X51311120Y-39593076D01*
X51368115Y-39380371D01*
X51387307Y-39161000D01*
X51368115Y-38941629D01*
X51320281Y-38763112D01*
X51321971Y-38692135D01*
X51361765Y-38633339D01*
X51427029Y-38605391D01*
X51441988Y-38604500D01*
X51806012Y-38604500D01*
X51874133Y-38624502D01*
X51920626Y-38678158D01*
X51930730Y-38748432D01*
X51927719Y-38763112D01*
X51879885Y-38941629D01*
X51860693Y-39161000D01*
X51879885Y-39380371D01*
X51936880Y-39593076D01*
X51980415Y-39686438D01*
X52027618Y-39787666D01*
X52027621Y-39787671D01*
X52029944Y-39792653D01*
X52033100Y-39797160D01*
X52033101Y-39797162D01*
X52061801Y-39838149D01*
X52156251Y-39973038D01*
X52311962Y-40128749D01*
X52492346Y-40255056D01*
X52691924Y-40348120D01*
X52904629Y-40405115D01*
X53124000Y-40424307D01*
X53343371Y-40405115D01*
X53556076Y-40348120D01*
X53755654Y-40255056D01*
X53936038Y-40128749D01*
X54091749Y-39973038D01*
X54186200Y-39838149D01*
X54214899Y-39797162D01*
X54214900Y-39797160D01*
X54218056Y-39792653D01*
X54220379Y-39787671D01*
X54220382Y-39787666D01*
X54267585Y-39686438D01*
X54311120Y-39593076D01*
X54368115Y-39380371D01*
X54387307Y-39161000D01*
X54368115Y-38941629D01*
X54320281Y-38763112D01*
X54321971Y-38692135D01*
X54361765Y-38633339D01*
X54427029Y-38605391D01*
X54441988Y-38604500D01*
X54806012Y-38604500D01*
X54874133Y-38624502D01*
X54920626Y-38678158D01*
X54930730Y-38748432D01*
X54927719Y-38763112D01*
X54879885Y-38941629D01*
X54860693Y-39161000D01*
X54879885Y-39380371D01*
X54936880Y-39593076D01*
X54980415Y-39686438D01*
X55027618Y-39787666D01*
X55027621Y-39787671D01*
X55029944Y-39792653D01*
X55033100Y-39797160D01*
X55033101Y-39797162D01*
X55061801Y-39838149D01*
X55156251Y-39973038D01*
X55311962Y-40128749D01*
X55492346Y-40255056D01*
X55691924Y-40348120D01*
X55904629Y-40405115D01*
X56124000Y-40424307D01*
X56343371Y-40405115D01*
X56556076Y-40348120D01*
X56755654Y-40255056D01*
X56936038Y-40128749D01*
X57091749Y-39973038D01*
X57186200Y-39838149D01*
X57214899Y-39797162D01*
X57214900Y-39797160D01*
X57218056Y-39792653D01*
X57220379Y-39787671D01*
X57220382Y-39787666D01*
X57267585Y-39686438D01*
X57311120Y-39593076D01*
X57368115Y-39380371D01*
X57387307Y-39161000D01*
X57368115Y-38941629D01*
X57320281Y-38763112D01*
X57321971Y-38692135D01*
X57361765Y-38633339D01*
X57427029Y-38605391D01*
X57441988Y-38604500D01*
X57476628Y-38604500D01*
X57544749Y-38624502D01*
X57565723Y-38641404D01*
X57837217Y-38912897D01*
X57871242Y-38975210D01*
X57873643Y-39012974D01*
X57861814Y-39148189D01*
X57860693Y-39161000D01*
X57879885Y-39380371D01*
X57936880Y-39593076D01*
X57980415Y-39686438D01*
X58027618Y-39787666D01*
X58027621Y-39787671D01*
X58029944Y-39792653D01*
X58033100Y-39797160D01*
X58033101Y-39797162D01*
X58061801Y-39838149D01*
X58156251Y-39973038D01*
X58311962Y-40128749D01*
X58492346Y-40255056D01*
X58691924Y-40348120D01*
X58904629Y-40405115D01*
X59124000Y-40424307D01*
X59343371Y-40405115D01*
X59556076Y-40348120D01*
X59755654Y-40255056D01*
X59936038Y-40128749D01*
X60091749Y-39973038D01*
X60186200Y-39838149D01*
X60214899Y-39797162D01*
X60214900Y-39797160D01*
X60218056Y-39792653D01*
X60220379Y-39787671D01*
X60220382Y-39787666D01*
X60267585Y-39686438D01*
X60311120Y-39593076D01*
X60368115Y-39380371D01*
X60387307Y-39161000D01*
X60368115Y-38941629D01*
X60311120Y-38728924D01*
X60308918Y-38724202D01*
X60304420Y-38653438D01*
X60338938Y-38591398D01*
X60401518Y-38557867D01*
X60472291Y-38563493D01*
X60516420Y-38592101D01*
X60837217Y-38912898D01*
X60871243Y-38975210D01*
X60873643Y-39012974D01*
X60861814Y-39148189D01*
X60860693Y-39161000D01*
X60879885Y-39380371D01*
X60936880Y-39593076D01*
X60980415Y-39686438D01*
X61027618Y-39787666D01*
X61027621Y-39787671D01*
X61029944Y-39792653D01*
X61033100Y-39797160D01*
X61033101Y-39797162D01*
X61061801Y-39838149D01*
X61156251Y-39973038D01*
X61311962Y-40128749D01*
X61492346Y-40255056D01*
X61691924Y-40348120D01*
X61904629Y-40405115D01*
X62124000Y-40424307D01*
X62343371Y-40405115D01*
X62556076Y-40348120D01*
X62755654Y-40255056D01*
X62818342Y-40211161D01*
X64438393Y-40211161D01*
X64447687Y-40223175D01*
X64488088Y-40251464D01*
X64497584Y-40256947D01*
X64687113Y-40345326D01*
X64697405Y-40349072D01*
X64899401Y-40403196D01*
X64910196Y-40405099D01*
X65118525Y-40423326D01*
X65129475Y-40423326D01*
X65337804Y-40405099D01*
X65348599Y-40403196D01*
X65550595Y-40349072D01*
X65560887Y-40345326D01*
X65750416Y-40256947D01*
X65759912Y-40251464D01*
X65801148Y-40222590D01*
X65809523Y-40212112D01*
X65802457Y-40198668D01*
X65136811Y-39533021D01*
X65122868Y-39525408D01*
X65121034Y-39525539D01*
X65114420Y-39529790D01*
X64444820Y-40199391D01*
X64438393Y-40211161D01*
X62818342Y-40211161D01*
X62936038Y-40128749D01*
X63091749Y-39973038D01*
X63186200Y-39838149D01*
X63214899Y-39797162D01*
X63214900Y-39797160D01*
X63218056Y-39792653D01*
X63220379Y-39787671D01*
X63220382Y-39787666D01*
X63267585Y-39686438D01*
X63311120Y-39593076D01*
X63368115Y-39380371D01*
X63386828Y-39166475D01*
X63861674Y-39166475D01*
X63879901Y-39374804D01*
X63881804Y-39385599D01*
X63935928Y-39587595D01*
X63939674Y-39597887D01*
X64028054Y-39787417D01*
X64033534Y-39796907D01*
X64062411Y-39838149D01*
X64072887Y-39846523D01*
X64086334Y-39839455D01*
X64751979Y-39173811D01*
X64758356Y-39162132D01*
X65488408Y-39162132D01*
X65488539Y-39163966D01*
X65492790Y-39170580D01*
X66162391Y-39840180D01*
X66174161Y-39846607D01*
X66186176Y-39837311D01*
X66214466Y-39796907D01*
X66219946Y-39787417D01*
X66308326Y-39597887D01*
X66312072Y-39587595D01*
X66366196Y-39385599D01*
X66368099Y-39374804D01*
X66386326Y-39166475D01*
X66386326Y-39155525D01*
X66368099Y-38947196D01*
X66366196Y-38936401D01*
X66312072Y-38734405D01*
X66308326Y-38724113D01*
X66219946Y-38534583D01*
X66214466Y-38525093D01*
X66185589Y-38483851D01*
X66175113Y-38475477D01*
X66161666Y-38482545D01*
X65496021Y-39148189D01*
X65488408Y-39162132D01*
X64758356Y-39162132D01*
X64759592Y-39159868D01*
X64759461Y-39158034D01*
X64755210Y-39151420D01*
X64085609Y-38481820D01*
X64073839Y-38475393D01*
X64061824Y-38484689D01*
X64033534Y-38525093D01*
X64028054Y-38534583D01*
X63939674Y-38724113D01*
X63935928Y-38734405D01*
X63881804Y-38936401D01*
X63879901Y-38947196D01*
X63861674Y-39155525D01*
X63861674Y-39166475D01*
X63386828Y-39166475D01*
X63387307Y-39161000D01*
X63368115Y-38941629D01*
X63311120Y-38728924D01*
X63246991Y-38591398D01*
X63220382Y-38534334D01*
X63220379Y-38534329D01*
X63218056Y-38529347D01*
X63186786Y-38484689D01*
X63094908Y-38353473D01*
X63094906Y-38353470D01*
X63091749Y-38348962D01*
X62936038Y-38193251D01*
X62816983Y-38109887D01*
X64438477Y-38109887D01*
X64445545Y-38123334D01*
X65111189Y-38788979D01*
X65125132Y-38796592D01*
X65126966Y-38796461D01*
X65133580Y-38792210D01*
X65803180Y-38122609D01*
X65809607Y-38110839D01*
X65800313Y-38098825D01*
X65759912Y-38070536D01*
X65750416Y-38065053D01*
X65560887Y-37976674D01*
X65550595Y-37972928D01*
X65348599Y-37918804D01*
X65337804Y-37916901D01*
X65129475Y-37898674D01*
X65118525Y-37898674D01*
X64910196Y-37916901D01*
X64899401Y-37918804D01*
X64697405Y-37972928D01*
X64687113Y-37976674D01*
X64497583Y-38065054D01*
X64488093Y-38070534D01*
X64446851Y-38099411D01*
X64438477Y-38109887D01*
X62816983Y-38109887D01*
X62755654Y-38066944D01*
X62556076Y-37973880D01*
X62343371Y-37916885D01*
X62124000Y-37897693D01*
X62038503Y-37905173D01*
X61968900Y-37891184D01*
X61938428Y-37868747D01*
X60664770Y-36595089D01*
X60652384Y-36580677D01*
X60643851Y-36569082D01*
X60643846Y-36569077D01*
X60639508Y-36563182D01*
X60633930Y-36558443D01*
X60633927Y-36558440D01*
X60599232Y-36528965D01*
X60591716Y-36522035D01*
X60586021Y-36516340D01*
X60569736Y-36503456D01*
X60563749Y-36498719D01*
X60560345Y-36495928D01*
X60510297Y-36453409D01*
X60510295Y-36453408D01*
X60504715Y-36448667D01*
X60498199Y-36445339D01*
X60493150Y-36441972D01*
X60488021Y-36438805D01*
X60482284Y-36434266D01*
X60416125Y-36403345D01*
X60412225Y-36401439D01*
X60347192Y-36368231D01*
X60340084Y-36366492D01*
X60334441Y-36364393D01*
X60328678Y-36362476D01*
X60322050Y-36359378D01*
X60250583Y-36344513D01*
X60246299Y-36343543D01*
X60211958Y-36335140D01*
X60175390Y-36326192D01*
X60169788Y-36325844D01*
X60169785Y-36325844D01*
X60164236Y-36325500D01*
X60164238Y-36325464D01*
X60160245Y-36325225D01*
X60156053Y-36324851D01*
X60148885Y-36323360D01*
X60085120Y-36325085D01*
X60071479Y-36325454D01*
X60068072Y-36325500D01*
X50931344Y-36325500D01*
X50863223Y-36305498D01*
X50816730Y-36251842D01*
X50806626Y-36181568D01*
X50832055Y-36121927D01*
X50950474Y-35970357D01*
X50950481Y-35970347D01*
X50953188Y-35966882D01*
X50955384Y-35963078D01*
X50955389Y-35963071D01*
X51091435Y-35727431D01*
X51093636Y-35723619D01*
X51198862Y-35463176D01*
X51232544Y-35328087D01*
X51265753Y-35194893D01*
X51265754Y-35194888D01*
X51266817Y-35190624D01*
X51296178Y-34911267D01*
X51291271Y-34770733D01*
X63971822Y-34770733D01*
X63981625Y-35051458D01*
X63982387Y-35055781D01*
X63982388Y-35055788D01*
X64006164Y-35190624D01*
X64030402Y-35328087D01*
X64117203Y-35595235D01*
X64240340Y-35847702D01*
X64242795Y-35851341D01*
X64242798Y-35851347D01*
X64315890Y-35959710D01*
X64397415Y-36080576D01*
X64585371Y-36289322D01*
X64800550Y-36469879D01*
X65038764Y-36618731D01*
X65295375Y-36732982D01*
X65565390Y-36810407D01*
X65569740Y-36811018D01*
X65569743Y-36811019D01*
X65672690Y-36825487D01*
X65843552Y-36849500D01*
X66054146Y-36849500D01*
X66056332Y-36849347D01*
X66056336Y-36849347D01*
X66259827Y-36835118D01*
X66259832Y-36835117D01*
X66264212Y-36834811D01*
X66538970Y-36776409D01*
X66543099Y-36774906D01*
X66543103Y-36774905D01*
X66798781Y-36681846D01*
X66798785Y-36681844D01*
X66802926Y-36680337D01*
X67050942Y-36548464D01*
X67054503Y-36545877D01*
X67274629Y-36385947D01*
X67274632Y-36385944D01*
X67278192Y-36383358D01*
X67290410Y-36371560D01*
X67477087Y-36191287D01*
X67480252Y-36188231D01*
X67653188Y-35966882D01*
X67655384Y-35963078D01*
X67655389Y-35963071D01*
X67791435Y-35727431D01*
X67793636Y-35723619D01*
X67898862Y-35463176D01*
X67932544Y-35328087D01*
X67965753Y-35194893D01*
X67965754Y-35194888D01*
X67966817Y-35190624D01*
X67996178Y-34911267D01*
X67986375Y-34630542D01*
X67962608Y-34495749D01*
X67938360Y-34358236D01*
X67937598Y-34353913D01*
X67850797Y-34086765D01*
X67727660Y-33834298D01*
X67725205Y-33830659D01*
X67725202Y-33830653D01*
X67644935Y-33711653D01*
X67570585Y-33601424D01*
X67382629Y-33392678D01*
X67167450Y-33212121D01*
X66929236Y-33063269D01*
X66672625Y-32949018D01*
X66402610Y-32871593D01*
X66398260Y-32870982D01*
X66398257Y-32870981D01*
X66295310Y-32856513D01*
X66124448Y-32832500D01*
X65913854Y-32832500D01*
X65911668Y-32832653D01*
X65911664Y-32832653D01*
X65708173Y-32846882D01*
X65708168Y-32846883D01*
X65703788Y-32847189D01*
X65429030Y-32905591D01*
X65424901Y-32907094D01*
X65424897Y-32907095D01*
X65169219Y-33000154D01*
X65169215Y-33000156D01*
X65165074Y-33001663D01*
X64917058Y-33133536D01*
X64913499Y-33136122D01*
X64913497Y-33136123D01*
X64808895Y-33212121D01*
X64689808Y-33298642D01*
X64487748Y-33493769D01*
X64314812Y-33715118D01*
X64312616Y-33718922D01*
X64312611Y-33718929D01*
X64198794Y-33916067D01*
X64174364Y-33958381D01*
X64069138Y-34218824D01*
X64068073Y-34223097D01*
X64068072Y-34223099D01*
X64034379Y-34358236D01*
X64001183Y-34491376D01*
X63971822Y-34770733D01*
X51291271Y-34770733D01*
X51286375Y-34630542D01*
X51262608Y-34495749D01*
X51238360Y-34358236D01*
X51237598Y-34353913D01*
X51150797Y-34086765D01*
X51027660Y-33834298D01*
X51025205Y-33830659D01*
X51025202Y-33830653D01*
X50944935Y-33711653D01*
X50870585Y-33601424D01*
X50682629Y-33392678D01*
X50467450Y-33212121D01*
X50229236Y-33063269D01*
X49972625Y-32949018D01*
X49702610Y-32871593D01*
X49698260Y-32870982D01*
X49698257Y-32870981D01*
X49595310Y-32856513D01*
X49424448Y-32832500D01*
X49213854Y-32832500D01*
X49211668Y-32832653D01*
X49211664Y-32832653D01*
X49008173Y-32846882D01*
X49008168Y-32846883D01*
X49003788Y-32847189D01*
X48729030Y-32905591D01*
X48724901Y-32907094D01*
X48724897Y-32907095D01*
X48469219Y-33000154D01*
X48469215Y-33000156D01*
X48465074Y-33001663D01*
X48217058Y-33133536D01*
X48213499Y-33136122D01*
X48213497Y-33136123D01*
X48108895Y-33212121D01*
X47989808Y-33298642D01*
X47787748Y-33493769D01*
X47614812Y-33715118D01*
X47612616Y-33718922D01*
X47612611Y-33718929D01*
X47498794Y-33916067D01*
X47474364Y-33958381D01*
X47369138Y-34218824D01*
X47368073Y-34223097D01*
X47368072Y-34223099D01*
X47334379Y-34358236D01*
X47301183Y-34491376D01*
X47271822Y-34770733D01*
X47281625Y-35051458D01*
X47282387Y-35055781D01*
X47282388Y-35055788D01*
X47306164Y-35190624D01*
X47330402Y-35328087D01*
X47417203Y-35595235D01*
X47540340Y-35847702D01*
X47542795Y-35851341D01*
X47542798Y-35851347D01*
X47615890Y-35959710D01*
X47697415Y-36080576D01*
X47700360Y-36083847D01*
X47700361Y-36083848D01*
X47728581Y-36115189D01*
X47759298Y-36179196D01*
X47750535Y-36249650D01*
X47705072Y-36304181D01*
X47634945Y-36325500D01*
X46041069Y-36325500D01*
X46022121Y-36324067D01*
X46014780Y-36322950D01*
X46007883Y-36321901D01*
X46007881Y-36321901D01*
X46000651Y-36320801D01*
X45993359Y-36321394D01*
X45993356Y-36321394D01*
X45947982Y-36325085D01*
X45937767Y-36325500D01*
X45929707Y-36325500D01*
X45916417Y-36327049D01*
X45901493Y-36328789D01*
X45897118Y-36329222D01*
X45831661Y-36334546D01*
X45831658Y-36334547D01*
X45824363Y-36335140D01*
X45817399Y-36337396D01*
X45811440Y-36338587D01*
X45805585Y-36339971D01*
X45798319Y-36340818D01*
X45729673Y-36365735D01*
X45725545Y-36367152D01*
X45663064Y-36387393D01*
X45663062Y-36387394D01*
X45656101Y-36389649D01*
X45649846Y-36393445D01*
X45644372Y-36395951D01*
X45638942Y-36398670D01*
X45632063Y-36401167D01*
X45625943Y-36405180D01*
X45625942Y-36405180D01*
X45571024Y-36441186D01*
X45567320Y-36443523D01*
X45504893Y-36481405D01*
X45496516Y-36488803D01*
X45496492Y-36488776D01*
X45493500Y-36491429D01*
X45490267Y-36494132D01*
X45484148Y-36498144D01*
X45454951Y-36528965D01*
X45430872Y-36554383D01*
X45428494Y-36556825D01*
X39959089Y-42026230D01*
X39944677Y-42038616D01*
X39933082Y-42047149D01*
X39933077Y-42047154D01*
X39927182Y-42051492D01*
X39922443Y-42057070D01*
X39922440Y-42057073D01*
X39892965Y-42091768D01*
X39886035Y-42099284D01*
X39880340Y-42104979D01*
X39878060Y-42107861D01*
X39862719Y-42127251D01*
X39859928Y-42130655D01*
X39834148Y-42161000D01*
X39812667Y-42186285D01*
X39809339Y-42192801D01*
X39805972Y-42197850D01*
X39802805Y-42202979D01*
X39798266Y-42208716D01*
X39767345Y-42274875D01*
X39765442Y-42278769D01*
X39732231Y-42343808D01*
X39730492Y-42350916D01*
X39728393Y-42356559D01*
X39726476Y-42362322D01*
X39723378Y-42368950D01*
X39721888Y-42376112D01*
X39721888Y-42376113D01*
X39708514Y-42440412D01*
X39707544Y-42444696D01*
X39690192Y-42515610D01*
X39689500Y-42526764D01*
X39689464Y-42526762D01*
X39689225Y-42530755D01*
X39688851Y-42534947D01*
X39687360Y-42542115D01*
X39687558Y-42549432D01*
X39689454Y-42619521D01*
X39689500Y-42622928D01*
X39689500Y-53953577D01*
X39669498Y-54021698D01*
X39652595Y-54042672D01*
X37585791Y-56109476D01*
X37523479Y-56143502D01*
X37493948Y-56146351D01*
X37283763Y-56141764D01*
X37279634Y-56142220D01*
X37261196Y-56144256D01*
X37261192Y-56144257D01*
X37259730Y-56144418D01*
X37258280Y-56144648D01*
X37258270Y-56144649D01*
X36889984Y-56202979D01*
X36852757Y-56208875D01*
X36764606Y-56230608D01*
X36690497Y-56248879D01*
X36690493Y-56248880D01*
X36685323Y-56250155D01*
X36473979Y-56342269D01*
X36469518Y-56345194D01*
X36469512Y-56345197D01*
X36285646Y-56465744D01*
X36285643Y-56465746D01*
X36281176Y-56468675D01*
X36244672Y-56502656D01*
X36161477Y-56580100D01*
X36112427Y-56625759D01*
X35972559Y-56809031D01*
X35970080Y-56813763D01*
X35970078Y-56813766D01*
X35944766Y-56862080D01*
X35865569Y-57013247D01*
X35794517Y-57232571D01*
X35779100Y-57338897D01*
X35763391Y-57447243D01*
X35761435Y-57460732D01*
X33554539Y-57460732D01*
X33089935Y-54401842D01*
X32751490Y-52173565D01*
X33276760Y-52173565D01*
X33284217Y-52183932D01*
X33523936Y-52378053D01*
X33529273Y-52381930D01*
X33849686Y-52590009D01*
X33855395Y-52593306D01*
X34195812Y-52766757D01*
X34201837Y-52769439D01*
X34558503Y-52906350D01*
X34564785Y-52908391D01*
X34933817Y-53007273D01*
X34940267Y-53008644D01*
X35317630Y-53068413D01*
X35324168Y-53069099D01*
X35705700Y-53089095D01*
X35712302Y-53089095D01*
X36093834Y-53069099D01*
X36100372Y-53068413D01*
X36477735Y-53008644D01*
X36484185Y-53007273D01*
X36853217Y-52908391D01*
X36859499Y-52906350D01*
X37216165Y-52769439D01*
X37222190Y-52766757D01*
X37562607Y-52593306D01*
X37568316Y-52590009D01*
X37888729Y-52381930D01*
X37894066Y-52378053D01*
X38132836Y-52184701D01*
X38141301Y-52172446D01*
X38134967Y-52161355D01*
X35721813Y-49748201D01*
X35707869Y-49740587D01*
X35706036Y-49740718D01*
X35699421Y-49744969D01*
X33283901Y-52160489D01*
X33276760Y-52173565D01*
X32751490Y-52173565D01*
X32714437Y-51929610D01*
X32723983Y-51859258D01*
X32770048Y-51805235D01*
X32838008Y-51784693D01*
X32910622Y-51807019D01*
X32912734Y-51808478D01*
X32923825Y-51802145D01*
X35348659Y-49377311D01*
X36073409Y-49377311D01*
X36073540Y-49379144D01*
X36077791Y-49385759D01*
X38493311Y-51801279D01*
X38506387Y-51808420D01*
X38516754Y-51800963D01*
X38710878Y-51561240D01*
X38714748Y-51555914D01*
X38922832Y-51235492D01*
X38926129Y-51229782D01*
X39099579Y-50889368D01*
X39102261Y-50883343D01*
X39239172Y-50526677D01*
X39241213Y-50520395D01*
X39340095Y-50151363D01*
X39341466Y-50144913D01*
X39401235Y-49767550D01*
X39401921Y-49761012D01*
X39421917Y-49379480D01*
X39421917Y-49372878D01*
X39401921Y-48991346D01*
X39401235Y-48984808D01*
X39341466Y-48607445D01*
X39340095Y-48600995D01*
X39241213Y-48231963D01*
X39239172Y-48225681D01*
X39102261Y-47869015D01*
X39099579Y-47862990D01*
X38926129Y-47522576D01*
X38922832Y-47516866D01*
X38714748Y-47196444D01*
X38710878Y-47191118D01*
X38517523Y-46952344D01*
X38505268Y-46943879D01*
X38494177Y-46950213D01*
X36081023Y-49363367D01*
X36073409Y-49377311D01*
X35348659Y-49377311D01*
X38134101Y-46591869D01*
X38141242Y-46578793D01*
X38133785Y-46568426D01*
X37894066Y-46374305D01*
X37888729Y-46370428D01*
X37568316Y-46162349D01*
X37562607Y-46159052D01*
X37222190Y-45985601D01*
X37216165Y-45982919D01*
X36859499Y-45846008D01*
X36853217Y-45843967D01*
X36484185Y-45745085D01*
X36477735Y-45743714D01*
X36100372Y-45683945D01*
X36093834Y-45683259D01*
X35712302Y-45663263D01*
X35705700Y-45663263D01*
X35324168Y-45683259D01*
X35317630Y-45683945D01*
X34940267Y-45743714D01*
X34933817Y-45745085D01*
X34777114Y-45787073D01*
X34706138Y-45785383D01*
X34647342Y-45745589D01*
X34619394Y-45680325D01*
X34631167Y-45610311D01*
X34650430Y-45581543D01*
X40557181Y-38952521D01*
X46787748Y-31960088D01*
X46801760Y-31946617D01*
X46820290Y-31931371D01*
X46825341Y-31923954D01*
X46825343Y-31923951D01*
X46831527Y-31914868D01*
X46845628Y-31897650D01*
X47045119Y-31693834D01*
X47053756Y-31685799D01*
X47294256Y-31482213D01*
X47303608Y-31475021D01*
X47562078Y-31294833D01*
X47572060Y-31288547D01*
X47846234Y-31133329D01*
X47846265Y-31133311D01*
X47856782Y-31127992D01*
X48144308Y-30999079D01*
X48155278Y-30994766D01*
X48320121Y-30938704D01*
X48453583Y-30893315D01*
X48464917Y-30890043D01*
X48771426Y-30816931D01*
X48783016Y-30814735D01*
X49094985Y-30770613D01*
X49106731Y-30769509D01*
X49384141Y-30756507D01*
X49409420Y-30757868D01*
X49412231Y-30758306D01*
X49412233Y-30758306D01*
X49421103Y-30759687D01*
X49430004Y-30758523D01*
X49430008Y-30758523D01*
X49452662Y-30755560D01*
X49469000Y-30754496D01*
X65791258Y-30754496D01*
X65810644Y-30755996D01*
G37*
%TD.AperFunction*%
%TA.AperFunction,Conductor*%
G36*
X52091012Y-42886478D02*
G01*
X52111712Y-42909430D01*
X52156251Y-42973038D01*
X52311962Y-43128749D01*
X52316471Y-43131906D01*
X52316473Y-43131908D01*
X52351237Y-43156250D01*
X52492346Y-43255056D01*
X52691924Y-43348120D01*
X52904629Y-43405115D01*
X52937026Y-43407949D01*
X53003144Y-43433812D01*
X53015140Y-43444375D01*
X57374595Y-47803829D01*
X57408621Y-47866141D01*
X57411500Y-47892924D01*
X57411500Y-53024157D01*
X57410763Y-53037764D01*
X57407434Y-53068413D01*
X57406676Y-53075388D01*
X57407213Y-53081523D01*
X57411050Y-53125388D01*
X57411379Y-53130214D01*
X57411500Y-53132686D01*
X57411500Y-53135769D01*
X57411801Y-53138837D01*
X57415690Y-53178506D01*
X57415812Y-53179819D01*
X57423913Y-53272413D01*
X57425400Y-53277532D01*
X57425920Y-53282833D01*
X57452791Y-53371834D01*
X57453126Y-53372967D01*
X57479091Y-53462336D01*
X57481544Y-53467068D01*
X57483084Y-53472169D01*
X57485978Y-53477612D01*
X57526731Y-53554260D01*
X57527343Y-53555426D01*
X57570108Y-53637926D01*
X57573431Y-53642089D01*
X57575934Y-53646796D01*
X57634755Y-53718918D01*
X57635446Y-53719774D01*
X57666738Y-53758973D01*
X57669242Y-53761477D01*
X57669884Y-53762195D01*
X57673585Y-53766528D01*
X57700935Y-53800062D01*
X57705682Y-53803989D01*
X57705684Y-53803991D01*
X57736262Y-53829287D01*
X57745042Y-53837277D01*
X59592428Y-55684662D01*
X59626453Y-55746974D01*
X59621389Y-55817789D01*
X59578842Y-55874625D01*
X59514753Y-55899238D01*
X59500112Y-55900570D01*
X59494206Y-55902308D01*
X59494202Y-55902309D01*
X59425932Y-55922402D01*
X59310381Y-55956410D01*
X59304923Y-55959263D01*
X59304919Y-55959265D01*
X59237694Y-55994410D01*
X59135110Y-56048040D01*
X58980975Y-56171968D01*
X58853846Y-56323474D01*
X58850879Y-56328872D01*
X58850875Y-56328877D01*
X58787064Y-56444950D01*
X58758567Y-56496787D01*
X58756706Y-56502654D01*
X58756705Y-56502656D01*
X58702332Y-56674061D01*
X58698765Y-56685306D01*
X58681500Y-56839227D01*
X58681500Y-58469769D01*
X58695920Y-58616833D01*
X58697702Y-58622734D01*
X58697702Y-58622736D01*
X58707893Y-58656489D01*
X58713271Y-58692907D01*
X58713271Y-59932000D01*
X58718500Y-60005111D01*
X58726483Y-60032297D01*
X58756703Y-60135217D01*
X58759696Y-60145411D01*
X58777671Y-60173381D01*
X58833878Y-60260841D01*
X58833880Y-60260844D01*
X58838750Y-60268421D01*
X58845561Y-60274323D01*
X58845563Y-60274325D01*
X58942558Y-60358372D01*
X58980942Y-60418098D01*
X58980942Y-60489094D01*
X58942558Y-60548820D01*
X58928166Y-60559594D01*
X58898162Y-60578876D01*
X58898159Y-60578879D01*
X58890579Y-60583750D01*
X58884678Y-60590560D01*
X58800726Y-60687445D01*
X58800724Y-60687448D01*
X58794824Y-60694257D01*
X58734081Y-60827266D01*
X58713271Y-60972000D01*
X58713271Y-61017301D01*
X58693269Y-61085422D01*
X58683792Y-61098292D01*
X58644809Y-61144750D01*
X58644805Y-61144756D01*
X58640846Y-61149474D01*
X58545567Y-61322787D01*
X58543706Y-61328654D01*
X58543705Y-61328656D01*
X58500923Y-61463523D01*
X58485765Y-61511306D01*
X58468500Y-61665227D01*
X58468500Y-63889500D01*
X58448498Y-63957621D01*
X58394842Y-64004114D01*
X58342500Y-64015500D01*
X58251000Y-64015500D01*
X58182879Y-63995498D01*
X58136386Y-63941842D01*
X58125000Y-63889500D01*
X58125000Y-63518115D01*
X58120525Y-63502876D01*
X58119135Y-63501671D01*
X58111452Y-63500000D01*
X56514000Y-63500000D01*
X56445879Y-63479998D01*
X56399386Y-63426342D01*
X56388000Y-63374000D01*
X56388000Y-63118000D01*
X56408002Y-63049879D01*
X56461658Y-63003386D01*
X56514000Y-62992000D01*
X58106884Y-62992000D01*
X58122123Y-62987525D01*
X58123328Y-62986135D01*
X58124999Y-62978452D01*
X58124999Y-62598905D01*
X58124662Y-62592386D01*
X58114743Y-62496794D01*
X58111851Y-62483400D01*
X58060412Y-62329216D01*
X58054239Y-62316038D01*
X57968937Y-62178193D01*
X57959901Y-62166792D01*
X57845171Y-62052261D01*
X57833757Y-62043247D01*
X57694287Y-61957277D01*
X57646793Y-61904505D01*
X57635369Y-61834434D01*
X57663643Y-61769310D01*
X57673430Y-61758847D01*
X57677498Y-61754967D01*
X57788135Y-61649424D01*
X57925754Y-61464458D01*
X57932464Y-61451262D01*
X57994799Y-61328656D01*
X58030240Y-61258949D01*
X58042661Y-61218949D01*
X58097024Y-61043871D01*
X58098607Y-61038773D01*
X58103233Y-61003871D01*
X58128198Y-60815511D01*
X58128198Y-60815506D01*
X58128898Y-60810226D01*
X58128365Y-60796015D01*
X58120449Y-60585173D01*
X58120249Y-60579842D01*
X58072907Y-60354209D01*
X58041359Y-60274325D01*
X57990185Y-60144744D01*
X57990184Y-60144742D01*
X57988224Y-60139779D01*
X57963952Y-60099779D01*
X57871390Y-59947243D01*
X57868623Y-59942683D01*
X57781755Y-59842576D01*
X57721023Y-59772588D01*
X57721021Y-59772586D01*
X57717523Y-59768555D01*
X57629912Y-59696718D01*
X57543373Y-59625760D01*
X57543367Y-59625756D01*
X57539245Y-59622376D01*
X57507750Y-59604448D01*
X57458445Y-59553368D01*
X57444583Y-59483738D01*
X57470566Y-59417667D01*
X57499716Y-59390427D01*
X57561939Y-59348536D01*
X57621319Y-59308559D01*
X57648126Y-59282987D01*
X57715481Y-59218733D01*
X57788135Y-59149424D01*
X57925754Y-58964458D01*
X58030240Y-58758949D01*
X58042661Y-58718949D01*
X58097024Y-58543871D01*
X58098607Y-58538773D01*
X58103312Y-58503275D01*
X58128198Y-58315511D01*
X58128198Y-58315506D01*
X58128898Y-58310226D01*
X58126431Y-58244498D01*
X58122877Y-58149856D01*
X58120249Y-58079842D01*
X58116691Y-58062882D01*
X58074002Y-57859428D01*
X58072907Y-57854209D01*
X58070948Y-57849248D01*
X57990185Y-57644744D01*
X57990184Y-57644742D01*
X57988224Y-57639779D01*
X57971124Y-57611598D01*
X57871390Y-57447243D01*
X57868623Y-57442683D01*
X57781755Y-57342576D01*
X57721023Y-57272588D01*
X57721021Y-57272586D01*
X57717523Y-57268555D01*
X57651192Y-57214167D01*
X57543373Y-57125760D01*
X57543367Y-57125756D01*
X57539245Y-57122376D01*
X57534609Y-57119737D01*
X57534606Y-57119735D01*
X57343529Y-57010968D01*
X57338886Y-57008325D01*
X57122175Y-56929663D01*
X57116926Y-56928714D01*
X57116923Y-56928713D01*
X56899392Y-56889377D01*
X56899385Y-56889376D01*
X56895308Y-56888639D01*
X56877586Y-56887803D01*
X56872644Y-56887570D01*
X56872637Y-56887570D01*
X56871156Y-56887500D01*
X56459110Y-56887500D01*
X56401303Y-56892405D01*
X56292591Y-56901629D01*
X56292587Y-56901630D01*
X56287280Y-56902080D01*
X56282125Y-56903418D01*
X56282119Y-56903419D01*
X56069297Y-56958657D01*
X56069293Y-56958658D01*
X56064128Y-56959999D01*
X56059262Y-56962191D01*
X56059259Y-56962192D01*
X55956410Y-57008522D01*
X55853925Y-57054688D01*
X55662681Y-57183441D01*
X55658824Y-57187120D01*
X55658822Y-57187122D01*
X55611180Y-57232571D01*
X55495865Y-57342576D01*
X55492682Y-57346854D01*
X55484235Y-57358207D01*
X55358246Y-57527542D01*
X55355830Y-57532293D01*
X55355828Y-57532297D01*
X55333743Y-57575735D01*
X55253760Y-57733051D01*
X55252178Y-57738145D01*
X55252177Y-57738148D01*
X55214097Y-57860786D01*
X55185393Y-57953227D01*
X55184692Y-57958516D01*
X55157204Y-58165918D01*
X55155102Y-58181774D01*
X55155302Y-58187103D01*
X55155302Y-58187105D01*
X55158423Y-58270226D01*
X55163751Y-58412158D01*
X55211093Y-58637791D01*
X55213051Y-58642750D01*
X55213052Y-58642752D01*
X55264170Y-58772189D01*
X55295776Y-58852221D01*
X55298543Y-58856780D01*
X55298544Y-58856783D01*
X55342209Y-58928740D01*
X55415377Y-59049317D01*
X55418874Y-59053347D01*
X55516460Y-59165805D01*
X55566477Y-59223445D01*
X55570608Y-59226832D01*
X55740627Y-59366240D01*
X55740633Y-59366244D01*
X55744755Y-59369624D01*
X55776250Y-59387552D01*
X55825555Y-59438632D01*
X55839417Y-59508262D01*
X55813434Y-59574333D01*
X55784284Y-59601573D01*
X55662681Y-59683441D01*
X55495865Y-59842576D01*
X55358246Y-60027542D01*
X55355830Y-60032293D01*
X55355828Y-60032297D01*
X55306003Y-60130296D01*
X55253760Y-60233051D01*
X55252178Y-60238145D01*
X55252177Y-60238148D01*
X55213044Y-60364176D01*
X55185393Y-60453227D01*
X55184692Y-60458516D01*
X55169304Y-60574623D01*
X55155102Y-60681774D01*
X55155302Y-60687103D01*
X55155302Y-60687105D01*
X55158423Y-60770226D01*
X55163751Y-60912158D01*
X55211093Y-61137791D01*
X55213051Y-61142750D01*
X55213052Y-61142752D01*
X55286470Y-61328656D01*
X55295776Y-61352221D01*
X55298543Y-61356780D01*
X55298544Y-61356783D01*
X55342209Y-61428740D01*
X55415377Y-61549317D01*
X55418874Y-61553347D01*
X55557419Y-61713006D01*
X55566477Y-61723445D01*
X55570608Y-61726832D01*
X55602529Y-61753006D01*
X55642524Y-61811666D01*
X55644455Y-61882636D01*
X55607710Y-61943384D01*
X55588941Y-61957584D01*
X55449193Y-62044063D01*
X55437792Y-62053099D01*
X55323261Y-62167829D01*
X55314249Y-62179240D01*
X55229184Y-62317243D01*
X55223037Y-62330424D01*
X55171862Y-62484710D01*
X55168995Y-62498086D01*
X55159889Y-62586963D01*
X55133048Y-62652690D01*
X55074933Y-62693472D01*
X55003996Y-62696361D01*
X54945450Y-62663216D01*
X54607634Y-62325400D01*
X54573608Y-62263088D01*
X54570729Y-62236305D01*
X54570729Y-60972000D01*
X54565821Y-60903377D01*
X54565500Y-60894388D01*
X54565500Y-59977377D01*
X54566783Y-59959445D01*
X54570087Y-59936463D01*
X54570729Y-59932000D01*
X54570729Y-58432000D01*
X54565500Y-58358889D01*
X54535961Y-58258288D01*
X54526843Y-58227235D01*
X54526842Y-58227233D01*
X54524304Y-58218589D01*
X54488801Y-58163346D01*
X54450122Y-58103159D01*
X54450120Y-58103156D01*
X54445250Y-58095579D01*
X54367126Y-58027884D01*
X54341555Y-58005726D01*
X54341552Y-58005724D01*
X54334743Y-57999824D01*
X54286938Y-57977992D01*
X54244291Y-57958516D01*
X54201734Y-57939081D01*
X54057000Y-57918271D01*
X53458500Y-57918271D01*
X53390379Y-57898269D01*
X53343886Y-57844613D01*
X53332500Y-57792271D01*
X53332500Y-51693387D01*
X53352502Y-51625266D01*
X53398730Y-51584816D01*
X53397946Y-51583550D01*
X53449795Y-51551465D01*
X53548348Y-51490478D01*
X53673305Y-51365303D01*
X53718945Y-51291262D01*
X53762275Y-51220968D01*
X53762276Y-51220966D01*
X53766115Y-51214738D01*
X53821797Y-51046861D01*
X53832500Y-50942400D01*
X53832500Y-49641600D01*
X53832163Y-49638350D01*
X53822238Y-49542692D01*
X53822237Y-49542688D01*
X53821526Y-49535834D01*
X53765550Y-49368054D01*
X53672478Y-49217652D01*
X53547303Y-49092695D01*
X53401660Y-49002919D01*
X53354168Y-48950148D01*
X53342744Y-48880076D01*
X53371018Y-48814952D01*
X53380805Y-48804490D01*
X53491278Y-48699103D01*
X53495135Y-48695424D01*
X53632754Y-48510458D01*
X53737240Y-48304949D01*
X53777298Y-48175944D01*
X53804024Y-48089871D01*
X53805607Y-48084773D01*
X53818323Y-47988829D01*
X53835198Y-47861511D01*
X53835198Y-47861506D01*
X53835898Y-47856226D01*
X53835317Y-47840734D01*
X53827449Y-47631173D01*
X53827249Y-47625842D01*
X53779907Y-47400209D01*
X53777948Y-47395248D01*
X53697185Y-47190744D01*
X53697184Y-47190742D01*
X53695224Y-47185779D01*
X53665038Y-47136033D01*
X53578390Y-46993243D01*
X53575623Y-46988683D01*
X53542241Y-46950213D01*
X53428023Y-46818588D01*
X53428021Y-46818586D01*
X53424523Y-46814555D01*
X53341901Y-46746809D01*
X53250373Y-46671760D01*
X53250367Y-46671756D01*
X53246245Y-46668376D01*
X53241609Y-46665737D01*
X53241606Y-46665735D01*
X53050529Y-46556968D01*
X53045886Y-46554325D01*
X52829175Y-46475663D01*
X52823926Y-46474714D01*
X52823923Y-46474713D01*
X52606392Y-46435377D01*
X52606385Y-46435376D01*
X52602308Y-46434639D01*
X52584586Y-46433803D01*
X52579644Y-46433570D01*
X52579637Y-46433570D01*
X52578156Y-46433500D01*
X52116110Y-46433500D01*
X52049191Y-46439178D01*
X51949591Y-46447629D01*
X51949587Y-46447630D01*
X51944280Y-46448080D01*
X51939125Y-46449418D01*
X51939119Y-46449419D01*
X51726297Y-46504657D01*
X51726293Y-46504658D01*
X51721128Y-46505999D01*
X51716262Y-46508191D01*
X51716259Y-46508192D01*
X51582544Y-46568426D01*
X51510925Y-46600688D01*
X51319681Y-46729441D01*
X51315824Y-46733120D01*
X51315822Y-46733122D01*
X51247472Y-46798325D01*
X51184375Y-46830872D01*
X51113698Y-46824141D01*
X51057881Y-46780267D01*
X51034500Y-46707155D01*
X51034500Y-46586585D01*
X51054502Y-46518464D01*
X51071405Y-46497490D01*
X51328622Y-46240273D01*
X51333816Y-46235365D01*
X51389014Y-46186099D01*
X51389016Y-46186097D01*
X51392506Y-46182982D01*
X51465568Y-46095134D01*
X51466966Y-46093483D01*
X51513813Y-46039115D01*
X51541546Y-46006929D01*
X51545366Y-46000874D01*
X51555051Y-45987545D01*
X51556648Y-45985625D01*
X51556654Y-45985617D01*
X51559637Y-45982030D01*
X51618929Y-45884321D01*
X51620086Y-45882452D01*
X51650905Y-45833606D01*
X51681017Y-45785881D01*
X51683901Y-45779327D01*
X51691510Y-45764710D01*
X51695229Y-45758581D01*
X51739397Y-45653252D01*
X51740265Y-45651231D01*
X51784400Y-45550926D01*
X51786284Y-45546645D01*
X51787513Y-45542138D01*
X51787516Y-45542129D01*
X51788170Y-45539729D01*
X51793533Y-45524152D01*
X51796303Y-45517545D01*
X51810053Y-45463407D01*
X51824422Y-45406827D01*
X51824982Y-45404701D01*
X51853802Y-45298990D01*
X51855032Y-45294479D01*
X51855873Y-45287373D01*
X51858879Y-45271153D01*
X51860641Y-45264217D01*
X51872085Y-45150572D01*
X51872324Y-45148387D01*
X51885204Y-45039558D01*
X51885753Y-45034920D01*
X51882559Y-44930394D01*
X51882500Y-44926546D01*
X51882500Y-42981702D01*
X51902502Y-42913581D01*
X51956158Y-42867088D01*
X52026432Y-42856984D01*
X52091012Y-42886478D01*
G37*
%TD.AperFunction*%
%TA.AperFunction,Conductor*%
G36*
X62399241Y-59791955D02*
G01*
X62405824Y-59798084D01*
X62789700Y-60181960D01*
X62823726Y-60244272D01*
X62820937Y-60308419D01*
X62788393Y-60413227D01*
X62787692Y-60418516D01*
X62763365Y-60602068D01*
X62758102Y-60641774D01*
X62758302Y-60647103D01*
X62758302Y-60647105D01*
X62760072Y-60694257D01*
X62766751Y-60872158D01*
X62814093Y-61097791D01*
X62816051Y-61102750D01*
X62816052Y-61102752D01*
X62879616Y-61263704D01*
X62898776Y-61312221D01*
X62901543Y-61316780D01*
X62901544Y-61316783D01*
X62925817Y-61356783D01*
X63018377Y-61509317D01*
X63021874Y-61513347D01*
X63164905Y-61678176D01*
X63169477Y-61683445D01*
X63173608Y-61686832D01*
X63205529Y-61713006D01*
X63245524Y-61771666D01*
X63247455Y-61842636D01*
X63210710Y-61903384D01*
X63191941Y-61917584D01*
X63052193Y-62004063D01*
X63040792Y-62013099D01*
X62926261Y-62127829D01*
X62917249Y-62139240D01*
X62832184Y-62277243D01*
X62826037Y-62290424D01*
X62774862Y-62444710D01*
X62771995Y-62458086D01*
X62762328Y-62552438D01*
X62762000Y-62558855D01*
X62762000Y-62933885D01*
X62766475Y-62949124D01*
X62767865Y-62950329D01*
X62775548Y-62952000D01*
X64373000Y-62952000D01*
X64441121Y-62972002D01*
X64487614Y-63025658D01*
X64499000Y-63078000D01*
X64499000Y-63334000D01*
X64478998Y-63402121D01*
X64425342Y-63448614D01*
X64373000Y-63460000D01*
X62780116Y-63460000D01*
X62764877Y-63464475D01*
X62763672Y-63465865D01*
X62762001Y-63473548D01*
X62762001Y-63853095D01*
X62762338Y-63859614D01*
X62764090Y-63876497D01*
X62751225Y-63946319D01*
X62702653Y-63998100D01*
X62638763Y-64015500D01*
X60611500Y-64015500D01*
X60543379Y-63995498D01*
X60496886Y-63941842D01*
X60485500Y-63889500D01*
X60485500Y-63103607D01*
X60505502Y-63035486D01*
X60559158Y-62988993D01*
X60629429Y-62978889D01*
X60677000Y-62985729D01*
X61677000Y-62985729D01*
X61708986Y-62983441D01*
X61743373Y-62980982D01*
X61743374Y-62980982D01*
X61750111Y-62980500D01*
X61847173Y-62952000D01*
X61881765Y-62941843D01*
X61881767Y-62941842D01*
X61890411Y-62939304D01*
X61962046Y-62893267D01*
X62005841Y-62865122D01*
X62005844Y-62865120D01*
X62013421Y-62860250D01*
X62042208Y-62827028D01*
X62103274Y-62756555D01*
X62103276Y-62756552D01*
X62109176Y-62749743D01*
X62169919Y-62616734D01*
X62190729Y-62472000D01*
X62190729Y-60972000D01*
X62185821Y-60903377D01*
X62185500Y-60894388D01*
X62185500Y-59977377D01*
X62186783Y-59959445D01*
X62190087Y-59936463D01*
X62190729Y-59932000D01*
X62190729Y-59887179D01*
X62210731Y-59819058D01*
X62264387Y-59772565D01*
X62334661Y-59762461D01*
X62399241Y-59791955D01*
G37*
%TD.AperFunction*%
%TA.AperFunction,Conductor*%
G36*
X45862343Y-41668502D02*
G01*
X45908836Y-41722158D01*
X45918940Y-41792432D01*
X45915929Y-41807111D01*
X45881308Y-41936316D01*
X45881307Y-41936323D01*
X45879885Y-41941629D01*
X45860693Y-42161000D01*
X45879885Y-42380371D01*
X45936880Y-42593076D01*
X45980415Y-42686438D01*
X46027618Y-42787666D01*
X46027621Y-42787671D01*
X46029944Y-42792653D01*
X46033100Y-42797160D01*
X46033101Y-42797162D01*
X46126199Y-42930119D01*
X46156251Y-42973038D01*
X46311962Y-43128749D01*
X46316471Y-43131906D01*
X46316473Y-43131908D01*
X46351237Y-43156250D01*
X46492346Y-43255056D01*
X46691924Y-43348120D01*
X46904629Y-43405115D01*
X47124000Y-43424307D01*
X47343371Y-43405115D01*
X47556076Y-43348120D01*
X47755654Y-43255056D01*
X47896763Y-43156250D01*
X47931527Y-43131908D01*
X47931529Y-43131906D01*
X47936038Y-43128749D01*
X48091749Y-42973038D01*
X48136287Y-42909431D01*
X48191744Y-42865103D01*
X48262363Y-42857794D01*
X48325724Y-42889824D01*
X48361709Y-42951026D01*
X48365500Y-42981702D01*
X48365500Y-44177415D01*
X48345498Y-44245536D01*
X48328595Y-44266510D01*
X48071378Y-44523727D01*
X48066184Y-44528635D01*
X48007494Y-44581018D01*
X48004501Y-44584617D01*
X47934455Y-44668838D01*
X47933057Y-44670490D01*
X47858454Y-44757071D01*
X47855959Y-44761026D01*
X47854635Y-44763124D01*
X47844949Y-44776455D01*
X47843352Y-44778375D01*
X47843346Y-44778383D01*
X47840363Y-44781970D01*
X47837942Y-44785960D01*
X47781071Y-44879679D01*
X47779914Y-44881548D01*
X47757023Y-44917829D01*
X47718983Y-44978119D01*
X47717101Y-44982396D01*
X47717100Y-44982398D01*
X47716099Y-44984673D01*
X47708490Y-44999290D01*
X47704771Y-45005419D01*
X47702962Y-45009733D01*
X47660603Y-45110748D01*
X47659735Y-45112769D01*
X47613716Y-45217355D01*
X47612487Y-45221862D01*
X47612484Y-45221871D01*
X47611830Y-45224271D01*
X47606467Y-45239848D01*
X47603697Y-45246455D01*
X47602547Y-45250983D01*
X47602546Y-45250986D01*
X47575578Y-45357173D01*
X47575020Y-45359291D01*
X47544968Y-45469521D01*
X47544419Y-45474161D01*
X47544418Y-45474166D01*
X47544127Y-45476627D01*
X47541122Y-45492843D01*
X47539359Y-45499783D01*
X47537500Y-45518243D01*
X47527915Y-45613428D01*
X47527676Y-45615613D01*
X47519670Y-45683259D01*
X47514247Y-45729080D01*
X47516150Y-45791354D01*
X47517441Y-45833606D01*
X47517500Y-45837454D01*
X47517500Y-55406057D01*
X47497498Y-55474178D01*
X47443842Y-55520671D01*
X47373568Y-55530775D01*
X47310788Y-55499964D01*
X47309590Y-55501443D01*
X47305230Y-55497912D01*
X47301201Y-55494008D01*
X47114738Y-55368710D01*
X46909033Y-55278412D01*
X46903582Y-55277103D01*
X46903578Y-55277102D01*
X46696046Y-55227278D01*
X46696045Y-55227278D01*
X46690589Y-55225968D01*
X46606525Y-55221121D01*
X46471917Y-55213360D01*
X46471914Y-55213360D01*
X46466310Y-55213037D01*
X46243285Y-55240025D01*
X46028565Y-55306082D01*
X46023585Y-55308652D01*
X46023581Y-55308654D01*
X45833919Y-55406546D01*
X45828936Y-55409118D01*
X45650708Y-55545877D01*
X45499515Y-55712036D01*
X45496537Y-55716783D01*
X45496535Y-55716786D01*
X45383115Y-55897595D01*
X45380136Y-55902344D01*
X45296344Y-56110783D01*
X45250787Y-56330767D01*
X45247500Y-56387775D01*
X45247500Y-57052999D01*
X45247749Y-57055786D01*
X45247749Y-57055792D01*
X45252368Y-57107546D01*
X45262383Y-57219762D01*
X45263864Y-57225176D01*
X45263865Y-57225181D01*
X45293280Y-57332703D01*
X45321663Y-57436451D01*
X45324075Y-57441509D01*
X45324077Y-57441513D01*
X45364228Y-57525691D01*
X45418378Y-57639218D01*
X45549471Y-57821654D01*
X45600326Y-57870936D01*
X45701833Y-57969303D01*
X45710799Y-57977992D01*
X45897262Y-58103290D01*
X46102967Y-58193588D01*
X46108418Y-58194897D01*
X46108422Y-58194898D01*
X46313938Y-58244238D01*
X46321411Y-58246032D01*
X46405475Y-58250879D01*
X46540083Y-58258640D01*
X46540086Y-58258640D01*
X46545690Y-58258963D01*
X46768715Y-58231975D01*
X46983435Y-58165918D01*
X46988415Y-58163348D01*
X46988419Y-58163346D01*
X47178081Y-58065454D01*
X47178082Y-58065454D01*
X47183064Y-58062882D01*
X47361292Y-57926123D01*
X47512485Y-57759964D01*
X47529368Y-57733051D01*
X47628885Y-57574405D01*
X47631864Y-57569656D01*
X47633957Y-57564449D01*
X47636502Y-57559454D01*
X47638690Y-57560569D01*
X47676205Y-57513035D01*
X47743336Y-57489930D01*
X47812303Y-57506786D01*
X47846689Y-57536077D01*
X47903790Y-57605966D01*
X47905166Y-57607680D01*
X47971011Y-57691203D01*
X47975862Y-57697357D01*
X47979264Y-57700557D01*
X48052052Y-57769029D01*
X48054814Y-57771709D01*
X48309472Y-58026367D01*
X48311225Y-58027877D01*
X48311232Y-58027884D01*
X48347889Y-58059469D01*
X48457071Y-58153546D01*
X48678119Y-58293017D01*
X48917355Y-58398284D01*
X49169521Y-58467032D01*
X49174153Y-58467580D01*
X49174157Y-58467581D01*
X49299300Y-58482392D01*
X49429080Y-58497753D01*
X49690329Y-58489770D01*
X49694934Y-58488937D01*
X49694937Y-58488937D01*
X49817983Y-58466687D01*
X49947528Y-58443262D01*
X50076402Y-58399515D01*
X50190598Y-58360751D01*
X50190604Y-58360748D01*
X50195027Y-58359247D01*
X50427390Y-58239572D01*
X50440235Y-58230325D01*
X50635719Y-58089598D01*
X50635723Y-58089595D01*
X50639512Y-58086867D01*
X50826732Y-57904485D01*
X50855830Y-57866219D01*
X50982112Y-57700150D01*
X50982115Y-57700146D01*
X50984938Y-57696433D01*
X51079032Y-57524922D01*
X51129334Y-57474820D01*
X51198738Y-57459866D01*
X51265209Y-57484809D01*
X51307643Y-57541729D01*
X51315500Y-57585527D01*
X51315500Y-57714532D01*
X51295498Y-57782653D01*
X51286872Y-57794498D01*
X51232422Y-57860786D01*
X51138963Y-58035088D01*
X51118111Y-58103290D01*
X51085178Y-58211010D01*
X51081138Y-58224223D01*
X51079056Y-58244722D01*
X51062048Y-58412158D01*
X51061151Y-58420987D01*
X51067653Y-58489770D01*
X51079085Y-58610699D01*
X51079764Y-58617887D01*
X51081524Y-58623791D01*
X51088020Y-58645582D01*
X51093271Y-58681578D01*
X51093271Y-59932000D01*
X51098500Y-60005111D01*
X51106483Y-60032297D01*
X51136703Y-60135217D01*
X51139696Y-60145411D01*
X51157671Y-60173381D01*
X51213878Y-60260841D01*
X51213880Y-60260844D01*
X51218750Y-60268421D01*
X51225561Y-60274323D01*
X51225563Y-60274325D01*
X51322558Y-60358372D01*
X51360942Y-60418098D01*
X51360942Y-60489094D01*
X51322558Y-60548820D01*
X51308166Y-60559594D01*
X51278162Y-60578876D01*
X51278159Y-60578879D01*
X51270579Y-60583750D01*
X51264678Y-60590560D01*
X51180726Y-60687445D01*
X51180724Y-60687448D01*
X51174824Y-60694257D01*
X51114081Y-60827266D01*
X51093271Y-60972000D01*
X51093271Y-62208072D01*
X51087373Y-62246170D01*
X51078765Y-62273306D01*
X51078079Y-62279423D01*
X51078078Y-62279427D01*
X51072922Y-62325400D01*
X51061500Y-62427227D01*
X51061500Y-62619500D01*
X51041498Y-62687621D01*
X50987842Y-62734114D01*
X50935500Y-62745500D01*
X49459683Y-62745500D01*
X49391562Y-62725498D01*
X49345069Y-62671842D01*
X49334965Y-62601568D01*
X49364459Y-62536988D01*
X49372156Y-62528863D01*
X49378249Y-62522979D01*
X49502252Y-62403231D01*
X49675188Y-62181882D01*
X49677384Y-62178078D01*
X49677389Y-62178071D01*
X49791206Y-61980933D01*
X49815636Y-61938619D01*
X49920862Y-61678176D01*
X49923212Y-61668751D01*
X49987753Y-61409893D01*
X49987754Y-61409888D01*
X49988817Y-61405624D01*
X49993241Y-61363537D01*
X50017719Y-61130636D01*
X50017719Y-61130633D01*
X50018178Y-61126267D01*
X50017357Y-61102752D01*
X50008529Y-60849939D01*
X50008528Y-60849933D01*
X50008375Y-60845542D01*
X50005153Y-60827266D01*
X49961525Y-60579842D01*
X49959598Y-60568913D01*
X49872797Y-60301765D01*
X49862538Y-60280730D01*
X49753830Y-60057848D01*
X49749660Y-60049298D01*
X49747205Y-60045659D01*
X49747202Y-60045653D01*
X49648049Y-59898653D01*
X49592585Y-59816424D01*
X49549484Y-59768555D01*
X49445759Y-59653357D01*
X49404629Y-59607678D01*
X49371332Y-59579738D01*
X49272768Y-59497033D01*
X49189450Y-59427121D01*
X48951236Y-59278269D01*
X48694625Y-59164018D01*
X48504232Y-59109424D01*
X48428837Y-59087805D01*
X48428836Y-59087805D01*
X48424610Y-59086593D01*
X48420260Y-59085982D01*
X48420257Y-59085981D01*
X48317310Y-59071513D01*
X48146448Y-59047500D01*
X47935854Y-59047500D01*
X47933668Y-59047653D01*
X47933664Y-59047653D01*
X47730173Y-59061882D01*
X47730168Y-59061883D01*
X47725788Y-59062189D01*
X47451030Y-59120591D01*
X47446901Y-59122094D01*
X47446897Y-59122095D01*
X47191219Y-59215154D01*
X47191215Y-59215156D01*
X47187074Y-59216663D01*
X46939058Y-59348536D01*
X46935499Y-59351122D01*
X46935497Y-59351123D01*
X46752968Y-59483738D01*
X46711808Y-59513642D01*
X46708644Y-59516698D01*
X46708641Y-59516700D01*
X46640632Y-59582376D01*
X46509748Y-59708769D01*
X46336812Y-59930118D01*
X46334616Y-59933922D01*
X46334611Y-59933929D01*
X46263067Y-60057848D01*
X46196364Y-60173381D01*
X46091138Y-60433824D01*
X46090073Y-60438097D01*
X46090072Y-60438099D01*
X46024889Y-60699535D01*
X46023183Y-60706376D01*
X46022724Y-60710744D01*
X46022723Y-60710749D01*
X46002949Y-60898889D01*
X45993822Y-60985733D01*
X45993975Y-60990121D01*
X45993975Y-60990127D01*
X46003363Y-61258949D01*
X46003625Y-61266458D01*
X46004387Y-61270781D01*
X46004388Y-61270788D01*
X46028164Y-61405624D01*
X46052402Y-61543087D01*
X46139203Y-61810235D01*
X46141131Y-61814188D01*
X46141133Y-61814193D01*
X46184260Y-61902616D01*
X46262340Y-62062702D01*
X46264795Y-62066341D01*
X46264798Y-62066347D01*
X46317641Y-62144690D01*
X46419415Y-62295576D01*
X46607371Y-62504322D01*
X46610733Y-62507143D01*
X46610736Y-62507146D01*
X46629605Y-62522979D01*
X46668931Y-62582089D01*
X46670057Y-62653077D01*
X46632625Y-62713404D01*
X46568520Y-62743917D01*
X46548613Y-62745500D01*
X45935925Y-62745500D01*
X45867804Y-62725498D01*
X45846830Y-62708595D01*
X44225405Y-61087171D01*
X44191380Y-61024859D01*
X44188500Y-60998076D01*
X44188500Y-51693387D01*
X44208502Y-51625266D01*
X44254730Y-51584816D01*
X44253946Y-51583550D01*
X44305795Y-51551465D01*
X44404348Y-51490478D01*
X44529305Y-51365303D01*
X44574945Y-51291262D01*
X44618275Y-51220968D01*
X44618276Y-51220966D01*
X44622115Y-51214738D01*
X44677797Y-51046861D01*
X44688500Y-50942400D01*
X44688500Y-49641600D01*
X44688163Y-49638350D01*
X44678238Y-49542692D01*
X44678237Y-49542688D01*
X44677526Y-49535834D01*
X44621550Y-49368054D01*
X44528478Y-49217652D01*
X44403303Y-49092695D01*
X44257660Y-49002919D01*
X44210168Y-48950148D01*
X44198744Y-48880076D01*
X44227018Y-48814952D01*
X44236805Y-48804490D01*
X44347278Y-48699103D01*
X44351135Y-48695424D01*
X44488754Y-48510458D01*
X44593240Y-48304949D01*
X44633298Y-48175944D01*
X44660024Y-48089871D01*
X44661607Y-48084773D01*
X44674323Y-47988829D01*
X44691198Y-47861511D01*
X44691198Y-47861506D01*
X44691898Y-47856226D01*
X44691317Y-47840734D01*
X44683449Y-47631173D01*
X44683249Y-47625842D01*
X44635907Y-47400209D01*
X44633948Y-47395248D01*
X44553185Y-47190744D01*
X44553184Y-47190742D01*
X44551224Y-47185779D01*
X44521038Y-47136033D01*
X44434390Y-46993243D01*
X44431623Y-46988683D01*
X44398241Y-46950213D01*
X44284023Y-46818588D01*
X44284021Y-46818586D01*
X44280523Y-46814555D01*
X44276397Y-46811172D01*
X44276393Y-46811168D01*
X44234609Y-46776908D01*
X44194615Y-46718249D01*
X44188500Y-46679474D01*
X44188500Y-43141925D01*
X44208502Y-43073804D01*
X44225405Y-43052830D01*
X45592829Y-41685405D01*
X45655141Y-41651380D01*
X45681924Y-41648500D01*
X45794222Y-41648500D01*
X45862343Y-41668502D01*
G37*
%TD.AperFunction*%
%TA.AperFunction,Conductor*%
G36*
X69033364Y-43150521D02*
G01*
X69081948Y-43202291D01*
X69095500Y-43259137D01*
X69095500Y-44996076D01*
X69075498Y-45064197D01*
X69058595Y-45085171D01*
X67910621Y-46233145D01*
X67900478Y-46242247D01*
X67870975Y-46265968D01*
X67867008Y-46270696D01*
X67838709Y-46304421D01*
X67835528Y-46308069D01*
X67833885Y-46309881D01*
X67831691Y-46312075D01*
X67804358Y-46345349D01*
X67803696Y-46346147D01*
X67743846Y-46417474D01*
X67741278Y-46422144D01*
X67737897Y-46426261D01*
X67716163Y-46466795D01*
X67694023Y-46508086D01*
X67693394Y-46509245D01*
X67651538Y-46585381D01*
X67651535Y-46585389D01*
X67648567Y-46590787D01*
X67646955Y-46595869D01*
X67644438Y-46600563D01*
X67617238Y-46689531D01*
X67616918Y-46690559D01*
X67588765Y-46779306D01*
X67588171Y-46784602D01*
X67586613Y-46789698D01*
X67578218Y-46872346D01*
X67577218Y-46882187D01*
X67577089Y-46883393D01*
X67571500Y-46933227D01*
X67571500Y-46936754D01*
X67571445Y-46937739D01*
X67570998Y-46943419D01*
X67566626Y-46986462D01*
X67567206Y-46992593D01*
X67570941Y-47032109D01*
X67571500Y-47043967D01*
X67571500Y-51246157D01*
X67570763Y-51259764D01*
X67566676Y-51297388D01*
X67567213Y-51303523D01*
X67571050Y-51347388D01*
X67571379Y-51352214D01*
X67571500Y-51354686D01*
X67571500Y-51357769D01*
X67571801Y-51360837D01*
X67575690Y-51400506D01*
X67575812Y-51401819D01*
X67583913Y-51494413D01*
X67585400Y-51499532D01*
X67585920Y-51504833D01*
X67612791Y-51593834D01*
X67613126Y-51594967D01*
X67622178Y-51626121D01*
X67639091Y-51684336D01*
X67641544Y-51689068D01*
X67643084Y-51694169D01*
X67645978Y-51699612D01*
X67686731Y-51776260D01*
X67687343Y-51777426D01*
X67703440Y-51808479D01*
X67730108Y-51859926D01*
X67733431Y-51864089D01*
X67735934Y-51868796D01*
X67794755Y-51940918D01*
X67795446Y-51941774D01*
X67826738Y-51980973D01*
X67829242Y-51983477D01*
X67829884Y-51984195D01*
X67833585Y-51988528D01*
X67860935Y-52022062D01*
X67896267Y-52051291D01*
X67905037Y-52059272D01*
X68097067Y-52251301D01*
X68259595Y-52413829D01*
X68293620Y-52476142D01*
X68296500Y-52502925D01*
X68296500Y-53946500D01*
X68276498Y-54014621D01*
X68222842Y-54061114D01*
X68170500Y-54072500D01*
X67431840Y-54072500D01*
X67418232Y-54071763D01*
X67386736Y-54068341D01*
X67386732Y-54068341D01*
X67380611Y-54067676D01*
X67362611Y-54069251D01*
X67330609Y-54072050D01*
X67325784Y-54072379D01*
X67323313Y-54072500D01*
X67320231Y-54072500D01*
X67297763Y-54074703D01*
X67277489Y-54076691D01*
X67276174Y-54076813D01*
X67243913Y-54079636D01*
X67183587Y-54084913D01*
X67178468Y-54086400D01*
X67173167Y-54086920D01*
X67084194Y-54113782D01*
X67083054Y-54114120D01*
X66993663Y-54140091D01*
X66988929Y-54142545D01*
X66983831Y-54144084D01*
X66978387Y-54146978D01*
X66978386Y-54146979D01*
X66901831Y-54187684D01*
X66900663Y-54188298D01*
X66818074Y-54231108D01*
X66813911Y-54234431D01*
X66809204Y-54236934D01*
X66804430Y-54240828D01*
X66804428Y-54240829D01*
X66737105Y-54295737D01*
X66736160Y-54296500D01*
X66697027Y-54327739D01*
X66694536Y-54330230D01*
X66693809Y-54330880D01*
X66689463Y-54334592D01*
X66670588Y-54349987D01*
X66655938Y-54361935D01*
X66652015Y-54366677D01*
X66652013Y-54366679D01*
X66626703Y-54397273D01*
X66618713Y-54406053D01*
X64214171Y-56810595D01*
X64151859Y-56844621D01*
X64125076Y-56847500D01*
X64062110Y-56847500D01*
X63995191Y-56853178D01*
X63895591Y-56861629D01*
X63895587Y-56861630D01*
X63890280Y-56862080D01*
X63885125Y-56863418D01*
X63885119Y-56863419D01*
X63672297Y-56918657D01*
X63672293Y-56918658D01*
X63667128Y-56919999D01*
X63662262Y-56922191D01*
X63662259Y-56922192D01*
X63574250Y-56961837D01*
X63503925Y-56971578D01*
X63439497Y-56941752D01*
X63401422Y-56881829D01*
X63396500Y-56846955D01*
X63396500Y-55950950D01*
X63416502Y-55882829D01*
X63433405Y-55861855D01*
X66031600Y-53263659D01*
X66040381Y-53255669D01*
X66040390Y-53255661D01*
X66047080Y-53251416D01*
X66095621Y-53199725D01*
X66098375Y-53196884D01*
X66118926Y-53176333D01*
X66121638Y-53172837D01*
X66129349Y-53163808D01*
X66155544Y-53135913D01*
X66160972Y-53130133D01*
X66171301Y-53111345D01*
X66182158Y-53094816D01*
X66190447Y-53084131D01*
X66190448Y-53084129D01*
X66195304Y-53077869D01*
X66213657Y-53035456D01*
X66218868Y-53024819D01*
X66241124Y-52984337D01*
X66246457Y-52963566D01*
X66252859Y-52944864D01*
X66261379Y-52925177D01*
X66268605Y-52879552D01*
X66271013Y-52867926D01*
X66280529Y-52830865D01*
X66280529Y-52830864D01*
X66282500Y-52823188D01*
X66282500Y-52801742D01*
X66284051Y-52782031D01*
X66286166Y-52768678D01*
X66287406Y-52760849D01*
X66283059Y-52714864D01*
X66282500Y-52703006D01*
X66282500Y-44985950D01*
X66302502Y-44917829D01*
X66319405Y-44896855D01*
X67779461Y-43436799D01*
X67841773Y-43402773D01*
X67893678Y-43404006D01*
X67893902Y-43402736D01*
X67899309Y-43403690D01*
X67904629Y-43405115D01*
X68124000Y-43424307D01*
X68343371Y-43405115D01*
X68556076Y-43348120D01*
X68755654Y-43255056D01*
X68776898Y-43240181D01*
X68897229Y-43155924D01*
X68964503Y-43133236D01*
X69033364Y-43150521D01*
G37*
%TD.AperFunction*%
%TD*%
M02*
