M48
; DRILL file {KiCad (6.0.7)} date Sun Jul 30 17:13:37 2023
; FORMAT={-:-/ absolute / inch / decimal}
; #@! TF.CreationDate,2023-07-30T17:13:37-07:00
; #@! TF.GenerationSoftware,Kicad,Pcbnew,(6.0.7)
; #@! TF.FileFunction,Plated,1,2,PTH
FMAT,2
INCH
; #@! TA.AperFunction,Plated,PTH,ViaDrill
T1C0.0157
; #@! TA.AperFunction,Plated,PTH,ComponentDrill
T2C0.0374
; #@! TA.AperFunction,Plated,PTH,ComponentDrill
T3C0.0394
; #@! TA.AperFunction,Plated,PTH,ComponentDrill
T4C0.0402
; #@! TA.AperFunction,Plated,PTH,ComponentDrill
T5C0.1260
%
G90
G05
T1
X1.81Y-2.33
X2.06Y-2.24
X2.13Y-2.26
X2.14Y-2.5
X2.15Y-1.92
X2.35Y-2.24
X2.65Y-2.24
X2.66Y-2.11
T2
X1.4664Y-2.2646
X1.4818Y-2.3619
X1.4972Y-2.4591
X1.5126Y-2.5563
X2.23Y-2.2931
X2.23Y-2.3916
X2.23Y-2.49
X2.5293Y-2.2916
X2.5293Y-2.39
X2.5293Y-2.4884
T3
X1.7Y-1.8816
X1.7Y-1.98
X2.06Y-1.8816
X2.06Y-1.98
X2.43Y-1.8816
X2.43Y-1.98
X2.79Y-1.8816
X2.79Y-1.98
T4
X1.8309Y-2.2337
X1.8553Y-1.5418
X1.8553Y-1.6599
X1.9491Y-2.2337
X1.9734Y-1.5418
X1.9734Y-1.6599
X2.0915Y-1.5418
X2.0915Y-1.6599
X2.2096Y-1.5418
X2.2096Y-1.6599
X2.3277Y-1.5418
X2.3277Y-1.6599
X2.4458Y-1.5418
X2.4458Y-1.6599
X2.5639Y-1.5418
X2.5639Y-1.6599
X2.682Y-1.5418
X2.682Y-1.6599
X2.8719Y-2.2337
X2.99Y-2.2337
T5
X1.4059Y-1.9439
X3.1322Y-1.9439
T0
M30
