%TF.GenerationSoftware,KiCad,Pcbnew,(6.0.7)*%
%TF.CreationDate,2023-07-30T17:13:32-07:00*%
%TF.ProjectId,xol-pcb,786f6c2d-7063-4622-9e6b-696361645f70,rev?*%
%TF.SameCoordinates,Original*%
%TF.FileFunction,Legend,Top*%
%TF.FilePolarity,Positive*%
%FSLAX46Y46*%
G04 Gerber Fmt 4.6, Leading zero omitted, Abs format (unit mm)*
G04 Created by KiCad (PCBNEW (6.0.7)) date 2023-07-30 17:13:32*
%MOMM*%
%LPD*%
G01*
G04 APERTURE LIST*
%ADD10C,0.100000*%
%ADD11C,0.250000*%
%ADD12C,0.150000*%
%ADD13C,0.120000*%
G04 APERTURE END LIST*
D10*
X60660000Y-64091714D02*
X60631428Y-64148857D01*
X60631428Y-64234571D01*
X60660000Y-64320285D01*
X60717142Y-64377428D01*
X60774285Y-64406000D01*
X60888571Y-64434571D01*
X60974285Y-64434571D01*
X61088571Y-64406000D01*
X61145714Y-64377428D01*
X61202857Y-64320285D01*
X61231428Y-64234571D01*
X61231428Y-64177428D01*
X61202857Y-64091714D01*
X61174285Y-64063142D01*
X60974285Y-64063142D01*
X60974285Y-64177428D01*
X61231428Y-63806000D02*
X60631428Y-63806000D01*
X61231428Y-63463142D01*
X60631428Y-63463142D01*
X61231428Y-63177428D02*
X60631428Y-63177428D01*
X60631428Y-63034571D01*
X60660000Y-62948857D01*
X60717142Y-62891714D01*
X60774285Y-62863142D01*
X60888571Y-62834571D01*
X60974285Y-62834571D01*
X61088571Y-62863142D01*
X61145714Y-62891714D01*
X61202857Y-62948857D01*
X61231428Y-63034571D01*
X61231428Y-63177428D01*
X61431428Y-61977428D02*
X60574285Y-61977428D01*
X61231428Y-60748857D02*
X60945714Y-60948857D01*
X61231428Y-61091714D02*
X60631428Y-61091714D01*
X60631428Y-60863142D01*
X60660000Y-60806000D01*
X60688571Y-60777428D01*
X60745714Y-60748857D01*
X60831428Y-60748857D01*
X60888571Y-60777428D01*
X60917142Y-60806000D01*
X60945714Y-60863142D01*
X60945714Y-61091714D01*
X60660000Y-60177428D02*
X60631428Y-60234571D01*
X60631428Y-60320285D01*
X60660000Y-60406000D01*
X60717142Y-60463142D01*
X60774285Y-60491714D01*
X60888571Y-60520285D01*
X60974285Y-60520285D01*
X61088571Y-60491714D01*
X61145714Y-60463142D01*
X61202857Y-60406000D01*
X61231428Y-60320285D01*
X61231428Y-60263142D01*
X61202857Y-60177428D01*
X61174285Y-60148857D01*
X60974285Y-60148857D01*
X60974285Y-60263142D01*
X60917142Y-59691714D02*
X60945714Y-59606000D01*
X60974285Y-59577428D01*
X61031428Y-59548857D01*
X61117142Y-59548857D01*
X61174285Y-59577428D01*
X61202857Y-59606000D01*
X61231428Y-59663142D01*
X61231428Y-59891714D01*
X60631428Y-59891714D01*
X60631428Y-59691714D01*
X60660000Y-59634571D01*
X60688571Y-59606000D01*
X60745714Y-59577428D01*
X60802857Y-59577428D01*
X60860000Y-59606000D01*
X60888571Y-59634571D01*
X60917142Y-59691714D01*
X60917142Y-59891714D01*
X61431428Y-58691714D02*
X60574285Y-58691714D01*
X60631428Y-57520285D02*
X60631428Y-57806000D01*
X60917142Y-57834571D01*
X60888571Y-57806000D01*
X60860000Y-57748857D01*
X60860000Y-57606000D01*
X60888571Y-57548857D01*
X60917142Y-57520285D01*
X60974285Y-57491714D01*
X61117142Y-57491714D01*
X61174285Y-57520285D01*
X61202857Y-57548857D01*
X61231428Y-57606000D01*
X61231428Y-57748857D01*
X61202857Y-57806000D01*
X61174285Y-57834571D01*
X60631428Y-57320285D02*
X61231428Y-57120285D01*
X60631428Y-56920285D01*
X72533142Y-54281428D02*
X72876000Y-54281428D01*
X72704571Y-54881428D02*
X72704571Y-54281428D01*
X73076000Y-54881428D02*
X73076000Y-54281428D01*
X73076000Y-54567142D02*
X73418857Y-54567142D01*
X73418857Y-54881428D02*
X73418857Y-54281428D01*
X74304571Y-55081428D02*
X74304571Y-54224285D01*
X75104571Y-54281428D02*
X75447428Y-54281428D01*
X75276000Y-54881428D02*
X75276000Y-54281428D01*
X75647428Y-54881428D02*
X75647428Y-54281428D01*
X75647428Y-54567142D02*
X75990285Y-54567142D01*
X75990285Y-54881428D02*
X75990285Y-54281428D01*
X76276000Y-54652857D02*
X76733142Y-54652857D01*
X75455428Y-51825142D02*
X74855428Y-51825142D01*
X74855428Y-51596571D01*
X74884000Y-51539428D01*
X74912571Y-51510857D01*
X74969714Y-51482285D01*
X75055428Y-51482285D01*
X75112571Y-51510857D01*
X75141142Y-51539428D01*
X75169714Y-51596571D01*
X75169714Y-51825142D01*
X75398285Y-50882285D02*
X75426857Y-50910857D01*
X75455428Y-50996571D01*
X75455428Y-51053714D01*
X75426857Y-51139428D01*
X75369714Y-51196571D01*
X75312571Y-51225142D01*
X75198285Y-51253714D01*
X75112571Y-51253714D01*
X74998285Y-51225142D01*
X74941142Y-51196571D01*
X74884000Y-51139428D01*
X74855428Y-51053714D01*
X74855428Y-50996571D01*
X74884000Y-50910857D01*
X74912571Y-50882285D01*
X75141142Y-50425142D02*
X75141142Y-50625142D01*
X75455428Y-50625142D02*
X74855428Y-50625142D01*
X74855428Y-50339428D01*
X75226857Y-50110857D02*
X75226857Y-49653714D01*
X75455428Y-49882285D02*
X74998285Y-49882285D01*
X75655428Y-48768000D02*
X74798285Y-48768000D01*
X75455428Y-47882285D02*
X74855428Y-47882285D01*
X74855428Y-47653714D01*
X74884000Y-47596571D01*
X74912571Y-47568000D01*
X74969714Y-47539428D01*
X75055428Y-47539428D01*
X75112571Y-47568000D01*
X75141142Y-47596571D01*
X75169714Y-47653714D01*
X75169714Y-47882285D01*
X75398285Y-46939428D02*
X75426857Y-46968000D01*
X75455428Y-47053714D01*
X75455428Y-47110857D01*
X75426857Y-47196571D01*
X75369714Y-47253714D01*
X75312571Y-47282285D01*
X75198285Y-47310857D01*
X75112571Y-47310857D01*
X74998285Y-47282285D01*
X74941142Y-47253714D01*
X74884000Y-47196571D01*
X74855428Y-47110857D01*
X74855428Y-47053714D01*
X74884000Y-46968000D01*
X74912571Y-46939428D01*
X75141142Y-46482285D02*
X75141142Y-46682285D01*
X75455428Y-46682285D02*
X74855428Y-46682285D01*
X74855428Y-46396571D01*
X75226857Y-46168000D02*
X75226857Y-45710857D01*
X65740000Y-51364857D02*
X65711428Y-51422000D01*
X65711428Y-51507714D01*
X65740000Y-51593428D01*
X65797142Y-51650571D01*
X65854285Y-51679142D01*
X65968571Y-51707714D01*
X66054285Y-51707714D01*
X66168571Y-51679142D01*
X66225714Y-51650571D01*
X66282857Y-51593428D01*
X66311428Y-51507714D01*
X66311428Y-51450571D01*
X66282857Y-51364857D01*
X66254285Y-51336285D01*
X66054285Y-51336285D01*
X66054285Y-51450571D01*
X66311428Y-51079142D02*
X65711428Y-51079142D01*
X66311428Y-50736285D01*
X65711428Y-50736285D01*
X66311428Y-50450571D02*
X65711428Y-50450571D01*
X65711428Y-50307714D01*
X65740000Y-50222000D01*
X65797142Y-50164857D01*
X65854285Y-50136285D01*
X65968571Y-50107714D01*
X66054285Y-50107714D01*
X66168571Y-50136285D01*
X66225714Y-50164857D01*
X66282857Y-50222000D01*
X66311428Y-50307714D01*
X66311428Y-50450571D01*
X66511428Y-49250571D02*
X65654285Y-49250571D01*
X66140000Y-48393428D02*
X66140000Y-48107714D01*
X66311428Y-48450571D02*
X65711428Y-48250571D01*
X66311428Y-48050571D01*
X65711428Y-47850571D02*
X66197142Y-47850571D01*
X66254285Y-47822000D01*
X66282857Y-47793428D01*
X66311428Y-47736285D01*
X66311428Y-47622000D01*
X66282857Y-47564857D01*
X66254285Y-47536285D01*
X66197142Y-47507714D01*
X65711428Y-47507714D01*
X65711428Y-47279142D02*
X66311428Y-46879142D01*
X65711428Y-46879142D02*
X66311428Y-47279142D01*
X66311428Y-46336285D02*
X66311428Y-46679142D01*
X66311428Y-46507714D02*
X65711428Y-46507714D01*
X65797142Y-46564857D01*
X65854285Y-46622000D01*
X65882857Y-46679142D01*
D11*
X70183904Y-69794380D02*
X70183904Y-68794380D01*
X70183904Y-69175333D02*
X70279142Y-69127714D01*
X70469619Y-69127714D01*
X70564857Y-69175333D01*
X70612476Y-69222952D01*
X70660095Y-69318190D01*
X70660095Y-69603904D01*
X70612476Y-69699142D01*
X70564857Y-69746761D01*
X70469619Y-69794380D01*
X70279142Y-69794380D01*
X70183904Y-69746761D01*
X70993428Y-69127714D02*
X71231523Y-69794380D01*
X71469619Y-69127714D02*
X71231523Y-69794380D01*
X71136285Y-70032476D01*
X71088666Y-70080095D01*
X70993428Y-70127714D01*
X72612476Y-69794380D02*
X72612476Y-69127714D01*
X72612476Y-69318190D02*
X72660095Y-69222952D01*
X72707714Y-69175333D01*
X72802952Y-69127714D01*
X72898190Y-69127714D01*
X73660095Y-69127714D02*
X73660095Y-69794380D01*
X73231523Y-69127714D02*
X73231523Y-69651523D01*
X73279142Y-69746761D01*
X73374380Y-69794380D01*
X73517238Y-69794380D01*
X73612476Y-69746761D01*
X73660095Y-69699142D01*
X74136285Y-69794380D02*
X74136285Y-69127714D01*
X74136285Y-68794380D02*
X74088666Y-68842000D01*
X74136285Y-68889619D01*
X74183904Y-68842000D01*
X74136285Y-68794380D01*
X74136285Y-68889619D01*
X75041047Y-69127714D02*
X75041047Y-70127714D01*
X75041047Y-69746761D02*
X74945809Y-69794380D01*
X74755333Y-69794380D01*
X74660095Y-69746761D01*
X74612476Y-69699142D01*
X74564857Y-69603904D01*
X74564857Y-69318190D01*
X74612476Y-69222952D01*
X74660095Y-69175333D01*
X74755333Y-69127714D01*
X74945809Y-69127714D01*
X75041047Y-69175333D01*
X75517238Y-69794380D02*
X75517238Y-69127714D01*
X75517238Y-68794380D02*
X75469619Y-68842000D01*
X75517238Y-68889619D01*
X75564857Y-68842000D01*
X75517238Y-68794380D01*
X75517238Y-68889619D01*
X75993428Y-69794380D02*
X75993428Y-69127714D01*
X75993428Y-69222952D02*
X76041047Y-69175333D01*
X76136285Y-69127714D01*
X76279142Y-69127714D01*
X76374380Y-69175333D01*
X76422000Y-69270571D01*
X76422000Y-69794380D01*
X76422000Y-69270571D02*
X76469619Y-69175333D01*
X76564857Y-69127714D01*
X76707714Y-69127714D01*
X76802952Y-69175333D01*
X76850571Y-69270571D01*
X76850571Y-69794380D01*
X77755333Y-69794380D02*
X77755333Y-69270571D01*
X77707714Y-69175333D01*
X77612476Y-69127714D01*
X77422000Y-69127714D01*
X77326761Y-69175333D01*
X77755333Y-69746761D02*
X77660095Y-69794380D01*
X77422000Y-69794380D01*
X77326761Y-69746761D01*
X77279142Y-69651523D01*
X77279142Y-69556285D01*
X77326761Y-69461047D01*
X77422000Y-69413428D01*
X77660095Y-69413428D01*
X77755333Y-69365809D01*
X78374380Y-69794380D02*
X78279142Y-69746761D01*
X78231523Y-69699142D01*
X78183904Y-69603904D01*
X78183904Y-69318190D01*
X78231523Y-69222952D01*
X78279142Y-69175333D01*
X78374380Y-69127714D01*
X78517238Y-69127714D01*
X78612476Y-69175333D01*
X78660095Y-69222952D01*
X78707714Y-69318190D01*
X78707714Y-69603904D01*
X78660095Y-69699142D01*
X78612476Y-69746761D01*
X78517238Y-69794380D01*
X78374380Y-69794380D01*
D10*
X47769428Y-52079142D02*
X47169428Y-52079142D01*
X47169428Y-51850571D01*
X47198000Y-51793428D01*
X47226571Y-51764857D01*
X47283714Y-51736285D01*
X47369428Y-51736285D01*
X47426571Y-51764857D01*
X47455142Y-51793428D01*
X47483714Y-51850571D01*
X47483714Y-52079142D01*
X47712285Y-51136285D02*
X47740857Y-51164857D01*
X47769428Y-51250571D01*
X47769428Y-51307714D01*
X47740857Y-51393428D01*
X47683714Y-51450571D01*
X47626571Y-51479142D01*
X47512285Y-51507714D01*
X47426571Y-51507714D01*
X47312285Y-51479142D01*
X47255142Y-51450571D01*
X47198000Y-51393428D01*
X47169428Y-51307714D01*
X47169428Y-51250571D01*
X47198000Y-51164857D01*
X47226571Y-51136285D01*
X47455142Y-50679142D02*
X47455142Y-50879142D01*
X47769428Y-50879142D02*
X47169428Y-50879142D01*
X47169428Y-50593428D01*
X47540857Y-50364857D02*
X47540857Y-49907714D01*
X47769428Y-50136285D02*
X47312285Y-50136285D01*
X47969428Y-49022000D02*
X47112285Y-49022000D01*
X47769428Y-48136285D02*
X47169428Y-48136285D01*
X47169428Y-47907714D01*
X47198000Y-47850571D01*
X47226571Y-47822000D01*
X47283714Y-47793428D01*
X47369428Y-47793428D01*
X47426571Y-47822000D01*
X47455142Y-47850571D01*
X47483714Y-47907714D01*
X47483714Y-48136285D01*
X47712285Y-47193428D02*
X47740857Y-47222000D01*
X47769428Y-47307714D01*
X47769428Y-47364857D01*
X47740857Y-47450571D01*
X47683714Y-47507714D01*
X47626571Y-47536285D01*
X47512285Y-47564857D01*
X47426571Y-47564857D01*
X47312285Y-47536285D01*
X47255142Y-47507714D01*
X47198000Y-47450571D01*
X47169428Y-47364857D01*
X47169428Y-47307714D01*
X47198000Y-47222000D01*
X47226571Y-47193428D01*
X47455142Y-46736285D02*
X47455142Y-46936285D01*
X47769428Y-46936285D02*
X47169428Y-46936285D01*
X47169428Y-46650571D01*
X47540857Y-46422000D02*
X47540857Y-45964857D01*
X68280000Y-64334571D02*
X68251428Y-64391714D01*
X68251428Y-64477428D01*
X68280000Y-64563142D01*
X68337142Y-64620285D01*
X68394285Y-64648857D01*
X68508571Y-64677428D01*
X68594285Y-64677428D01*
X68708571Y-64648857D01*
X68765714Y-64620285D01*
X68822857Y-64563142D01*
X68851428Y-64477428D01*
X68851428Y-64420285D01*
X68822857Y-64334571D01*
X68794285Y-64306000D01*
X68594285Y-64306000D01*
X68594285Y-64420285D01*
X68851428Y-64048857D02*
X68251428Y-64048857D01*
X68851428Y-63706000D01*
X68251428Y-63706000D01*
X68851428Y-63420285D02*
X68251428Y-63420285D01*
X68251428Y-63277428D01*
X68280000Y-63191714D01*
X68337142Y-63134571D01*
X68394285Y-63106000D01*
X68508571Y-63077428D01*
X68594285Y-63077428D01*
X68708571Y-63106000D01*
X68765714Y-63134571D01*
X68822857Y-63191714D01*
X68851428Y-63277428D01*
X68851428Y-63420285D01*
X69051428Y-62220285D02*
X68194285Y-62220285D01*
X68680000Y-61363142D02*
X68680000Y-61077428D01*
X68851428Y-61420285D02*
X68251428Y-61220285D01*
X68851428Y-61020285D01*
X68251428Y-60820285D02*
X68737142Y-60820285D01*
X68794285Y-60791714D01*
X68822857Y-60763142D01*
X68851428Y-60706000D01*
X68851428Y-60591714D01*
X68822857Y-60534571D01*
X68794285Y-60506000D01*
X68737142Y-60477428D01*
X68251428Y-60477428D01*
X68251428Y-60248857D02*
X68851428Y-59848857D01*
X68251428Y-59848857D02*
X68851428Y-60248857D01*
X68308571Y-59648857D02*
X68280000Y-59620285D01*
X68251428Y-59563142D01*
X68251428Y-59420285D01*
X68280000Y-59363142D01*
X68308571Y-59334571D01*
X68365714Y-59306000D01*
X68422857Y-59306000D01*
X68508571Y-59334571D01*
X68851428Y-59677428D01*
X68851428Y-59306000D01*
X69051428Y-58448857D02*
X68194285Y-58448857D01*
X68251428Y-57277428D02*
X68251428Y-57563142D01*
X68537142Y-57591714D01*
X68508571Y-57563142D01*
X68480000Y-57506000D01*
X68480000Y-57363142D01*
X68508571Y-57306000D01*
X68537142Y-57277428D01*
X68594285Y-57248857D01*
X68737142Y-57248857D01*
X68794285Y-57277428D01*
X68822857Y-57306000D01*
X68851428Y-57363142D01*
X68851428Y-57506000D01*
X68822857Y-57563142D01*
X68794285Y-57591714D01*
X68251428Y-57077428D02*
X68851428Y-56877428D01*
X68251428Y-56677428D01*
D11*
X36754357Y-69794380D02*
X37278166Y-69127714D01*
X36754357Y-69127714D02*
X37278166Y-69794380D01*
X37801976Y-69794380D02*
X37706738Y-69746761D01*
X37659119Y-69699142D01*
X37611500Y-69603904D01*
X37611500Y-69318190D01*
X37659119Y-69222952D01*
X37706738Y-69175333D01*
X37801976Y-69127714D01*
X37944833Y-69127714D01*
X38040071Y-69175333D01*
X38087690Y-69222952D01*
X38135309Y-69318190D01*
X38135309Y-69603904D01*
X38087690Y-69699142D01*
X38040071Y-69746761D01*
X37944833Y-69794380D01*
X37801976Y-69794380D01*
X38706738Y-69794380D02*
X38611500Y-69746761D01*
X38563880Y-69651523D01*
X38563880Y-68794380D01*
X39849595Y-69127714D02*
X39849595Y-70127714D01*
X39849595Y-69175333D02*
X39944833Y-69127714D01*
X40135309Y-69127714D01*
X40230547Y-69175333D01*
X40278166Y-69222952D01*
X40325785Y-69318190D01*
X40325785Y-69603904D01*
X40278166Y-69699142D01*
X40230547Y-69746761D01*
X40135309Y-69794380D01*
X39944833Y-69794380D01*
X39849595Y-69746761D01*
X41182928Y-69746761D02*
X41087690Y-69794380D01*
X40897214Y-69794380D01*
X40801976Y-69746761D01*
X40754357Y-69699142D01*
X40706738Y-69603904D01*
X40706738Y-69318190D01*
X40754357Y-69222952D01*
X40801976Y-69175333D01*
X40897214Y-69127714D01*
X41087690Y-69127714D01*
X41182928Y-69175333D01*
X41611500Y-69794380D02*
X41611500Y-68794380D01*
X41611500Y-69175333D02*
X41706738Y-69127714D01*
X41897214Y-69127714D01*
X41992452Y-69175333D01*
X42040071Y-69222952D01*
X42087690Y-69318190D01*
X42087690Y-69603904D01*
X42040071Y-69699142D01*
X41992452Y-69746761D01*
X41897214Y-69794380D01*
X41706738Y-69794380D01*
X41611500Y-69746761D01*
X43278166Y-69794380D02*
X43278166Y-69127714D01*
X43278166Y-69318190D02*
X43325785Y-69222952D01*
X43373404Y-69175333D01*
X43468642Y-69127714D01*
X43563880Y-69127714D01*
X44278166Y-69746761D02*
X44182928Y-69794380D01*
X43992452Y-69794380D01*
X43897214Y-69746761D01*
X43849595Y-69651523D01*
X43849595Y-69270571D01*
X43897214Y-69175333D01*
X43992452Y-69127714D01*
X44182928Y-69127714D01*
X44278166Y-69175333D01*
X44325785Y-69270571D01*
X44325785Y-69365809D01*
X43849595Y-69461047D01*
X44659119Y-69127714D02*
X44897214Y-69794380D01*
X45135309Y-69127714D01*
X46230547Y-68889619D02*
X46278166Y-68842000D01*
X46373404Y-68794380D01*
X46611500Y-68794380D01*
X46706738Y-68842000D01*
X46754357Y-68889619D01*
X46801976Y-68984857D01*
X46801976Y-69080095D01*
X46754357Y-69222952D01*
X46182928Y-69794380D01*
X46801976Y-69794380D01*
D10*
X45491714Y-54881428D02*
X45491714Y-54281428D01*
X45491714Y-54567142D02*
X45834571Y-54567142D01*
X45834571Y-54881428D02*
X45834571Y-54281428D01*
X46120285Y-54567142D02*
X46320285Y-54567142D01*
X46406000Y-54881428D02*
X46120285Y-54881428D01*
X46120285Y-54281428D01*
X46406000Y-54281428D01*
X46663142Y-54652857D02*
X47120285Y-54652857D01*
X46891714Y-54881428D02*
X46891714Y-54424285D01*
X48006000Y-55081428D02*
X48006000Y-54224285D01*
X48891714Y-54881428D02*
X48891714Y-54281428D01*
X48891714Y-54567142D02*
X49234571Y-54567142D01*
X49234571Y-54881428D02*
X49234571Y-54281428D01*
X49520285Y-54567142D02*
X49720285Y-54567142D01*
X49806000Y-54881428D02*
X49520285Y-54881428D01*
X49520285Y-54281428D01*
X49806000Y-54281428D01*
X50063142Y-54652857D02*
X50520285Y-54652857D01*
X56913428Y-52050571D02*
X56313428Y-52050571D01*
X56599142Y-52050571D02*
X56599142Y-51707714D01*
X56913428Y-51707714D02*
X56313428Y-51707714D01*
X56599142Y-51422000D02*
X56599142Y-51222000D01*
X56913428Y-51136285D02*
X56913428Y-51422000D01*
X56313428Y-51422000D01*
X56313428Y-51136285D01*
X56599142Y-50679142D02*
X56599142Y-50879142D01*
X56913428Y-50879142D02*
X56313428Y-50879142D01*
X56313428Y-50593428D01*
X56684857Y-50364857D02*
X56684857Y-49907714D01*
X56913428Y-50136285D02*
X56456285Y-50136285D01*
X57113428Y-49022000D02*
X56256285Y-49022000D01*
X56913428Y-48136285D02*
X56313428Y-48136285D01*
X56599142Y-48136285D02*
X56599142Y-47793428D01*
X56913428Y-47793428D02*
X56313428Y-47793428D01*
X56599142Y-47507714D02*
X56599142Y-47307714D01*
X56913428Y-47222000D02*
X56913428Y-47507714D01*
X56313428Y-47507714D01*
X56313428Y-47222000D01*
X56599142Y-46764857D02*
X56599142Y-46964857D01*
X56913428Y-46964857D02*
X56313428Y-46964857D01*
X56313428Y-46679142D01*
X56684857Y-46450571D02*
X56684857Y-45993428D01*
D12*
%TO.C,HE1*%
X46791714Y-67308380D02*
X46791714Y-66308380D01*
X46791714Y-66784571D02*
X47363142Y-66784571D01*
X47363142Y-67308380D02*
X47363142Y-66308380D01*
X47839333Y-66784571D02*
X48172666Y-66784571D01*
X48315523Y-67308380D02*
X47839333Y-67308380D01*
X47839333Y-66308380D01*
X48315523Y-66308380D01*
X49267904Y-67308380D02*
X48696476Y-67308380D01*
X48982190Y-67308380D02*
X48982190Y-66308380D01*
X48886952Y-66451238D01*
X48791714Y-66546476D01*
X48696476Y-66594095D01*
%TO.C,HEF1*%
X51165142Y-44488380D02*
X51165142Y-43488380D01*
X51165142Y-43964571D02*
X51736571Y-43964571D01*
X51736571Y-44488380D02*
X51736571Y-43488380D01*
X52212761Y-43964571D02*
X52546095Y-43964571D01*
X52688952Y-44488380D02*
X52212761Y-44488380D01*
X52212761Y-43488380D01*
X52688952Y-43488380D01*
X53450857Y-43964571D02*
X53117523Y-43964571D01*
X53117523Y-44488380D02*
X53117523Y-43488380D01*
X53593714Y-43488380D01*
X54498476Y-44488380D02*
X53927047Y-44488380D01*
X54212761Y-44488380D02*
X54212761Y-43488380D01*
X54117523Y-43631238D01*
X54022285Y-43726476D01*
X53927047Y-43774095D01*
%TO.C,PCF1*%
X41997333Y-44488380D02*
X41997333Y-43488380D01*
X42378285Y-43488380D01*
X42473523Y-43536000D01*
X42521142Y-43583619D01*
X42568761Y-43678857D01*
X42568761Y-43821714D01*
X42521142Y-43916952D01*
X42473523Y-43964571D01*
X42378285Y-44012190D01*
X41997333Y-44012190D01*
X43568761Y-44393142D02*
X43521142Y-44440761D01*
X43378285Y-44488380D01*
X43283047Y-44488380D01*
X43140190Y-44440761D01*
X43044952Y-44345523D01*
X42997333Y-44250285D01*
X42949714Y-44059809D01*
X42949714Y-43916952D01*
X42997333Y-43726476D01*
X43044952Y-43631238D01*
X43140190Y-43536000D01*
X43283047Y-43488380D01*
X43378285Y-43488380D01*
X43521142Y-43536000D01*
X43568761Y-43583619D01*
X44330666Y-43964571D02*
X43997333Y-43964571D01*
X43997333Y-44488380D02*
X43997333Y-43488380D01*
X44473523Y-43488380D01*
X45378285Y-44488380D02*
X44806857Y-44488380D01*
X45092571Y-44488380D02*
X45092571Y-43488380D01*
X44997333Y-43631238D01*
X44902095Y-43726476D01*
X44806857Y-43774095D01*
%TO.C,J1*%
X57290666Y-28493380D02*
X57290666Y-29207666D01*
X57243047Y-29350523D01*
X57147809Y-29445761D01*
X57004952Y-29493380D01*
X56909714Y-29493380D01*
X58290666Y-29493380D02*
X57719238Y-29493380D01*
X58004952Y-29493380D02*
X58004952Y-28493380D01*
X57909714Y-28636238D01*
X57814476Y-28731476D01*
X57719238Y-28779095D01*
%TO.C,TH1*%
X73160285Y-66308380D02*
X73731714Y-66308380D01*
X73446000Y-67308380D02*
X73446000Y-66308380D01*
X74065047Y-67308380D02*
X74065047Y-66308380D01*
X74065047Y-66784571D02*
X74636476Y-66784571D01*
X74636476Y-67308380D02*
X74636476Y-66308380D01*
X75636476Y-67308380D02*
X75065047Y-67308380D01*
X75350761Y-67308380D02*
X75350761Y-66308380D01*
X75255523Y-66451238D01*
X75160285Y-66546476D01*
X75065047Y-66594095D01*
%TO.C,AUX2*%
X63055714Y-67222666D02*
X63531904Y-67222666D01*
X62960476Y-67508380D02*
X63293809Y-66508380D01*
X63627142Y-67508380D01*
X63960476Y-66508380D02*
X63960476Y-67317904D01*
X64008095Y-67413142D01*
X64055714Y-67460761D01*
X64150952Y-67508380D01*
X64341428Y-67508380D01*
X64436666Y-67460761D01*
X64484285Y-67413142D01*
X64531904Y-67317904D01*
X64531904Y-66508380D01*
X64912857Y-66508380D02*
X65579523Y-67508380D01*
X65579523Y-66508380D02*
X64912857Y-67508380D01*
X65912857Y-66603619D02*
X65960476Y-66556000D01*
X66055714Y-66508380D01*
X66293809Y-66508380D01*
X66389047Y-66556000D01*
X66436666Y-66603619D01*
X66484285Y-66698857D01*
X66484285Y-66794095D01*
X66436666Y-66936952D01*
X65865238Y-67508380D01*
X66484285Y-67508380D01*
%TO.C,RGB1*%
X56000333Y-67508380D02*
X55667000Y-67032190D01*
X55428904Y-67508380D02*
X55428904Y-66508380D01*
X55809857Y-66508380D01*
X55905095Y-66556000D01*
X55952714Y-66603619D01*
X56000333Y-66698857D01*
X56000333Y-66841714D01*
X55952714Y-66936952D01*
X55905095Y-66984571D01*
X55809857Y-67032190D01*
X55428904Y-67032190D01*
X56952714Y-66556000D02*
X56857476Y-66508380D01*
X56714619Y-66508380D01*
X56571761Y-66556000D01*
X56476523Y-66651238D01*
X56428904Y-66746476D01*
X56381285Y-66936952D01*
X56381285Y-67079809D01*
X56428904Y-67270285D01*
X56476523Y-67365523D01*
X56571761Y-67460761D01*
X56714619Y-67508380D01*
X56809857Y-67508380D01*
X56952714Y-67460761D01*
X57000333Y-67413142D01*
X57000333Y-67079809D01*
X56809857Y-67079809D01*
X57762238Y-66984571D02*
X57905095Y-67032190D01*
X57952714Y-67079809D01*
X58000333Y-67175047D01*
X58000333Y-67317904D01*
X57952714Y-67413142D01*
X57905095Y-67460761D01*
X57809857Y-67508380D01*
X57428904Y-67508380D01*
X57428904Y-66508380D01*
X57762238Y-66508380D01*
X57857476Y-66556000D01*
X57905095Y-66603619D01*
X57952714Y-66698857D01*
X57952714Y-66794095D01*
X57905095Y-66889333D01*
X57857476Y-66936952D01*
X57762238Y-66984571D01*
X57428904Y-66984571D01*
X58952714Y-67508380D02*
X58381285Y-67508380D01*
X58667000Y-67508380D02*
X58667000Y-66508380D01*
X58571761Y-66651238D01*
X58476523Y-66746476D01*
X58381285Y-66794095D01*
%TO.C,PCF2*%
X69683333Y-44488380D02*
X69683333Y-43488380D01*
X70064285Y-43488380D01*
X70159523Y-43536000D01*
X70207142Y-43583619D01*
X70254761Y-43678857D01*
X70254761Y-43821714D01*
X70207142Y-43916952D01*
X70159523Y-43964571D01*
X70064285Y-44012190D01*
X69683333Y-44012190D01*
X71254761Y-44393142D02*
X71207142Y-44440761D01*
X71064285Y-44488380D01*
X70969047Y-44488380D01*
X70826190Y-44440761D01*
X70730952Y-44345523D01*
X70683333Y-44250285D01*
X70635714Y-44059809D01*
X70635714Y-43916952D01*
X70683333Y-43726476D01*
X70730952Y-43631238D01*
X70826190Y-43536000D01*
X70969047Y-43488380D01*
X71064285Y-43488380D01*
X71207142Y-43536000D01*
X71254761Y-43583619D01*
X72016666Y-43964571D02*
X71683333Y-43964571D01*
X71683333Y-44488380D02*
X71683333Y-43488380D01*
X72159523Y-43488380D01*
X72492857Y-43583619D02*
X72540476Y-43536000D01*
X72635714Y-43488380D01*
X72873809Y-43488380D01*
X72969047Y-43536000D01*
X73016666Y-43583619D01*
X73064285Y-43678857D01*
X73064285Y-43774095D01*
X73016666Y-43916952D01*
X72445238Y-44488380D01*
X73064285Y-44488380D01*
%TO.C,AUX1*%
X60491714Y-44202666D02*
X60967904Y-44202666D01*
X60396476Y-44488380D02*
X60729809Y-43488380D01*
X61063142Y-44488380D01*
X61396476Y-43488380D02*
X61396476Y-44297904D01*
X61444095Y-44393142D01*
X61491714Y-44440761D01*
X61586952Y-44488380D01*
X61777428Y-44488380D01*
X61872666Y-44440761D01*
X61920285Y-44393142D01*
X61967904Y-44297904D01*
X61967904Y-43488380D01*
X62348857Y-43488380D02*
X63015523Y-44488380D01*
X63015523Y-43488380D02*
X62348857Y-44488380D01*
X63920285Y-44488380D02*
X63348857Y-44488380D01*
X63634571Y-44488380D02*
X63634571Y-43488380D01*
X63539333Y-43631238D01*
X63444095Y-43726476D01*
X63348857Y-43774095D01*
D13*
%TO.C,HE1*%
X44071000Y-65766000D02*
X43071000Y-64766000D01*
X43071000Y-55646000D02*
X45854233Y-55646000D01*
X51941000Y-65766000D02*
X44071000Y-65766000D01*
X52941000Y-64766000D02*
X51941000Y-65766000D01*
X52941000Y-55646000D02*
X50516000Y-55646000D01*
X43071000Y-64766000D02*
X43071000Y-55646000D01*
X52941000Y-55646000D02*
X52941000Y-64766000D01*
X48496000Y-55646000D02*
X47157767Y-55646000D01*
%TO.C,HEF1*%
X52124000Y-45992000D02*
X55074000Y-45992000D01*
X50624000Y-45242000D02*
X49874000Y-45242000D01*
X49874000Y-48542000D02*
X49874000Y-49542000D01*
X55834000Y-45232000D02*
X49864000Y-45232000D01*
X49864000Y-52852000D02*
X55834000Y-52852000D01*
X50624000Y-47042000D02*
X50624000Y-45242000D01*
X49874000Y-52842000D02*
X50624000Y-52842000D01*
X49574000Y-51892000D02*
X49574000Y-53142000D01*
X49874000Y-47042000D02*
X50624000Y-47042000D01*
X55074000Y-52092000D02*
X55074000Y-49042000D01*
X55074000Y-45992000D02*
X55074000Y-49042000D01*
X49874000Y-51042000D02*
X49874000Y-52842000D01*
X52124000Y-45242000D02*
X52124000Y-45992000D01*
X50624000Y-52842000D02*
X50624000Y-51042000D01*
X50624000Y-51042000D02*
X49874000Y-51042000D01*
X49574000Y-53142000D02*
X50824000Y-53142000D01*
X52124000Y-52092000D02*
X55074000Y-52092000D01*
X55834000Y-52852000D02*
X55834000Y-45232000D01*
X49864000Y-45232000D02*
X49864000Y-52852000D01*
X50624000Y-48542000D02*
X49874000Y-48542000D01*
X50624000Y-49542000D02*
X50624000Y-48542000D01*
X52124000Y-52842000D02*
X52124000Y-52092000D01*
X49874000Y-45242000D02*
X49874000Y-47042000D01*
X49874000Y-49542000D02*
X50624000Y-49542000D01*
%TO.C,PCF1*%
X40720000Y-45232000D02*
X40720000Y-52852000D01*
X40430000Y-51892000D02*
X40430000Y-53142000D01*
X42980000Y-52092000D02*
X45930000Y-52092000D01*
X40730000Y-51042000D02*
X40730000Y-52842000D01*
X40730000Y-48542000D02*
X40730000Y-49542000D01*
X42980000Y-45242000D02*
X42980000Y-45992000D01*
X40730000Y-47042000D02*
X41480000Y-47042000D01*
X45930000Y-45992000D02*
X45930000Y-49042000D01*
X41480000Y-49542000D02*
X41480000Y-48542000D01*
X40430000Y-53142000D02*
X41680000Y-53142000D01*
X42980000Y-52842000D02*
X42980000Y-52092000D01*
X40730000Y-45242000D02*
X40730000Y-47042000D01*
X42980000Y-45992000D02*
X45930000Y-45992000D01*
X41480000Y-48542000D02*
X40730000Y-48542000D01*
X40720000Y-52852000D02*
X46690000Y-52852000D01*
X45930000Y-52092000D02*
X45930000Y-49042000D01*
X41480000Y-52842000D02*
X41480000Y-51042000D01*
X40730000Y-52842000D02*
X41480000Y-52842000D01*
X41480000Y-51042000D02*
X40730000Y-51042000D01*
X46690000Y-52852000D02*
X46690000Y-45232000D01*
X41480000Y-47042000D02*
X41480000Y-45242000D01*
X41480000Y-45242000D02*
X40730000Y-45242000D01*
X40730000Y-49542000D02*
X41480000Y-49542000D01*
X46690000Y-45232000D02*
X40720000Y-45232000D01*
%TO.C,J1*%
X43439000Y-31131000D02*
X44439000Y-30131000D01*
X43439000Y-40261000D02*
X43439000Y-31131000D01*
X44439000Y-30131000D02*
X70809000Y-30131000D01*
X71809000Y-40261000D02*
X43439000Y-40261000D01*
X70809000Y-30131000D02*
X71809000Y-31131000D01*
X71809000Y-31131000D02*
X71809000Y-40261000D01*
%TO.C,TH1*%
X79381000Y-55646000D02*
X79381000Y-64766000D01*
X70511000Y-65766000D02*
X69511000Y-64766000D01*
X78381000Y-65766000D02*
X70511000Y-65766000D01*
X79381000Y-64766000D02*
X78381000Y-65766000D01*
X69511000Y-64766000D02*
X69511000Y-55646000D01*
X79381000Y-55646000D02*
X76956000Y-55646000D01*
X74936000Y-55646000D02*
X73597767Y-55646000D01*
X69511000Y-55646000D02*
X72294233Y-55646000D01*
%TO.C,AUX2*%
X62545000Y-58956000D02*
X61795000Y-58956000D01*
X62545000Y-63956000D02*
X61795000Y-63956000D01*
X62545000Y-57456000D02*
X62545000Y-55656000D01*
X62545000Y-65756000D02*
X62545000Y-63956000D01*
X61795000Y-62456000D02*
X62545000Y-62456000D01*
X66995000Y-56406000D02*
X66995000Y-60706000D01*
X61495000Y-66056000D02*
X62745000Y-66056000D01*
X62545000Y-62456000D02*
X62545000Y-58956000D01*
X64045000Y-56406000D02*
X66995000Y-56406000D01*
X64045000Y-65756000D02*
X64045000Y-65006000D01*
X61785000Y-65766000D02*
X67755000Y-65766000D01*
X61795000Y-57456000D02*
X62545000Y-57456000D01*
X67755000Y-65766000D02*
X67755000Y-55646000D01*
X61795000Y-65756000D02*
X62545000Y-65756000D01*
X61795000Y-55656000D02*
X61795000Y-57456000D01*
X64045000Y-65006000D02*
X66995000Y-65006000D01*
X61785000Y-55646000D02*
X61785000Y-65766000D01*
X67755000Y-55646000D02*
X61785000Y-55646000D01*
X61795000Y-58956000D02*
X61795000Y-62456000D01*
X62545000Y-55656000D02*
X61795000Y-55656000D01*
X64045000Y-55656000D02*
X64045000Y-56406000D01*
X66995000Y-65006000D02*
X66995000Y-60706000D01*
X61795000Y-63956000D02*
X61795000Y-65756000D01*
X61495000Y-64806000D02*
X61495000Y-66056000D01*
%TO.C,RGB1*%
X54942000Y-58996000D02*
X54192000Y-58996000D01*
X54182000Y-55686000D02*
X54182000Y-65806000D01*
X53892000Y-66096000D02*
X55142000Y-66096000D01*
X59392000Y-65046000D02*
X59392000Y-60746000D01*
X60152000Y-55686000D02*
X54182000Y-55686000D01*
X54942000Y-62496000D02*
X54942000Y-58996000D01*
X60152000Y-65806000D02*
X60152000Y-55686000D01*
X54192000Y-57496000D02*
X54942000Y-57496000D01*
X54942000Y-55696000D02*
X54192000Y-55696000D01*
X54192000Y-62496000D02*
X54942000Y-62496000D01*
X56442000Y-65796000D02*
X56442000Y-65046000D01*
X54942000Y-63996000D02*
X54192000Y-63996000D01*
X54942000Y-57496000D02*
X54942000Y-55696000D01*
X54192000Y-55696000D02*
X54192000Y-57496000D01*
X56442000Y-56446000D02*
X59392000Y-56446000D01*
X54182000Y-65806000D02*
X60152000Y-65806000D01*
X53892000Y-64846000D02*
X53892000Y-66096000D01*
X59392000Y-56446000D02*
X59392000Y-60746000D01*
X54192000Y-58996000D02*
X54192000Y-62496000D01*
X56442000Y-55696000D02*
X56442000Y-56446000D01*
X54192000Y-63996000D02*
X54192000Y-65796000D01*
X54942000Y-65796000D02*
X54942000Y-63996000D01*
X56442000Y-65046000D02*
X59392000Y-65046000D01*
X54192000Y-65796000D02*
X54942000Y-65796000D01*
%TO.C,PCF2*%
X69166000Y-48542000D02*
X68416000Y-48542000D01*
X68416000Y-51042000D02*
X68416000Y-52842000D01*
X73616000Y-45992000D02*
X73616000Y-49042000D01*
X74376000Y-45232000D02*
X68406000Y-45232000D01*
X70666000Y-52842000D02*
X70666000Y-52092000D01*
X68116000Y-53142000D02*
X69366000Y-53142000D01*
X70666000Y-52092000D02*
X73616000Y-52092000D01*
X68406000Y-52852000D02*
X74376000Y-52852000D01*
X68416000Y-49542000D02*
X69166000Y-49542000D01*
X68406000Y-45232000D02*
X68406000Y-52852000D01*
X70666000Y-45992000D02*
X73616000Y-45992000D01*
X68416000Y-47042000D02*
X69166000Y-47042000D01*
X70666000Y-45242000D02*
X70666000Y-45992000D01*
X74376000Y-52852000D02*
X74376000Y-45232000D01*
X68116000Y-51892000D02*
X68116000Y-53142000D01*
X68416000Y-52842000D02*
X69166000Y-52842000D01*
X68416000Y-45242000D02*
X68416000Y-47042000D01*
X73616000Y-52092000D02*
X73616000Y-49042000D01*
X69166000Y-52842000D02*
X69166000Y-51042000D01*
X69166000Y-45242000D02*
X68416000Y-45242000D01*
X69166000Y-49542000D02*
X69166000Y-48542000D01*
X68416000Y-48542000D02*
X68416000Y-49542000D01*
X69166000Y-51042000D02*
X68416000Y-51042000D01*
X69166000Y-47042000D02*
X69166000Y-45242000D01*
%TO.C,AUX1*%
X60022000Y-52842000D02*
X60022000Y-51042000D01*
X64472000Y-52092000D02*
X64472000Y-49042000D01*
X58972000Y-53142000D02*
X60222000Y-53142000D01*
X60022000Y-48542000D02*
X59272000Y-48542000D01*
X59272000Y-51042000D02*
X59272000Y-52842000D01*
X64472000Y-45992000D02*
X64472000Y-49042000D01*
X60022000Y-45242000D02*
X59272000Y-45242000D01*
X65232000Y-45232000D02*
X59262000Y-45232000D01*
X59272000Y-45242000D02*
X59272000Y-47042000D01*
X59272000Y-52842000D02*
X60022000Y-52842000D01*
X61522000Y-45992000D02*
X64472000Y-45992000D01*
X59272000Y-49542000D02*
X60022000Y-49542000D01*
X61522000Y-52092000D02*
X64472000Y-52092000D01*
X60022000Y-49542000D02*
X60022000Y-48542000D01*
X60022000Y-51042000D02*
X59272000Y-51042000D01*
X61522000Y-45242000D02*
X61522000Y-45992000D01*
X59272000Y-48542000D02*
X59272000Y-49542000D01*
X60022000Y-47042000D02*
X60022000Y-45242000D01*
X65232000Y-52852000D02*
X65232000Y-45232000D01*
X59262000Y-52852000D02*
X65232000Y-52852000D01*
X58972000Y-51892000D02*
X58972000Y-53142000D01*
X61522000Y-52842000D02*
X61522000Y-52092000D01*
X59262000Y-45232000D02*
X59262000Y-52852000D01*
X59272000Y-47042000D02*
X60022000Y-47042000D01*
%TD*%
M02*
