%TF.GenerationSoftware,KiCad,Pcbnew,(6.0.7)*%
%TF.CreationDate,2023-07-30T17:13:32-07:00*%
%TF.ProjectId,xol-pcb,786f6c2d-7063-4622-9e6b-696361645f70,rev?*%
%TF.SameCoordinates,Original*%
%TF.FileFunction,Copper,L1,Top*%
%TF.FilePolarity,Positive*%
%FSLAX46Y46*%
G04 Gerber Fmt 4.6, Leading zero omitted, Abs format (unit mm)*
G04 Created by KiCad (PCBNEW (6.0.7)) date 2023-07-30 17:13:32*
%MOMM*%
%LPD*%
G01*
G04 APERTURE LIST*
G04 Aperture macros list*
%AMRoundRect*
0 Rectangle with rounded corners*
0 $1 Rounding radius*
0 $2 $3 $4 $5 $6 $7 $8 $9 X,Y pos of 4 corners*
0 Add a 4 corners polygon primitive as box body*
4,1,4,$2,$3,$4,$5,$6,$7,$8,$9,$2,$3,0*
0 Add four circle primitives for the rounded corners*
1,1,$1+$1,$2,$3*
1,1,$1+$1,$4,$5*
1,1,$1+$1,$6,$7*
1,1,$1+$1,$8,$9*
0 Add four rect primitives between the rounded corners*
20,1,$1+$1,$2,$3,$4,$5,0*
20,1,$1+$1,$4,$5,$6,$7,0*
20,1,$1+$1,$6,$7,$8,$9,0*
20,1,$1+$1,$8,$9,$2,$3,0*%
%AMHorizOval*
0 Thick line with rounded ends*
0 $1 width*
0 $2 $3 position (X,Y) of the first rounded end (center of the circle)*
0 $4 $5 position (X,Y) of the second rounded end (center of the circle)*
0 Add line between two ends*
20,1,$1,$2,$3,$4,$5,0*
0 Add two circle primitives to create the rounded ends*
1,1,$1,$2,$3*
1,1,$1,$4,$5*%
G04 Aperture macros list end*
%TA.AperFunction,ComponentPad*%
%ADD10RoundRect,0.250001X0.499999X0.759999X-0.499999X0.759999X-0.499999X-0.759999X0.499999X-0.759999X0*%
%TD*%
%TA.AperFunction,ComponentPad*%
%ADD11O,1.500000X2.020000*%
%TD*%
%TA.AperFunction,ComponentPad*%
%ADD12RoundRect,0.250000X0.750000X-0.600000X0.750000X0.600000X-0.750000X0.600000X-0.750000X-0.600000X0*%
%TD*%
%TA.AperFunction,ComponentPad*%
%ADD13O,2.000000X1.700000*%
%TD*%
%TA.AperFunction,ComponentPad*%
%ADD14RoundRect,0.250001X-0.499999X-0.499999X0.499999X-0.499999X0.499999X0.499999X-0.499999X0.499999X0*%
%TD*%
%TA.AperFunction,ComponentPad*%
%ADD15C,1.500000*%
%TD*%
%TA.AperFunction,ComponentPad*%
%ADD16C,6.400000*%
%TD*%
%TA.AperFunction,ComponentPad*%
%ADD17RoundRect,0.250000X0.725000X-0.600000X0.725000X0.600000X-0.725000X0.600000X-0.725000X-0.600000X0*%
%TD*%
%TA.AperFunction,ComponentPad*%
%ADD18O,1.950000X1.700000*%
%TD*%
%TA.AperFunction,ComponentPad*%
%ADD19RoundRect,0.250000X0.809935X-0.479198X0.622213X0.706028X-0.809935X0.479198X-0.622213X-0.706028X0*%
%TD*%
%TA.AperFunction,ComponentPad*%
%ADD20HorizOval,1.700000X0.123461X0.019554X-0.123461X-0.019554X0*%
%TD*%
%TA.AperFunction,ViaPad*%
%ADD21C,0.800000*%
%TD*%
%TA.AperFunction,Conductor*%
%ADD22C,0.500000*%
%TD*%
%TA.AperFunction,Conductor*%
%ADD23C,0.300000*%
%TD*%
%TA.AperFunction,Conductor*%
%ADD24C,2.500000*%
%TD*%
%TA.AperFunction,Conductor*%
%ADD25C,1.000000*%
%TD*%
G04 APERTURE END LIST*
D10*
%TO.P,HE1,1,Pin_1*%
%TO.N,HE-*%
X49506000Y-56736000D03*
D11*
%TO.P,HE1,2,Pin_2*%
%TO.N,HE+*%
X46506000Y-56736000D03*
%TD*%
D12*
%TO.P,HEF1,1,Pin_1*%
%TO.N,HEF+*%
X52324000Y-50292000D03*
D13*
%TO.P,HEF1,2,Pin_2*%
%TO.N,HEF-*%
X52324000Y-47792000D03*
%TD*%
D12*
%TO.P,PCF1,1,Pin_1*%
%TO.N,PCF+*%
X43180000Y-50292000D03*
D13*
%TO.P,PCF1,2,Pin_2*%
%TO.N,PCF-*%
X43180000Y-47792000D03*
%TD*%
D14*
%TO.P,J1,1,Pin_1*%
%TO.N,RGB*%
X47124000Y-39161000D03*
D15*
%TO.P,J1,2,Pin_2*%
%TO.N,PCF-*%
X50124000Y-39161000D03*
%TO.P,J1,3,Pin_3*%
%TO.N,HEF-*%
X53124000Y-39161000D03*
%TO.P,J1,4,Pin_4*%
%TO.N,TH-*%
X56124000Y-39161000D03*
%TO.P,J1,5,Pin_5*%
%TO.N,A1*%
X59124000Y-39161000D03*
%TO.P,J1,6,Pin_6*%
%TO.N,A2*%
X62124000Y-39161000D03*
%TO.P,J1,7,Pin_7*%
%TO.N,GND*%
X65124000Y-39161000D03*
%TO.P,J1,8,Pin_8*%
%TO.N,5V*%
X68124000Y-39161000D03*
%TO.P,J1,9,Pin_9*%
%TO.N,HE+*%
X47124000Y-42161000D03*
%TO.P,J1,10,Pin_10*%
%TO.N,HE-*%
X50124000Y-42161000D03*
%TO.P,J1,11,Pin_11*%
%TO.N,VALT*%
X53124000Y-42161000D03*
%TO.P,J1,12,Pin_12*%
%TO.N,TH*%
X56124000Y-42161000D03*
%TO.P,J1,13,Pin_13*%
%TO.N,B1*%
X59124000Y-42161000D03*
%TO.P,J1,14,Pin_14*%
%TO.N,B2*%
X62124000Y-42161000D03*
%TO.P,J1,15,Pin_15*%
%TO.N,AUX1*%
X65124000Y-42161000D03*
%TO.P,J1,16,Pin_16*%
%TO.N,AUX2*%
X68124000Y-42161000D03*
%TD*%
D10*
%TO.P,TH1,1,Pin_1*%
%TO.N,TH-*%
X75946000Y-56736000D03*
D11*
%TO.P,TH1,2,Pin_2*%
%TO.N,TH*%
X72946000Y-56736000D03*
%TD*%
D16*
%TO.P,H1,1,1*%
%TO.N,GND*%
X79559001Y-49376179D03*
%TD*%
%TO.P,H2,1,1*%
%TO.N,GND*%
X35709001Y-49376179D03*
%TD*%
D17*
%TO.P,AUX2,1,Pin_1*%
%TO.N,GND*%
X64245000Y-63206000D03*
D18*
%TO.P,AUX2,2,Pin_2*%
%TO.N,AUX2*%
X64245000Y-60706000D03*
%TO.P,AUX2,3,Pin_3*%
%TO.N,5V*%
X64245000Y-58206000D03*
%TD*%
D17*
%TO.P,RGB1,1,Pin_1*%
%TO.N,GND*%
X56642000Y-63246000D03*
D18*
%TO.P,RGB1,2,Pin_2*%
%TO.N,RGB*%
X56642000Y-60746000D03*
%TO.P,RGB1,3,Pin_3*%
%TO.N,5V*%
X56642000Y-58246000D03*
%TD*%
D12*
%TO.P,PCF2,1,Pin_1*%
%TO.N,PCF+*%
X70866000Y-50292000D03*
D13*
%TO.P,PCF2,2,Pin_2*%
%TO.N,PCF-*%
X70866000Y-47792000D03*
%TD*%
D12*
%TO.P,AUX1,1,Pin_1*%
%TO.N,GND*%
X61722000Y-50292000D03*
D13*
%TO.P,AUX1,2,Pin_2*%
%TO.N,AUX1*%
X61722000Y-47792000D03*
%TD*%
D19*
%TO.P,MOTOR1,1,Pin_1*%
%TO.N,B1*%
X38419166Y-64929703D03*
D20*
%TO.P,MOTOR1,2,Pin_2*%
%TO.N,B2*%
X38028080Y-62460482D03*
%TO.P,MOTOR1,3,Pin_3*%
%TO.N,A1*%
X37636994Y-59991261D03*
%TO.P,MOTOR1,4,Pin_4*%
%TO.N,A2*%
X37245908Y-57522040D03*
%TD*%
D21*
%TO.N,HE+*%
X54356000Y-63500000D03*
%TO.N,HEF+*%
X67310000Y-56896000D03*
X59690000Y-56896000D03*
X52324000Y-56896000D03*
%TO.N,GND*%
X54102000Y-57404000D03*
X45974000Y-59182000D03*
X67564000Y-53594000D03*
X54610000Y-48768000D03*
%TD*%
D22*
%TO.N,B1*%
X60706000Y-38862000D02*
X60706000Y-40894000D01*
X38419166Y-64929703D02*
X41148000Y-62200869D01*
X59690000Y-37846000D02*
X60706000Y-38862000D01*
X41148000Y-42926000D02*
X46228000Y-37846000D01*
X60706000Y-40894000D02*
X59439000Y-42161000D01*
X46228000Y-37846000D02*
X59690000Y-37846000D01*
X41148000Y-62200869D02*
X41148000Y-42926000D01*
D23*
%TO.N,RGB*%
X51054000Y-58928000D02*
X52872000Y-60746000D01*
X51054000Y-55626000D02*
X51054000Y-58928000D01*
X52872000Y-60746000D02*
X56642000Y-60746000D01*
X48768000Y-40805000D02*
X48768000Y-53340000D01*
X47124000Y-39161000D02*
X48768000Y-40805000D01*
X48768000Y-53340000D02*
X51054000Y-55626000D01*
D22*
%TO.N,B2*%
X63754000Y-38596971D02*
X62241029Y-37084000D01*
X63754000Y-40380000D02*
X63754000Y-38596971D01*
X62241029Y-37084000D02*
X45987025Y-37084000D01*
X40448000Y-42623025D02*
X40448000Y-60040562D01*
X40448000Y-60040562D02*
X38028080Y-62460482D01*
X61973000Y-42161000D02*
X63754000Y-40380000D01*
X45987025Y-37084000D02*
X40448000Y-42623025D01*
D23*
%TO.N,TH*%
X56158000Y-42161000D02*
X59971000Y-45974000D01*
X59971000Y-45974000D02*
X71882000Y-45974000D01*
X72946000Y-47038000D02*
X72946000Y-56736000D01*
X71882000Y-45974000D02*
X72946000Y-47038000D01*
D24*
%TO.N,HE+*%
X47158000Y-42161000D02*
X47158000Y-54696000D01*
D25*
X54356000Y-63500000D02*
X49530000Y-58674000D01*
X48444000Y-58674000D02*
X46506000Y-56736000D01*
D24*
X47158000Y-54696000D02*
X46506000Y-55348000D01*
D25*
X49530000Y-58674000D02*
X48444000Y-58674000D01*
D24*
X46506000Y-55348000D02*
X46506000Y-56736000D01*
D25*
%TO.N,HEF+*%
X66548000Y-56134000D02*
X67310000Y-56896000D01*
X53086000Y-56134000D02*
X58928000Y-56134000D01*
X59690000Y-56896000D02*
X60452000Y-56134000D01*
X52324000Y-56896000D02*
X53086000Y-56134000D01*
X58928000Y-56134000D02*
X59690000Y-56896000D01*
X60452000Y-56134000D02*
X66548000Y-56134000D01*
%TO.N,HEF-*%
X53158000Y-39188000D02*
X54610000Y-40640000D01*
X54610000Y-40640000D02*
X54610000Y-45506000D01*
X53158000Y-39161000D02*
X53158000Y-39188000D01*
X54610000Y-45506000D02*
X52324000Y-47792000D01*
%TO.N,5V*%
X56682000Y-58206000D02*
X56642000Y-58246000D01*
X64245000Y-58206000D02*
X56682000Y-58206000D01*
%TO.N,PCF-*%
X70672497Y-47792000D02*
X70866000Y-47792000D01*
X50292000Y-44704000D02*
X50292000Y-51816000D01*
X51574000Y-40577000D02*
X51574000Y-43422000D01*
X51816000Y-53340000D02*
X65124497Y-53340000D01*
X50292000Y-51816000D02*
X51816000Y-53340000D01*
X65124497Y-53340000D02*
X70672497Y-47792000D01*
X51574000Y-43422000D02*
X50292000Y-44704000D01*
X50158000Y-39161000D02*
X51574000Y-40577000D01*
D23*
%TO.N,TH-*%
X56158000Y-39161000D02*
X56158000Y-40156000D01*
X57658000Y-41656000D02*
X57658000Y-42926000D01*
X56158000Y-40156000D02*
X57658000Y-41656000D01*
X72081106Y-45466000D02*
X73446000Y-46830894D01*
X73446000Y-46830894D02*
X73446000Y-54236000D01*
X73446000Y-54236000D02*
X75946000Y-56736000D01*
X60198000Y-45466000D02*
X72081106Y-45466000D01*
X57658000Y-42926000D02*
X60198000Y-45466000D01*
%TD*%
%TA.AperFunction,Conductor*%
%TO.N,GND*%
G36*
X65810644Y-30755996D02*
G01*
X65825476Y-30758306D01*
X65825479Y-30758306D01*
X65834348Y-30759687D01*
X65843250Y-30758523D01*
X65843254Y-30758523D01*
X65854149Y-30757098D01*
X65876384Y-30756172D01*
X66161270Y-30769525D01*
X66173016Y-30770629D01*
X66332924Y-30793245D01*
X66484998Y-30814753D01*
X66496581Y-30816948D01*
X66803078Y-30890059D01*
X66814397Y-30893326D01*
X67112718Y-30994782D01*
X67123688Y-30999095D01*
X67411212Y-31128007D01*
X67421729Y-31133326D01*
X67535773Y-31197890D01*
X67695929Y-31288559D01*
X67705911Y-31294845D01*
X67964389Y-31475039D01*
X67973741Y-31482231D01*
X68214235Y-31685812D01*
X68222872Y-31693847D01*
X68417242Y-31892432D01*
X68433045Y-31912215D01*
X68439363Y-31921999D01*
X68446153Y-31927870D01*
X68446154Y-31927871D01*
X68463441Y-31942818D01*
X68475101Y-31954306D01*
X80617573Y-45581543D01*
X80647957Y-45645709D01*
X80638827Y-45716116D01*
X80593082Y-45770411D01*
X80525245Y-45791354D01*
X80490889Y-45787073D01*
X80334185Y-45745085D01*
X80327735Y-45743714D01*
X79950372Y-45683945D01*
X79943834Y-45683259D01*
X79562302Y-45663263D01*
X79555700Y-45663263D01*
X79174168Y-45683259D01*
X79167630Y-45683945D01*
X78790267Y-45743714D01*
X78783817Y-45745085D01*
X78414785Y-45843967D01*
X78408503Y-45846008D01*
X78051837Y-45982919D01*
X78045812Y-45985601D01*
X77705398Y-46159051D01*
X77699688Y-46162348D01*
X77379266Y-46370432D01*
X77373940Y-46374302D01*
X77135166Y-46567657D01*
X77126701Y-46579912D01*
X77133035Y-46591003D01*
X82343311Y-51801279D01*
X82356833Y-51808663D01*
X82422278Y-51785664D01*
X82491352Y-51802073D01*
X82540589Y-51853222D01*
X82554357Y-51922871D01*
X82553443Y-51930412D01*
X79896835Y-69421171D01*
X79892443Y-69440105D01*
X79887927Y-69454441D01*
X79887926Y-69454445D01*
X79885230Y-69463005D01*
X79884974Y-69475393D01*
X79884911Y-69478450D01*
X79881855Y-69503549D01*
X79864524Y-69580440D01*
X79844859Y-69667685D01*
X79839701Y-69684803D01*
X79770791Y-69865840D01*
X79763264Y-69882051D01*
X79669444Y-70051475D01*
X79669423Y-70051513D01*
X79659675Y-70066497D01*
X79625914Y-70111117D01*
X79542803Y-70220960D01*
X79531031Y-70234417D01*
X79393464Y-70370791D01*
X79379906Y-70382445D01*
X79224426Y-70497973D01*
X79209354Y-70507591D01*
X79039094Y-70599946D01*
X79022817Y-70607332D01*
X78909088Y-70649493D01*
X78841192Y-70674663D01*
X78824029Y-70679673D01*
X78634704Y-70720618D01*
X78617006Y-70723148D01*
X78543058Y-70728405D01*
X78456375Y-70734568D01*
X78437519Y-70733779D01*
X78430001Y-70733687D01*
X78421128Y-70732305D01*
X78412225Y-70733469D01*
X78412224Y-70733469D01*
X78389553Y-70736433D01*
X78373219Y-70737496D01*
X67000961Y-70737496D01*
X66980056Y-70735750D01*
X66965055Y-70733226D01*
X66965052Y-70733226D01*
X66960263Y-70732420D01*
X66953948Y-70732343D01*
X66952569Y-70732326D01*
X66952566Y-70732326D01*
X66947711Y-70732267D01*
X66942907Y-70732955D01*
X66940238Y-70733129D01*
X66932021Y-70733895D01*
X66759260Y-70741438D01*
X66554396Y-70750382D01*
X66314733Y-70781933D01*
X66166798Y-70801408D01*
X66166792Y-70801409D01*
X66164073Y-70801767D01*
X65779715Y-70886977D01*
X65777090Y-70887805D01*
X65777085Y-70887806D01*
X65674992Y-70919996D01*
X65404245Y-71005361D01*
X65040523Y-71156019D01*
X64691315Y-71337804D01*
X64551422Y-71426925D01*
X64361604Y-71547851D01*
X64359279Y-71549332D01*
X64357104Y-71551001D01*
X64049111Y-71787331D01*
X64049105Y-71787336D01*
X64046943Y-71788995D01*
X63943584Y-71883705D01*
X63779550Y-72034014D01*
X63772691Y-72039564D01*
X63772713Y-72039590D01*
X63768976Y-72042713D01*
X63765006Y-72045539D01*
X63756023Y-72054307D01*
X63753108Y-72058196D01*
X63753104Y-72058201D01*
X63739283Y-72076642D01*
X63727552Y-72090172D01*
X60137775Y-75679949D01*
X60123007Y-75692596D01*
X60103631Y-75706751D01*
X60091183Y-75722945D01*
X60076324Y-75739131D01*
X59877317Y-75921138D01*
X59868714Y-75928328D01*
X59630149Y-76110303D01*
X59620947Y-76116693D01*
X59367135Y-76276690D01*
X59357394Y-76282240D01*
X59090341Y-76418996D01*
X59080125Y-76423665D01*
X58801970Y-76536088D01*
X58791378Y-76539829D01*
X58540471Y-76616049D01*
X58515907Y-76620911D01*
X58508415Y-76621631D01*
X58508410Y-76621632D01*
X58503739Y-76622081D01*
X58503735Y-76622082D01*
X58503730Y-76622083D01*
X58498375Y-76624224D01*
X58498369Y-76624226D01*
X58498042Y-76624357D01*
X58497278Y-76624550D01*
X58492849Y-76625867D01*
X58492795Y-76625686D01*
X58465828Y-76632518D01*
X58384976Y-76641926D01*
X58351198Y-76641296D01*
X58327554Y-76637648D01*
X58254653Y-76626399D01*
X58222262Y-76616819D01*
X58133136Y-76576801D01*
X58104451Y-76558955D01*
X58029171Y-76496699D01*
X58006259Y-76471875D01*
X57950223Y-76391850D01*
X57934733Y-76361836D01*
X57901973Y-76269794D01*
X57895016Y-76236739D01*
X57887890Y-76139312D01*
X57889965Y-76105590D01*
X57908984Y-76009770D01*
X57919945Y-75977813D01*
X57963741Y-75890490D01*
X57982798Y-75862595D01*
X58035333Y-75804340D01*
X58048673Y-75791568D01*
X58050505Y-75790055D01*
X58058172Y-75785375D01*
X58088689Y-75751836D01*
X58096506Y-75743970D01*
X60151139Y-73850870D01*
X60163318Y-73840977D01*
X60190635Y-73821482D01*
X60199609Y-73812704D01*
X60202526Y-73808803D01*
X60204346Y-73806724D01*
X60206942Y-73803517D01*
X60389869Y-73594457D01*
X60392151Y-73591034D01*
X60392156Y-73591027D01*
X60548146Y-73357006D01*
X60548148Y-73357002D01*
X60550438Y-73353567D01*
X60678191Y-73093779D01*
X60770942Y-72819539D01*
X60827104Y-72535539D01*
X60839514Y-72342917D01*
X60845452Y-72250758D01*
X60845452Y-72250750D01*
X60845717Y-72246637D01*
X60845443Y-72242527D01*
X60845443Y-72242519D01*
X60826735Y-71961889D01*
X60826461Y-71957778D01*
X60769667Y-71673903D01*
X60676306Y-71399870D01*
X60613241Y-71272343D01*
X60549806Y-71144069D01*
X60549804Y-71144066D01*
X60547975Y-71140367D01*
X60458256Y-71006414D01*
X60389165Y-70903259D01*
X60389160Y-70903252D01*
X60386871Y-70899835D01*
X60384154Y-70896743D01*
X60384148Y-70896736D01*
X60243251Y-70736433D01*
X60195749Y-70682388D01*
X60192653Y-70679679D01*
X60192647Y-70679673D01*
X59984994Y-70497973D01*
X59977880Y-70491748D01*
X59796422Y-70370791D01*
X59740431Y-70333468D01*
X59740427Y-70333466D01*
X59736992Y-70331176D01*
X59730684Y-70328074D01*
X59480902Y-70205237D01*
X59480894Y-70205234D01*
X59477206Y-70203420D01*
X59442229Y-70191590D01*
X59206871Y-70111986D01*
X59206865Y-70111984D01*
X59202967Y-70110666D01*
X58918967Y-70054500D01*
X58630066Y-70035883D01*
X58625955Y-70036157D01*
X58625947Y-70036157D01*
X58437874Y-70048692D01*
X58341207Y-70055135D01*
X58149112Y-70093565D01*
X58061374Y-70111117D01*
X58061371Y-70111118D01*
X58057331Y-70111926D01*
X58053433Y-70113254D01*
X58053429Y-70113255D01*
X57924738Y-70157097D01*
X57783297Y-70205283D01*
X57779600Y-70207111D01*
X57779598Y-70207112D01*
X57527486Y-70331783D01*
X57527483Y-70331785D01*
X57523792Y-70333610D01*
X57520373Y-70335900D01*
X57520366Y-70335904D01*
X57286688Y-70492413D01*
X57286681Y-70492418D01*
X57283258Y-70494711D01*
X57280162Y-70497432D01*
X57280157Y-70497436D01*
X57088553Y-70665841D01*
X57078559Y-70673765D01*
X57074436Y-70676707D01*
X57070136Y-70680913D01*
X57069917Y-70681073D01*
X57069752Y-70681288D01*
X57065462Y-70685484D01*
X57062545Y-70689385D01*
X57051399Y-70704291D01*
X57038350Y-70719150D01*
X56469677Y-71272343D01*
X56425814Y-71315012D01*
X56423088Y-71317586D01*
X55762711Y-71922742D01*
X55759954Y-71925194D01*
X55275908Y-72342917D01*
X55081867Y-72510371D01*
X55078997Y-72512775D01*
X55050971Y-72535539D01*
X54383765Y-73077487D01*
X54380815Y-73079811D01*
X53704828Y-73596227D01*
X53686860Y-73607685D01*
X53669553Y-73616761D01*
X53669549Y-73616765D01*
X53669541Y-73616769D01*
X53662639Y-73623428D01*
X53657580Y-73627006D01*
X53638630Y-73641209D01*
X53579659Y-73674885D01*
X53552205Y-73686502D01*
X53469349Y-73710482D01*
X53439936Y-73715324D01*
X53403170Y-73716964D01*
X53353762Y-73719168D01*
X53324033Y-73716964D01*
X53239370Y-73700456D01*
X53210992Y-73691330D01*
X53132577Y-73655395D01*
X53107137Y-73639858D01*
X53057864Y-73601074D01*
X53045619Y-73590066D01*
X53040932Y-73585263D01*
X53035641Y-73578020D01*
X53010384Y-73558604D01*
X52998089Y-73547810D01*
X51545938Y-72095660D01*
X51532391Y-72079644D01*
X51523573Y-72067258D01*
X51523569Y-72067253D01*
X51520748Y-72063291D01*
X51511981Y-72054307D01*
X51508086Y-72051388D01*
X51505884Y-72049455D01*
X51499864Y-72044460D01*
X51223085Y-71790841D01*
X51221065Y-71788990D01*
X51218903Y-71787331D01*
X51218897Y-71787326D01*
X50910903Y-71550996D01*
X50908728Y-71549327D01*
X50716595Y-71426925D01*
X50579006Y-71339271D01*
X50579003Y-71339269D01*
X50576692Y-71337797D01*
X50227484Y-71156012D01*
X49863760Y-71005353D01*
X49539956Y-70903259D01*
X49490920Y-70887798D01*
X49490915Y-70887797D01*
X49488290Y-70886969D01*
X49103931Y-70801759D01*
X49101212Y-70801401D01*
X49101206Y-70801400D01*
X48954198Y-70782047D01*
X48713608Y-70750373D01*
X48529070Y-70742316D01*
X48351265Y-70734553D01*
X48342494Y-70733628D01*
X48342491Y-70733663D01*
X48337651Y-70733229D01*
X48332844Y-70732420D01*
X48326326Y-70732341D01*
X48325152Y-70732326D01*
X48325149Y-70732326D01*
X48320292Y-70732267D01*
X48294350Y-70735982D01*
X48292668Y-70736223D01*
X48274806Y-70737496D01*
X36902540Y-70737496D01*
X36883152Y-70735995D01*
X36868326Y-70733686D01*
X36868319Y-70733686D01*
X36859451Y-70732305D01*
X36850548Y-70733469D01*
X36850544Y-70733469D01*
X36844125Y-70734308D01*
X36818849Y-70735054D01*
X36737534Y-70729269D01*
X36651028Y-70723115D01*
X36633331Y-70720585D01*
X36444006Y-70679633D01*
X36426845Y-70674623D01*
X36245226Y-70607291D01*
X36228957Y-70599908D01*
X36058681Y-70507541D01*
X36043617Y-70497927D01*
X35888132Y-70382394D01*
X35874583Y-70370746D01*
X35737016Y-70234371D01*
X35725245Y-70220916D01*
X35713382Y-70205237D01*
X35608374Y-70066459D01*
X35598626Y-70051475D01*
X35589992Y-70035883D01*
X35504781Y-69882013D01*
X35497252Y-69865798D01*
X35428343Y-69684778D01*
X35423185Y-69667664D01*
X35387712Y-69510312D01*
X35385795Y-69492800D01*
X35384620Y-69484367D01*
X35384653Y-69475393D01*
X35382168Y-69466774D01*
X35382167Y-69466770D01*
X35375832Y-69444802D01*
X35372328Y-69428812D01*
X33554539Y-57460732D01*
X35761435Y-57460732D01*
X35767269Y-57691203D01*
X35768300Y-57696433D01*
X35768300Y-57696435D01*
X35776513Y-57738103D01*
X35811851Y-57917398D01*
X35813749Y-57922382D01*
X35813750Y-57922385D01*
X35845890Y-58006773D01*
X35893906Y-58132847D01*
X35952413Y-58231975D01*
X35968152Y-58258640D01*
X36011090Y-58331390D01*
X36087764Y-58421961D01*
X36150029Y-58495511D01*
X36160051Y-58507350D01*
X36336530Y-58655698D01*
X36535480Y-58772189D01*
X36560336Y-58781556D01*
X36569393Y-58784970D01*
X36626083Y-58827711D01*
X36650667Y-58894316D01*
X36635339Y-58963638D01*
X36610809Y-58995101D01*
X36548238Y-59053347D01*
X36503513Y-59094980D01*
X36482820Y-59122095D01*
X36373852Y-59264878D01*
X36363645Y-59278252D01*
X36256655Y-59482468D01*
X36185603Y-59701792D01*
X36184089Y-59712236D01*
X36155814Y-59907243D01*
X36152521Y-59929953D01*
X36158355Y-60160424D01*
X36159386Y-60165654D01*
X36159386Y-60165656D01*
X36165790Y-60198148D01*
X36202937Y-60386619D01*
X36284992Y-60602068D01*
X36311574Y-60647105D01*
X36398942Y-60795131D01*
X36402176Y-60800611D01*
X36551137Y-60976571D01*
X36727616Y-61124919D01*
X36926566Y-61241410D01*
X36951422Y-61250777D01*
X36960479Y-61254191D01*
X37017169Y-61296932D01*
X37041753Y-61363537D01*
X37026425Y-61432859D01*
X37001895Y-61464322D01*
X36902031Y-61557283D01*
X36894599Y-61564201D01*
X36891358Y-61568448D01*
X36770484Y-61726832D01*
X36754731Y-61747473D01*
X36647741Y-61951689D01*
X36576689Y-62171013D01*
X36575113Y-62181882D01*
X36547771Y-62370457D01*
X36543607Y-62399174D01*
X36549441Y-62629645D01*
X36550472Y-62634875D01*
X36550472Y-62634877D01*
X36564980Y-62708486D01*
X36594023Y-62855840D01*
X36595921Y-62860824D01*
X36595922Y-62860827D01*
X36609640Y-62896846D01*
X36676078Y-63071289D01*
X36793262Y-63269832D01*
X36942223Y-63445792D01*
X37118702Y-63594140D01*
X37123313Y-63596840D01*
X37123316Y-63596842D01*
X37158479Y-63617431D01*
X37207158Y-63669112D01*
X37220168Y-63738906D01*
X37193379Y-63804655D01*
X37177063Y-63821615D01*
X37094049Y-63893146D01*
X37047101Y-63933600D01*
X36943264Y-64076781D01*
X36940448Y-64083530D01*
X36940446Y-64083533D01*
X36879224Y-64230247D01*
X36875150Y-64240011D01*
X36861293Y-64324171D01*
X36848851Y-64399739D01*
X36846415Y-64414532D01*
X36846793Y-64421402D01*
X36846793Y-64421403D01*
X36847721Y-64438260D01*
X36852185Y-64519381D01*
X36852686Y-64522543D01*
X36852686Y-64522545D01*
X36865534Y-64603662D01*
X37055675Y-65804166D01*
X37083060Y-65906913D01*
X37086236Y-65913028D01*
X37086238Y-65913032D01*
X37132051Y-66001225D01*
X37164593Y-66063871D01*
X37169370Y-66069415D01*
X37275266Y-66192314D01*
X37275269Y-66192316D01*
X37280047Y-66197862D01*
X37285978Y-66202163D01*
X37417303Y-66297401D01*
X37417306Y-66297403D01*
X37423229Y-66301698D01*
X37429982Y-66304516D01*
X37429984Y-66304517D01*
X37579703Y-66366993D01*
X37586459Y-66369812D01*
X37713784Y-66390776D01*
X37754188Y-66397429D01*
X37754189Y-66397429D01*
X37760979Y-66398547D01*
X37767849Y-66398169D01*
X37767850Y-66398169D01*
X37836816Y-66394374D01*
X37865829Y-66392777D01*
X37868991Y-66392276D01*
X37868993Y-66392276D01*
X39394329Y-66150686D01*
X39394330Y-66150686D01*
X39397536Y-66150178D01*
X39500283Y-66122794D01*
X39657241Y-66041261D01*
X39791231Y-65925806D01*
X39895068Y-65782625D01*
X39963182Y-65619395D01*
X39991917Y-65444874D01*
X39986147Y-65340025D01*
X39872502Y-64622500D01*
X39881602Y-64552089D01*
X39907856Y-64513694D01*
X41636911Y-62784639D01*
X41651323Y-62772253D01*
X41662918Y-62763720D01*
X41662923Y-62763715D01*
X41668818Y-62759377D01*
X41673557Y-62753799D01*
X41673560Y-62753796D01*
X41703035Y-62719101D01*
X41709965Y-62711585D01*
X41715660Y-62705890D01*
X41733281Y-62683618D01*
X41736072Y-62680214D01*
X41778591Y-62630166D01*
X41778592Y-62630164D01*
X41783333Y-62624584D01*
X41786661Y-62618068D01*
X41790028Y-62613019D01*
X41793195Y-62607890D01*
X41797734Y-62602153D01*
X41828655Y-62535994D01*
X41830561Y-62532094D01*
X41863769Y-62467061D01*
X41865508Y-62459953D01*
X41867607Y-62454310D01*
X41869524Y-62448547D01*
X41872622Y-62441919D01*
X41887487Y-62370452D01*
X41888457Y-62366168D01*
X41900429Y-62317243D01*
X41905808Y-62295259D01*
X41906500Y-62284105D01*
X41906536Y-62284107D01*
X41906775Y-62280114D01*
X41907149Y-62275922D01*
X41908640Y-62268754D01*
X41906546Y-62191348D01*
X41906500Y-62187941D01*
X41906500Y-51686046D01*
X41926502Y-51617925D01*
X41980158Y-51571432D01*
X42050432Y-51561328D01*
X42094365Y-51577245D01*
X42094395Y-51577180D01*
X42095127Y-51577521D01*
X42098612Y-51578784D01*
X42101027Y-51580272D01*
X42101029Y-51580273D01*
X42107262Y-51584115D01*
X42187005Y-51610564D01*
X42268611Y-51637632D01*
X42268613Y-51637632D01*
X42275139Y-51639797D01*
X42281975Y-51640497D01*
X42281978Y-51640498D01*
X42325031Y-51644909D01*
X42379600Y-51650500D01*
X43980400Y-51650500D01*
X43983646Y-51650163D01*
X43983650Y-51650163D01*
X44079308Y-51640238D01*
X44079312Y-51640237D01*
X44086166Y-51639526D01*
X44092702Y-51637345D01*
X44092704Y-51637345D01*
X44224806Y-51593272D01*
X44253946Y-51583550D01*
X44404348Y-51490478D01*
X44413242Y-51481569D01*
X44524134Y-51370483D01*
X44529305Y-51365303D01*
X44622115Y-51214738D01*
X44677797Y-51046861D01*
X44688500Y-50942400D01*
X44688500Y-49641600D01*
X44688163Y-49638350D01*
X44678238Y-49542692D01*
X44678237Y-49542688D01*
X44677526Y-49535834D01*
X44621550Y-49368054D01*
X44528478Y-49217652D01*
X44403303Y-49092695D01*
X44257660Y-49002919D01*
X44210168Y-48950148D01*
X44198744Y-48880076D01*
X44227018Y-48814952D01*
X44236805Y-48804490D01*
X44347278Y-48699103D01*
X44351135Y-48695424D01*
X44488754Y-48510458D01*
X44593240Y-48304949D01*
X44629321Y-48188752D01*
X44660024Y-48089871D01*
X44661607Y-48084773D01*
X44674323Y-47988829D01*
X44691198Y-47861511D01*
X44691198Y-47861506D01*
X44691898Y-47856226D01*
X44683249Y-47625842D01*
X44635907Y-47400209D01*
X44555436Y-47196444D01*
X44553185Y-47190744D01*
X44553184Y-47190742D01*
X44551224Y-47185779D01*
X44506711Y-47112423D01*
X44434390Y-46993243D01*
X44431623Y-46988683D01*
X44398241Y-46950213D01*
X44284023Y-46818588D01*
X44284021Y-46818586D01*
X44280523Y-46814555D01*
X44183478Y-46734983D01*
X44106373Y-46671760D01*
X44106367Y-46671756D01*
X44102245Y-46668376D01*
X44097609Y-46665737D01*
X44097606Y-46665735D01*
X43906529Y-46556968D01*
X43901886Y-46554325D01*
X43685175Y-46475663D01*
X43679926Y-46474714D01*
X43679923Y-46474713D01*
X43462392Y-46435377D01*
X43462385Y-46435376D01*
X43458308Y-46434639D01*
X43440586Y-46433803D01*
X43435644Y-46433570D01*
X43435637Y-46433570D01*
X43434156Y-46433500D01*
X42972110Y-46433500D01*
X42905191Y-46439178D01*
X42805591Y-46447629D01*
X42805587Y-46447630D01*
X42800280Y-46448080D01*
X42795125Y-46449418D01*
X42795119Y-46449419D01*
X42582297Y-46504657D01*
X42582293Y-46504658D01*
X42577128Y-46505999D01*
X42572262Y-46508191D01*
X42572259Y-46508192D01*
X42438544Y-46568426D01*
X42366925Y-46600688D01*
X42175681Y-46729441D01*
X42171824Y-46733120D01*
X42171822Y-46733122D01*
X42119472Y-46783062D01*
X42056375Y-46815609D01*
X41985699Y-46808878D01*
X41929881Y-46765004D01*
X41906500Y-46691892D01*
X41906500Y-43292371D01*
X41926502Y-43224250D01*
X41943405Y-43203276D01*
X45650405Y-39496276D01*
X45712717Y-39462250D01*
X45783532Y-39467315D01*
X45840368Y-39509862D01*
X45865179Y-39576382D01*
X45865500Y-39585371D01*
X45865500Y-39711400D01*
X45865837Y-39714646D01*
X45865837Y-39714650D01*
X45874399Y-39797162D01*
X45876474Y-39817165D01*
X45878655Y-39823701D01*
X45878655Y-39823703D01*
X45922728Y-39955805D01*
X45932450Y-39984945D01*
X46025522Y-40135348D01*
X46150697Y-40260305D01*
X46156927Y-40264145D01*
X46156928Y-40264146D01*
X46294705Y-40349073D01*
X46301262Y-40353115D01*
X46334487Y-40364135D01*
X46392846Y-40404566D01*
X46420083Y-40470130D01*
X46407549Y-40540012D01*
X46359225Y-40592023D01*
X46347570Y-40598154D01*
X46303072Y-40618668D01*
X46272305Y-40638840D01*
X46088404Y-40759410D01*
X46088399Y-40759414D01*
X46084491Y-40761976D01*
X45889494Y-40936018D01*
X45722363Y-41136970D01*
X45719934Y-41140973D01*
X45601302Y-41336473D01*
X45586771Y-41360419D01*
X45485697Y-41601455D01*
X45421359Y-41854783D01*
X45399500Y-42071867D01*
X45399500Y-53915415D01*
X45379498Y-53983536D01*
X45362595Y-54004510D01*
X45301378Y-54065727D01*
X45296184Y-54070635D01*
X45244889Y-54116418D01*
X45237494Y-54123018D01*
X45181876Y-54189892D01*
X45164455Y-54210838D01*
X45163057Y-54212490D01*
X45088454Y-54299071D01*
X45085959Y-54303026D01*
X45084635Y-54305124D01*
X45074949Y-54318455D01*
X45073352Y-54320375D01*
X45073346Y-54320383D01*
X45070363Y-54323970D01*
X45063243Y-54335703D01*
X45011071Y-54421679D01*
X45009914Y-54423548D01*
X44948983Y-54520119D01*
X44947101Y-54524396D01*
X44947100Y-54524398D01*
X44946099Y-54526673D01*
X44938490Y-54541290D01*
X44934771Y-54547419D01*
X44932962Y-54551733D01*
X44890603Y-54652748D01*
X44889735Y-54654769D01*
X44843716Y-54759355D01*
X44842487Y-54763862D01*
X44842484Y-54763871D01*
X44841830Y-54766271D01*
X44836467Y-54781848D01*
X44833697Y-54788455D01*
X44832547Y-54792983D01*
X44832546Y-54792986D01*
X44805578Y-54899173D01*
X44805020Y-54901291D01*
X44774968Y-55011521D01*
X44774419Y-55016161D01*
X44774418Y-55016166D01*
X44774127Y-55018627D01*
X44771122Y-55034843D01*
X44769359Y-55041783D01*
X44764368Y-55091344D01*
X44757915Y-55155428D01*
X44757676Y-55157613D01*
X44747050Y-55247394D01*
X44744247Y-55271080D01*
X44747038Y-55362400D01*
X44747441Y-55375591D01*
X44747500Y-55379440D01*
X44747500Y-56802354D01*
X44747673Y-56804679D01*
X44747673Y-56804685D01*
X44747681Y-56804784D01*
X44761939Y-56996652D01*
X44762968Y-57001200D01*
X44762969Y-57001206D01*
X44794941Y-57142500D01*
X44819623Y-57251577D01*
X44821315Y-57255929D01*
X44821316Y-57255931D01*
X44904693Y-57470335D01*
X44914353Y-57495177D01*
X45044049Y-57722098D01*
X45205862Y-57927357D01*
X45396237Y-58106443D01*
X45508431Y-58184275D01*
X45597453Y-58246032D01*
X45610991Y-58255424D01*
X45615181Y-58257490D01*
X45615184Y-58257492D01*
X45841219Y-58368960D01*
X45841222Y-58368961D01*
X45845407Y-58371025D01*
X45849850Y-58372447D01*
X45849852Y-58372448D01*
X46004532Y-58421961D01*
X46094335Y-58450707D01*
X46352307Y-58492721D01*
X46466058Y-58494210D01*
X46608978Y-58496081D01*
X46608981Y-58496081D01*
X46613655Y-58496142D01*
X46750897Y-58477464D01*
X46821091Y-58488097D01*
X46856982Y-58513218D01*
X47320948Y-58977184D01*
X47354974Y-59039496D01*
X47349909Y-59110311D01*
X47307362Y-59167147D01*
X47274947Y-59184680D01*
X47191219Y-59215154D01*
X47191215Y-59215156D01*
X47187074Y-59216663D01*
X46939058Y-59348536D01*
X46935499Y-59351122D01*
X46935497Y-59351123D01*
X46752968Y-59483738D01*
X46711808Y-59513642D01*
X46708644Y-59516698D01*
X46708641Y-59516700D01*
X46640632Y-59582376D01*
X46509748Y-59708769D01*
X46336812Y-59930118D01*
X46334616Y-59933922D01*
X46334611Y-59933929D01*
X46253020Y-60075250D01*
X46196364Y-60173381D01*
X46091138Y-60433824D01*
X46090073Y-60438097D01*
X46090072Y-60438099D01*
X46054732Y-60579842D01*
X46023183Y-60706376D01*
X46022724Y-60710744D01*
X46022723Y-60710749D01*
X46011257Y-60819846D01*
X45993822Y-60985733D01*
X45993975Y-60990121D01*
X45993975Y-60990127D01*
X46003363Y-61258949D01*
X46003625Y-61266458D01*
X46004387Y-61270781D01*
X46004388Y-61270788D01*
X46027965Y-61404500D01*
X46052402Y-61543087D01*
X46139203Y-61810235D01*
X46141131Y-61814188D01*
X46141133Y-61814193D01*
X46184262Y-61902619D01*
X46262340Y-62062702D01*
X46264795Y-62066341D01*
X46264798Y-62066347D01*
X46313259Y-62138193D01*
X46419415Y-62295576D01*
X46607371Y-62504322D01*
X46610733Y-62507143D01*
X46610734Y-62507144D01*
X46640468Y-62532094D01*
X46822550Y-62684879D01*
X47060764Y-62833731D01*
X47194484Y-62893267D01*
X47313227Y-62946135D01*
X47317375Y-62947982D01*
X47587390Y-63025407D01*
X47591740Y-63026018D01*
X47591743Y-63026019D01*
X47694690Y-63040487D01*
X47865552Y-63064500D01*
X48076146Y-63064500D01*
X48078332Y-63064347D01*
X48078336Y-63064347D01*
X48281827Y-63050118D01*
X48281832Y-63050117D01*
X48286212Y-63049811D01*
X48560970Y-62991409D01*
X48565099Y-62989906D01*
X48565103Y-62989905D01*
X48820781Y-62896846D01*
X48820785Y-62896844D01*
X48824926Y-62895337D01*
X49072942Y-62763464D01*
X49076503Y-62760877D01*
X49296629Y-62600947D01*
X49296632Y-62600944D01*
X49300192Y-62598358D01*
X49306377Y-62592386D01*
X49417878Y-62484710D01*
X49502252Y-62403231D01*
X49644343Y-62221362D01*
X49672481Y-62185347D01*
X49672482Y-62185346D01*
X49675188Y-62181882D01*
X49677384Y-62178078D01*
X49677389Y-62178071D01*
X49791206Y-61980933D01*
X49815636Y-61938619D01*
X49920862Y-61678176D01*
X49921928Y-61673901D01*
X49987753Y-61409893D01*
X49987754Y-61409888D01*
X49988817Y-61405624D01*
X49990792Y-61386838D01*
X50017719Y-61130636D01*
X50017719Y-61130633D01*
X50018178Y-61126267D01*
X50017002Y-61092572D01*
X50013424Y-60990127D01*
X50009879Y-60888622D01*
X50027491Y-60819846D01*
X50079491Y-60771509D01*
X50149370Y-60758959D01*
X50214941Y-60786180D01*
X50224897Y-60795131D01*
X53678075Y-64248309D01*
X53680452Y-64250262D01*
X53680457Y-64250266D01*
X53721734Y-64284171D01*
X53792261Y-64342103D01*
X53966563Y-64435563D01*
X54009699Y-64448751D01*
X54149800Y-64491585D01*
X54149802Y-64491585D01*
X54155698Y-64493388D01*
X54180164Y-64495873D01*
X54346335Y-64512752D01*
X54346339Y-64512752D01*
X54352463Y-64513374D01*
X54461396Y-64503077D01*
X54543230Y-64495342D01*
X54543234Y-64495341D01*
X54549362Y-64494762D01*
X54555260Y-64493004D01*
X54555264Y-64493003D01*
X54732993Y-64440020D01*
X54732995Y-64440019D01*
X54738896Y-64438260D01*
X54913847Y-64346018D01*
X54990222Y-64284171D01*
X55062758Y-64225432D01*
X55062759Y-64225431D01*
X55067548Y-64221553D01*
X55071493Y-64216818D01*
X55072999Y-64215333D01*
X55135548Y-64181744D01*
X55206326Y-64187304D01*
X55262863Y-64230247D01*
X55268614Y-64238746D01*
X55315063Y-64313807D01*
X55324099Y-64325208D01*
X55438829Y-64439739D01*
X55450240Y-64448751D01*
X55588243Y-64533816D01*
X55601424Y-64539963D01*
X55755710Y-64591138D01*
X55769086Y-64594005D01*
X55863438Y-64603672D01*
X55869854Y-64604000D01*
X56369885Y-64604000D01*
X56385124Y-64599525D01*
X56386329Y-64598135D01*
X56388000Y-64590452D01*
X56388000Y-64585884D01*
X56896000Y-64585884D01*
X56900475Y-64601123D01*
X56901865Y-64602328D01*
X56909548Y-64603999D01*
X57414095Y-64603999D01*
X57420614Y-64603662D01*
X57516206Y-64593743D01*
X57529600Y-64590851D01*
X57683784Y-64539412D01*
X57696962Y-64533239D01*
X57834807Y-64447937D01*
X57846208Y-64438901D01*
X57960739Y-64324171D01*
X57969751Y-64312760D01*
X58054816Y-64174757D01*
X58060963Y-64161576D01*
X58112138Y-64007290D01*
X58115005Y-63993914D01*
X58124672Y-63899562D01*
X58125000Y-63893146D01*
X58125000Y-63853095D01*
X62762001Y-63853095D01*
X62762338Y-63859614D01*
X62772257Y-63955206D01*
X62775149Y-63968600D01*
X62826588Y-64122784D01*
X62832761Y-64135962D01*
X62918063Y-64273807D01*
X62927099Y-64285208D01*
X63041829Y-64399739D01*
X63053240Y-64408751D01*
X63191243Y-64493816D01*
X63204424Y-64499963D01*
X63358710Y-64551138D01*
X63372086Y-64554005D01*
X63466438Y-64563672D01*
X63472854Y-64564000D01*
X63972885Y-64564000D01*
X63988124Y-64559525D01*
X63989329Y-64558135D01*
X63991000Y-64550452D01*
X63991000Y-64545884D01*
X64499000Y-64545884D01*
X64503475Y-64561123D01*
X64504865Y-64562328D01*
X64512548Y-64563999D01*
X65017095Y-64563999D01*
X65023614Y-64563662D01*
X65119206Y-64553743D01*
X65132600Y-64550851D01*
X65286784Y-64499412D01*
X65299962Y-64493239D01*
X65437807Y-64407937D01*
X65449208Y-64398901D01*
X65563739Y-64284171D01*
X65572751Y-64272760D01*
X65657816Y-64134757D01*
X65663963Y-64121576D01*
X65715138Y-63967290D01*
X65718005Y-63953914D01*
X65727672Y-63859562D01*
X65728000Y-63853146D01*
X65728000Y-63478115D01*
X65723525Y-63462876D01*
X65722135Y-63461671D01*
X65714452Y-63460000D01*
X64517115Y-63460000D01*
X64501876Y-63464475D01*
X64500671Y-63465865D01*
X64499000Y-63473548D01*
X64499000Y-64545884D01*
X63991000Y-64545884D01*
X63991000Y-63478115D01*
X63986525Y-63462876D01*
X63985135Y-63461671D01*
X63977452Y-63460000D01*
X62780116Y-63460000D01*
X62764877Y-63464475D01*
X62763672Y-63465865D01*
X62762001Y-63473548D01*
X62762001Y-63853095D01*
X58125000Y-63853095D01*
X58125000Y-63518115D01*
X58120525Y-63502876D01*
X58119135Y-63501671D01*
X58111452Y-63500000D01*
X56914115Y-63500000D01*
X56898876Y-63504475D01*
X56897671Y-63505865D01*
X56896000Y-63513548D01*
X56896000Y-64585884D01*
X56388000Y-64585884D01*
X56388000Y-63118000D01*
X56408002Y-63049879D01*
X56461658Y-63003386D01*
X56514000Y-62992000D01*
X58106884Y-62992000D01*
X58122123Y-62987525D01*
X58123328Y-62986135D01*
X58124999Y-62978452D01*
X58124999Y-62598905D01*
X58124662Y-62592386D01*
X58114743Y-62496794D01*
X58111851Y-62483400D01*
X58060412Y-62329216D01*
X58054239Y-62316038D01*
X57968937Y-62178193D01*
X57959901Y-62166792D01*
X57845171Y-62052261D01*
X57833757Y-62043247D01*
X57694287Y-61957277D01*
X57646793Y-61904505D01*
X57635369Y-61834434D01*
X57663643Y-61769310D01*
X57673430Y-61758847D01*
X57680390Y-61752208D01*
X57788135Y-61649424D01*
X57810329Y-61619595D01*
X57922568Y-61468740D01*
X57925754Y-61464458D01*
X57943461Y-61429632D01*
X58010928Y-61296932D01*
X58030240Y-61258949D01*
X58042661Y-61218949D01*
X58097024Y-61043871D01*
X58098607Y-61038773D01*
X58103233Y-61003871D01*
X58128198Y-60815511D01*
X58128198Y-60815506D01*
X58128898Y-60810226D01*
X58128365Y-60796015D01*
X58120449Y-60585173D01*
X58120249Y-60579842D01*
X58105810Y-60511023D01*
X58074002Y-60359428D01*
X58072907Y-60354209D01*
X58009262Y-60193051D01*
X57990185Y-60144744D01*
X57990184Y-60144742D01*
X57988224Y-60139779D01*
X57963952Y-60099779D01*
X57871390Y-59947243D01*
X57868623Y-59942683D01*
X57781755Y-59842576D01*
X57721023Y-59772588D01*
X57721021Y-59772586D01*
X57717523Y-59768555D01*
X57629912Y-59696718D01*
X57543373Y-59625760D01*
X57543367Y-59625756D01*
X57539245Y-59622376D01*
X57507750Y-59604448D01*
X57458445Y-59553368D01*
X57444583Y-59483738D01*
X57470566Y-59417667D01*
X57499716Y-59390427D01*
X57518669Y-59377667D01*
X57621319Y-59308559D01*
X57648126Y-59282987D01*
X57683407Y-59249330D01*
X57746504Y-59216783D01*
X57770379Y-59214500D01*
X63162299Y-59214500D01*
X63230420Y-59234502D01*
X63242190Y-59243066D01*
X63343627Y-59326240D01*
X63343633Y-59326244D01*
X63347755Y-59329624D01*
X63379250Y-59347552D01*
X63428555Y-59398632D01*
X63442417Y-59468262D01*
X63416434Y-59534333D01*
X63387284Y-59561573D01*
X63265681Y-59643441D01*
X63098865Y-59802576D01*
X63095682Y-59806854D01*
X63071841Y-59838897D01*
X62961246Y-59987542D01*
X62958830Y-59992293D01*
X62958828Y-59992297D01*
X62927838Y-60053250D01*
X62856760Y-60193051D01*
X62855178Y-60198145D01*
X62855177Y-60198148D01*
X62808259Y-60349248D01*
X62788393Y-60413227D01*
X62787692Y-60418516D01*
X62763365Y-60602068D01*
X62758102Y-60641774D01*
X62766751Y-60872158D01*
X62814093Y-61097791D01*
X62816051Y-61102750D01*
X62816052Y-61102752D01*
X62879616Y-61263704D01*
X62898776Y-61312221D01*
X63018377Y-61509317D01*
X63021874Y-61513347D01*
X63164905Y-61678176D01*
X63169477Y-61683445D01*
X63173608Y-61686832D01*
X63205529Y-61713006D01*
X63245524Y-61771666D01*
X63247455Y-61842636D01*
X63210710Y-61903384D01*
X63191941Y-61917584D01*
X63052193Y-62004063D01*
X63040792Y-62013099D01*
X62926261Y-62127829D01*
X62917249Y-62139240D01*
X62832184Y-62277243D01*
X62826037Y-62290424D01*
X62774862Y-62444710D01*
X62771995Y-62458086D01*
X62762328Y-62552438D01*
X62762000Y-62558855D01*
X62762000Y-62933885D01*
X62766475Y-62949124D01*
X62767865Y-62950329D01*
X62775548Y-62952000D01*
X65709884Y-62952000D01*
X65725123Y-62947525D01*
X65726328Y-62946135D01*
X65727999Y-62938452D01*
X65727999Y-62558905D01*
X65727662Y-62552386D01*
X65717743Y-62456794D01*
X65714851Y-62443400D01*
X65663412Y-62289216D01*
X65657239Y-62276038D01*
X65571937Y-62138193D01*
X65562901Y-62126792D01*
X65448171Y-62012261D01*
X65436757Y-62003247D01*
X65297287Y-61917277D01*
X65249793Y-61864505D01*
X65238369Y-61794434D01*
X65266643Y-61729310D01*
X65276430Y-61718847D01*
X65309991Y-61686832D01*
X65391135Y-61609424D01*
X65528754Y-61424458D01*
X65536160Y-61409893D01*
X65610485Y-61263704D01*
X65633240Y-61218949D01*
X65662438Y-61124919D01*
X65700024Y-61003871D01*
X65701607Y-60998773D01*
X65703335Y-60985733D01*
X72433822Y-60985733D01*
X72433975Y-60990121D01*
X72433975Y-60990127D01*
X72443363Y-61258949D01*
X72443625Y-61266458D01*
X72444387Y-61270781D01*
X72444388Y-61270788D01*
X72467965Y-61404500D01*
X72492402Y-61543087D01*
X72579203Y-61810235D01*
X72581131Y-61814188D01*
X72581133Y-61814193D01*
X72624262Y-61902619D01*
X72702340Y-62062702D01*
X72704795Y-62066341D01*
X72704798Y-62066347D01*
X72753259Y-62138193D01*
X72859415Y-62295576D01*
X73047371Y-62504322D01*
X73050733Y-62507143D01*
X73050734Y-62507144D01*
X73080468Y-62532094D01*
X73262550Y-62684879D01*
X73500764Y-62833731D01*
X73634484Y-62893267D01*
X73753227Y-62946135D01*
X73757375Y-62947982D01*
X74027390Y-63025407D01*
X74031740Y-63026018D01*
X74031743Y-63026019D01*
X74134690Y-63040487D01*
X74305552Y-63064500D01*
X74516146Y-63064500D01*
X74518332Y-63064347D01*
X74518336Y-63064347D01*
X74721827Y-63050118D01*
X74721832Y-63050117D01*
X74726212Y-63049811D01*
X75000970Y-62991409D01*
X75005099Y-62989906D01*
X75005103Y-62989905D01*
X75260781Y-62896846D01*
X75260785Y-62896844D01*
X75264926Y-62895337D01*
X75512942Y-62763464D01*
X75516503Y-62760877D01*
X75736629Y-62600947D01*
X75736632Y-62600944D01*
X75740192Y-62598358D01*
X75746377Y-62592386D01*
X75857878Y-62484710D01*
X75942252Y-62403231D01*
X76084343Y-62221362D01*
X76112481Y-62185347D01*
X76112482Y-62185346D01*
X76115188Y-62181882D01*
X76117384Y-62178078D01*
X76117389Y-62178071D01*
X76231206Y-61980933D01*
X76255636Y-61938619D01*
X76360862Y-61678176D01*
X76361928Y-61673901D01*
X76427753Y-61409893D01*
X76427754Y-61409888D01*
X76428817Y-61405624D01*
X76430792Y-61386838D01*
X76457719Y-61130636D01*
X76457719Y-61130633D01*
X76458178Y-61126267D01*
X76457184Y-61097791D01*
X76448529Y-60849939D01*
X76448528Y-60849933D01*
X76448375Y-60845542D01*
X76443845Y-60819846D01*
X76400360Y-60573236D01*
X76399598Y-60568913D01*
X76312797Y-60301765D01*
X76302538Y-60280730D01*
X76231566Y-60135217D01*
X76189660Y-60049298D01*
X76187205Y-60045659D01*
X76187202Y-60045653D01*
X76053110Y-59846854D01*
X76032585Y-59816424D01*
X75989484Y-59768555D01*
X75847566Y-59610940D01*
X75844629Y-59607678D01*
X75811332Y-59579738D01*
X75712768Y-59497033D01*
X75629450Y-59427121D01*
X75391236Y-59278269D01*
X75185136Y-59186507D01*
X75138639Y-59165805D01*
X75138637Y-59165804D01*
X75134625Y-59164018D01*
X74944232Y-59109424D01*
X74868837Y-59087805D01*
X74868836Y-59087805D01*
X74864610Y-59086593D01*
X74860260Y-59085982D01*
X74860257Y-59085981D01*
X74757310Y-59071513D01*
X74586448Y-59047500D01*
X74375854Y-59047500D01*
X74373668Y-59047653D01*
X74373664Y-59047653D01*
X74170173Y-59061882D01*
X74170168Y-59061883D01*
X74165788Y-59062189D01*
X73891030Y-59120591D01*
X73886901Y-59122094D01*
X73886897Y-59122095D01*
X73631219Y-59215154D01*
X73631215Y-59215156D01*
X73627074Y-59216663D01*
X73379058Y-59348536D01*
X73375499Y-59351122D01*
X73375497Y-59351123D01*
X73192968Y-59483738D01*
X73151808Y-59513642D01*
X73148644Y-59516698D01*
X73148641Y-59516700D01*
X73080632Y-59582376D01*
X72949748Y-59708769D01*
X72776812Y-59930118D01*
X72774616Y-59933922D01*
X72774611Y-59933929D01*
X72693020Y-60075250D01*
X72636364Y-60173381D01*
X72531138Y-60433824D01*
X72530073Y-60438097D01*
X72530072Y-60438099D01*
X72494732Y-60579842D01*
X72463183Y-60706376D01*
X72462724Y-60710744D01*
X72462723Y-60710749D01*
X72451257Y-60819846D01*
X72433822Y-60985733D01*
X65703335Y-60985733D01*
X65716206Y-60888623D01*
X65731198Y-60775511D01*
X65731198Y-60775506D01*
X65731898Y-60770226D01*
X65723249Y-60539842D01*
X65675907Y-60314209D01*
X65670993Y-60301765D01*
X65593185Y-60104744D01*
X65593184Y-60104742D01*
X65591224Y-60099779D01*
X65576340Y-60075250D01*
X65474390Y-59907243D01*
X65471623Y-59902683D01*
X65384755Y-59802576D01*
X65324023Y-59732588D01*
X65324021Y-59732586D01*
X65320523Y-59728555D01*
X65261868Y-59680461D01*
X65146373Y-59585760D01*
X65146367Y-59585756D01*
X65142245Y-59582376D01*
X65110750Y-59564448D01*
X65061445Y-59513368D01*
X65047583Y-59443738D01*
X65073566Y-59377667D01*
X65102716Y-59350427D01*
X65160478Y-59311539D01*
X65224319Y-59268559D01*
X65251043Y-59243066D01*
X65330626Y-59167147D01*
X65391135Y-59109424D01*
X65528754Y-58924458D01*
X65564835Y-58853493D01*
X65620601Y-58743808D01*
X65633240Y-58718949D01*
X65643599Y-58685590D01*
X65700024Y-58503871D01*
X65701607Y-58498773D01*
X65708167Y-58449280D01*
X65731198Y-58275511D01*
X65731198Y-58275506D01*
X65731898Y-58270226D01*
X65728778Y-58187105D01*
X65725749Y-58106443D01*
X65723249Y-58039842D01*
X65675907Y-57814209D01*
X65656122Y-57764110D01*
X65593185Y-57604744D01*
X65593184Y-57604742D01*
X65591224Y-57599779D01*
X65581254Y-57583348D01*
X65474390Y-57407243D01*
X65471623Y-57402683D01*
X65468131Y-57398659D01*
X65468126Y-57398652D01*
X65426845Y-57351081D01*
X65397305Y-57286521D01*
X65407359Y-57216240D01*
X65453813Y-57162551D01*
X65522010Y-57142500D01*
X66078074Y-57142500D01*
X66146195Y-57162502D01*
X66167169Y-57179404D01*
X66418806Y-57431040D01*
X66632075Y-57644309D01*
X66746261Y-57738103D01*
X66766071Y-57748725D01*
X66898896Y-57819945D01*
X66920563Y-57831563D01*
X67029219Y-57864783D01*
X67103800Y-57887585D01*
X67103802Y-57887585D01*
X67109698Y-57889388D01*
X67128926Y-57891341D01*
X67300335Y-57908752D01*
X67300339Y-57908752D01*
X67306463Y-57909374D01*
X67503362Y-57890762D01*
X67509257Y-57889005D01*
X67509260Y-57889004D01*
X67686992Y-57836019D01*
X67686991Y-57836019D01*
X67692896Y-57834259D01*
X67867847Y-57742018D01*
X67878921Y-57733051D01*
X68016758Y-57621432D01*
X68016759Y-57621431D01*
X68021548Y-57617553D01*
X68078166Y-57549598D01*
X68144206Y-57470335D01*
X68144209Y-57470330D01*
X68148147Y-57465604D01*
X68242822Y-57291959D01*
X68301965Y-57103232D01*
X68307422Y-57052999D01*
X68322660Y-56912737D01*
X68322660Y-56912733D01*
X68323325Y-56906612D01*
X68306087Y-56709587D01*
X68250909Y-56519664D01*
X68159892Y-56344074D01*
X68102269Y-56271891D01*
X68065460Y-56225781D01*
X68065457Y-56225778D01*
X68063262Y-56223028D01*
X67304855Y-55464621D01*
X67295753Y-55454478D01*
X67275897Y-55429782D01*
X67272032Y-55424975D01*
X67233578Y-55392708D01*
X67229931Y-55389528D01*
X67228119Y-55387885D01*
X67225925Y-55385691D01*
X67192651Y-55358358D01*
X67191853Y-55357696D01*
X67120526Y-55297846D01*
X67115856Y-55295278D01*
X67111739Y-55291897D01*
X67053855Y-55260860D01*
X67029914Y-55248023D01*
X67028755Y-55247394D01*
X66952619Y-55205538D01*
X66952611Y-55205535D01*
X66947213Y-55202567D01*
X66942131Y-55200955D01*
X66937437Y-55198438D01*
X66848469Y-55171238D01*
X66847441Y-55170918D01*
X66758694Y-55142765D01*
X66753398Y-55142171D01*
X66748302Y-55140613D01*
X66655743Y-55131210D01*
X66654607Y-55131089D01*
X66620992Y-55127319D01*
X66608270Y-55125892D01*
X66608266Y-55125892D01*
X66604773Y-55125500D01*
X66601246Y-55125500D01*
X66600261Y-55125445D01*
X66594581Y-55124998D01*
X66565175Y-55122011D01*
X66557663Y-55121248D01*
X66557661Y-55121248D01*
X66551538Y-55120626D01*
X66509259Y-55124623D01*
X66505891Y-55124941D01*
X66494033Y-55125500D01*
X60513850Y-55125500D01*
X60500242Y-55124763D01*
X60499662Y-55124700D01*
X60462612Y-55120675D01*
X60412570Y-55125053D01*
X60407788Y-55125379D01*
X60405310Y-55125500D01*
X60402231Y-55125500D01*
X60399177Y-55125799D01*
X60399166Y-55125800D01*
X60359529Y-55129687D01*
X60358215Y-55129809D01*
X60322688Y-55132917D01*
X60265587Y-55137913D01*
X60260468Y-55139400D01*
X60255167Y-55139920D01*
X60166166Y-55166791D01*
X60165033Y-55167126D01*
X60081586Y-55191370D01*
X60081582Y-55191372D01*
X60075664Y-55193091D01*
X60070932Y-55195544D01*
X60065831Y-55197084D01*
X60060388Y-55199978D01*
X59983740Y-55240731D01*
X59982574Y-55241343D01*
X59929482Y-55268864D01*
X59900074Y-55284108D01*
X59895911Y-55287431D01*
X59891204Y-55289934D01*
X59886429Y-55293828D01*
X59886428Y-55293829D01*
X59819102Y-55348739D01*
X59818075Y-55349567D01*
X59781792Y-55378531D01*
X59781787Y-55378536D01*
X59779028Y-55380738D01*
X59776527Y-55383239D01*
X59775809Y-55383881D01*
X59771469Y-55387587D01*
X59769293Y-55389362D01*
X59703863Y-55416922D01*
X59633921Y-55404732D01*
X59605928Y-55385689D01*
X59605926Y-55385692D01*
X59605925Y-55385691D01*
X59572651Y-55358358D01*
X59571853Y-55357696D01*
X59500526Y-55297846D01*
X59495856Y-55295278D01*
X59491739Y-55291897D01*
X59433855Y-55260860D01*
X59409914Y-55248023D01*
X59408755Y-55247394D01*
X59332619Y-55205538D01*
X59332611Y-55205535D01*
X59327213Y-55202567D01*
X59322131Y-55200955D01*
X59317437Y-55198438D01*
X59228469Y-55171238D01*
X59227441Y-55170918D01*
X59138694Y-55142765D01*
X59133398Y-55142171D01*
X59128302Y-55140613D01*
X59035743Y-55131210D01*
X59034607Y-55131089D01*
X59000992Y-55127319D01*
X58988270Y-55125892D01*
X58988266Y-55125892D01*
X58984773Y-55125500D01*
X58981246Y-55125500D01*
X58980261Y-55125445D01*
X58974581Y-55124998D01*
X58945175Y-55122011D01*
X58937663Y-55121248D01*
X58937661Y-55121248D01*
X58931538Y-55120626D01*
X58889259Y-55124623D01*
X58885891Y-55124941D01*
X58874033Y-55125500D01*
X53147850Y-55125500D01*
X53134242Y-55124763D01*
X53133662Y-55124700D01*
X53096612Y-55120675D01*
X53046570Y-55125053D01*
X53041788Y-55125379D01*
X53039310Y-55125500D01*
X53036231Y-55125500D01*
X53033177Y-55125799D01*
X53033166Y-55125800D01*
X52993529Y-55129687D01*
X52992215Y-55129809D01*
X52956688Y-55132917D01*
X52899587Y-55137913D01*
X52894468Y-55139400D01*
X52889167Y-55139920D01*
X52800166Y-55166791D01*
X52799033Y-55167126D01*
X52715586Y-55191370D01*
X52715582Y-55191372D01*
X52709664Y-55193091D01*
X52704932Y-55195544D01*
X52699831Y-55197084D01*
X52694388Y-55199978D01*
X52617740Y-55240731D01*
X52616574Y-55241343D01*
X52563482Y-55268864D01*
X52534074Y-55284108D01*
X52529911Y-55287431D01*
X52525204Y-55289934D01*
X52520429Y-55293828D01*
X52520428Y-55293829D01*
X52453102Y-55348739D01*
X52452075Y-55349567D01*
X52415792Y-55378531D01*
X52415787Y-55378536D01*
X52413028Y-55380738D01*
X52410527Y-55383239D01*
X52409809Y-55383881D01*
X52405461Y-55387594D01*
X52403257Y-55389392D01*
X52371938Y-55414935D01*
X52368015Y-55419677D01*
X52368013Y-55419679D01*
X52342703Y-55450273D01*
X52334713Y-55459053D01*
X51927595Y-55866171D01*
X51865283Y-55900197D01*
X51794468Y-55895132D01*
X51737632Y-55852585D01*
X51712821Y-55786065D01*
X51712500Y-55777076D01*
X51712500Y-55708056D01*
X51713059Y-55696200D01*
X51713059Y-55696197D01*
X51714788Y-55688463D01*
X51712562Y-55617631D01*
X51712500Y-55613673D01*
X51712500Y-55584568D01*
X51711944Y-55580168D01*
X51711012Y-55568330D01*
X51710200Y-55542460D01*
X51709562Y-55522169D01*
X51703580Y-55501579D01*
X51699570Y-55482216D01*
X51697875Y-55468796D01*
X51697875Y-55468795D01*
X51696882Y-55460936D01*
X51693966Y-55453571D01*
X51693965Y-55453567D01*
X51679874Y-55417979D01*
X51676035Y-55406769D01*
X51663145Y-55362400D01*
X51652229Y-55343943D01*
X51643534Y-55326193D01*
X51635635Y-55306244D01*
X51629806Y-55298221D01*
X51608477Y-55268864D01*
X51601960Y-55258943D01*
X51595502Y-55248023D01*
X51578452Y-55219193D01*
X51563291Y-55204032D01*
X51550449Y-55188997D01*
X51537841Y-55171643D01*
X51502241Y-55142192D01*
X51493462Y-55134203D01*
X49463405Y-53104145D01*
X49429379Y-53041833D01*
X49426500Y-53015050D01*
X49426500Y-52680925D01*
X49446502Y-52612804D01*
X49500158Y-52566311D01*
X49570432Y-52556207D01*
X49635012Y-52585701D01*
X49641595Y-52591830D01*
X51059149Y-54009384D01*
X51068251Y-54019527D01*
X51091968Y-54049025D01*
X51130446Y-54081312D01*
X51134062Y-54084467D01*
X51135888Y-54086123D01*
X51138074Y-54088309D01*
X51140454Y-54090264D01*
X51140464Y-54090273D01*
X51171268Y-54115576D01*
X51172283Y-54116418D01*
X51243474Y-54176154D01*
X51248148Y-54178723D01*
X51252261Y-54182102D01*
X51257698Y-54185017D01*
X51257699Y-54185018D01*
X51272080Y-54192729D01*
X51305854Y-54210838D01*
X51334047Y-54225955D01*
X51335177Y-54226568D01*
X51416787Y-54271433D01*
X51421869Y-54273045D01*
X51426563Y-54275562D01*
X51515531Y-54302762D01*
X51516559Y-54303082D01*
X51605306Y-54331235D01*
X51610602Y-54331829D01*
X51615698Y-54333387D01*
X51708222Y-54342785D01*
X51709342Y-54342905D01*
X51742664Y-54346642D01*
X51755730Y-54348108D01*
X51755734Y-54348108D01*
X51759227Y-54348500D01*
X51762754Y-54348500D01*
X51763757Y-54348556D01*
X51769441Y-54349003D01*
X51794857Y-54351585D01*
X51806336Y-54352751D01*
X51806338Y-54352751D01*
X51812462Y-54353373D01*
X51858101Y-54349059D01*
X51869957Y-54348500D01*
X65062654Y-54348500D01*
X65076261Y-54349237D01*
X65107759Y-54352659D01*
X65107764Y-54352659D01*
X65113885Y-54353324D01*
X65140135Y-54351027D01*
X65163885Y-54348950D01*
X65168711Y-54348621D01*
X65171183Y-54348500D01*
X65174266Y-54348500D01*
X65186235Y-54347326D01*
X65217003Y-54344310D01*
X65218316Y-54344188D01*
X65262581Y-54340315D01*
X65310910Y-54336087D01*
X65316029Y-54334600D01*
X65321330Y-54334080D01*
X65410331Y-54307209D01*
X65411464Y-54306874D01*
X65494911Y-54282630D01*
X65494915Y-54282628D01*
X65500833Y-54280909D01*
X65505565Y-54278456D01*
X65510666Y-54276916D01*
X65517670Y-54273192D01*
X65592757Y-54233269D01*
X65593923Y-54232657D01*
X65670950Y-54192729D01*
X65676423Y-54189892D01*
X65680586Y-54186569D01*
X65685293Y-54184066D01*
X65757415Y-54125245D01*
X65758271Y-54124554D01*
X65797470Y-54093262D01*
X65799974Y-54090758D01*
X65800692Y-54090116D01*
X65805025Y-54086415D01*
X65838559Y-54059065D01*
X65867785Y-54023737D01*
X65875774Y-54014958D01*
X67508802Y-52381930D01*
X69142405Y-50748326D01*
X69204717Y-50714300D01*
X69275532Y-50719365D01*
X69332368Y-50761912D01*
X69357179Y-50828432D01*
X69357500Y-50837421D01*
X69357500Y-50942400D01*
X69357837Y-50945646D01*
X69357837Y-50945650D01*
X69367752Y-51041206D01*
X69368474Y-51048166D01*
X69424450Y-51215946D01*
X69517522Y-51366348D01*
X69642697Y-51491305D01*
X69648927Y-51495145D01*
X69648928Y-51495146D01*
X69787028Y-51580272D01*
X69793262Y-51584115D01*
X69873005Y-51610564D01*
X69954611Y-51637632D01*
X69954613Y-51637632D01*
X69961139Y-51639797D01*
X69967975Y-51640497D01*
X69967978Y-51640498D01*
X70011031Y-51644909D01*
X70065600Y-51650500D01*
X71666400Y-51650500D01*
X71669646Y-51650163D01*
X71669650Y-51650163D01*
X71765308Y-51640238D01*
X71765312Y-51640237D01*
X71772166Y-51639526D01*
X71778702Y-51637345D01*
X71778704Y-51637345D01*
X71910806Y-51593272D01*
X71939946Y-51583550D01*
X72090348Y-51490478D01*
X72091177Y-51491818D01*
X72149050Y-51468396D01*
X72218813Y-51481569D01*
X72270381Y-51530368D01*
X72287500Y-51593779D01*
X72287500Y-55332736D01*
X72267498Y-55400857D01*
X72238204Y-55432698D01*
X72095159Y-55542460D01*
X72095148Y-55542470D01*
X72090708Y-55545877D01*
X71939515Y-55712036D01*
X71936537Y-55716783D01*
X71936535Y-55716786D01*
X71842827Y-55866171D01*
X71820136Y-55902344D01*
X71736344Y-56110783D01*
X71690787Y-56330767D01*
X71687500Y-56387775D01*
X71687500Y-57052999D01*
X71687749Y-57055786D01*
X71687749Y-57055792D01*
X71691436Y-57097105D01*
X71702383Y-57219762D01*
X71703864Y-57225176D01*
X71703865Y-57225181D01*
X71720526Y-57286081D01*
X71761663Y-57436451D01*
X71764075Y-57441509D01*
X71764077Y-57441513D01*
X71803069Y-57523260D01*
X71858378Y-57639218D01*
X71989471Y-57821654D01*
X72004295Y-57836019D01*
X72141833Y-57969303D01*
X72150799Y-57977992D01*
X72337262Y-58103290D01*
X72542967Y-58193588D01*
X72548418Y-58194897D01*
X72548422Y-58194898D01*
X72753938Y-58244238D01*
X72761411Y-58246032D01*
X72845475Y-58250879D01*
X72980083Y-58258640D01*
X72980086Y-58258640D01*
X72985690Y-58258963D01*
X73208715Y-58231975D01*
X73423435Y-58165918D01*
X73428415Y-58163348D01*
X73428419Y-58163346D01*
X73618081Y-58065454D01*
X73618082Y-58065454D01*
X73623064Y-58062882D01*
X73801292Y-57926123D01*
X73952485Y-57759964D01*
X73961313Y-57745892D01*
X74068885Y-57574405D01*
X74071864Y-57569656D01*
X74155656Y-57361217D01*
X74201213Y-57141233D01*
X74204500Y-57084225D01*
X74204500Y-56419001D01*
X74201768Y-56388382D01*
X74196222Y-56326243D01*
X74189617Y-56252238D01*
X74186457Y-56240687D01*
X74187776Y-56169704D01*
X74227263Y-56110701D01*
X74292380Y-56082413D01*
X74362454Y-56093821D01*
X74397087Y-56118347D01*
X74650595Y-56371855D01*
X74684621Y-56434167D01*
X74687500Y-56460950D01*
X74687500Y-57546400D01*
X74687837Y-57549646D01*
X74687837Y-57549650D01*
X74697659Y-57644309D01*
X74698474Y-57652165D01*
X74700655Y-57658701D01*
X74700655Y-57658703D01*
X74723029Y-57725766D01*
X74754450Y-57819945D01*
X74847522Y-57970348D01*
X74972697Y-58095305D01*
X74978927Y-58099145D01*
X74978928Y-58099146D01*
X75116090Y-58183694D01*
X75123262Y-58188115D01*
X75203005Y-58214564D01*
X75284611Y-58241632D01*
X75284613Y-58241632D01*
X75291139Y-58243797D01*
X75297975Y-58244497D01*
X75297978Y-58244498D01*
X75341031Y-58248909D01*
X75395600Y-58254500D01*
X76496400Y-58254500D01*
X76499646Y-58254163D01*
X76499650Y-58254163D01*
X76595307Y-58244238D01*
X76595311Y-58244237D01*
X76602165Y-58243526D01*
X76608701Y-58241345D01*
X76608703Y-58241345D01*
X76758606Y-58191333D01*
X76769945Y-58187550D01*
X76920348Y-58094478D01*
X77045305Y-57969303D01*
X77051954Y-57958516D01*
X77134275Y-57824968D01*
X77134276Y-57824966D01*
X77138115Y-57818738D01*
X77171515Y-57718040D01*
X77191632Y-57657389D01*
X77191632Y-57657387D01*
X77193797Y-57650861D01*
X77194524Y-57643771D01*
X77201260Y-57578018D01*
X77204500Y-57546400D01*
X77204500Y-55925600D01*
X77204163Y-55922350D01*
X77194238Y-55826693D01*
X77194237Y-55826689D01*
X77193526Y-55819835D01*
X77182260Y-55786065D01*
X77139868Y-55659003D01*
X77137550Y-55652055D01*
X77044478Y-55501652D01*
X76919303Y-55376695D01*
X76913072Y-55372854D01*
X76774968Y-55287725D01*
X76774966Y-55287724D01*
X76768738Y-55283885D01*
X76659580Y-55247679D01*
X76607389Y-55230368D01*
X76607387Y-55230368D01*
X76600861Y-55228203D01*
X76594025Y-55227503D01*
X76594022Y-55227502D01*
X76550969Y-55223091D01*
X76496400Y-55217500D01*
X75410950Y-55217500D01*
X75342829Y-55197498D01*
X75321855Y-55180595D01*
X74141405Y-54000145D01*
X74107379Y-53937833D01*
X74104500Y-53911050D01*
X74104500Y-52173565D01*
X77126760Y-52173565D01*
X77134217Y-52183932D01*
X77373936Y-52378053D01*
X77379273Y-52381930D01*
X77699686Y-52590009D01*
X77705395Y-52593306D01*
X78045812Y-52766757D01*
X78051837Y-52769439D01*
X78408503Y-52906350D01*
X78414785Y-52908391D01*
X78783817Y-53007273D01*
X78790267Y-53008644D01*
X79167630Y-53068413D01*
X79174168Y-53069099D01*
X79555700Y-53089095D01*
X79562302Y-53089095D01*
X79943834Y-53069099D01*
X79950372Y-53068413D01*
X80327735Y-53008644D01*
X80334185Y-53007273D01*
X80703217Y-52908391D01*
X80709499Y-52906350D01*
X81066165Y-52769439D01*
X81072190Y-52766757D01*
X81412607Y-52593306D01*
X81418316Y-52590009D01*
X81738729Y-52381930D01*
X81744066Y-52378053D01*
X81982836Y-52184701D01*
X81991301Y-52172446D01*
X81984967Y-52161355D01*
X79571813Y-49748201D01*
X79557869Y-49740587D01*
X79556036Y-49740718D01*
X79549421Y-49744969D01*
X77133901Y-52160489D01*
X77126760Y-52173565D01*
X74104500Y-52173565D01*
X74104500Y-49379480D01*
X75846085Y-49379480D01*
X75866081Y-49761012D01*
X75866767Y-49767550D01*
X75926536Y-50144913D01*
X75927907Y-50151363D01*
X76026789Y-50520395D01*
X76028830Y-50526677D01*
X76165741Y-50883343D01*
X76168423Y-50889368D01*
X76341873Y-51229782D01*
X76345170Y-51235492D01*
X76553254Y-51555914D01*
X76557124Y-51561240D01*
X76750479Y-51800014D01*
X76762734Y-51808479D01*
X76773825Y-51802145D01*
X79186979Y-49388991D01*
X79194593Y-49375047D01*
X79194462Y-49373214D01*
X79190211Y-49366599D01*
X76774691Y-46951079D01*
X76761615Y-46943938D01*
X76751248Y-46951395D01*
X76557124Y-47191118D01*
X76553254Y-47196444D01*
X76345170Y-47516866D01*
X76341873Y-47522576D01*
X76168423Y-47862990D01*
X76165741Y-47869015D01*
X76028830Y-48225681D01*
X76026789Y-48231963D01*
X75927907Y-48600995D01*
X75926536Y-48607445D01*
X75866767Y-48984808D01*
X75866081Y-48991346D01*
X75846085Y-49372878D01*
X75846085Y-49379480D01*
X74104500Y-49379480D01*
X74104500Y-46912954D01*
X74105059Y-46901097D01*
X74106789Y-46893357D01*
X74104562Y-46822493D01*
X74104500Y-46818535D01*
X74104500Y-46789462D01*
X74103947Y-46785083D01*
X74103014Y-46773240D01*
X74102761Y-46765166D01*
X74101563Y-46727063D01*
X74095579Y-46706465D01*
X74091571Y-46687112D01*
X74091132Y-46683637D01*
X74088882Y-46665830D01*
X74083625Y-46652551D01*
X74071875Y-46622876D01*
X74068029Y-46611641D01*
X74057358Y-46574910D01*
X74057357Y-46574907D01*
X74055145Y-46567294D01*
X74044225Y-46548829D01*
X74035534Y-46531089D01*
X74027635Y-46511138D01*
X74000482Y-46473765D01*
X73993967Y-46463846D01*
X73974493Y-46430917D01*
X73974490Y-46430913D01*
X73970453Y-46424087D01*
X73955289Y-46408923D01*
X73942448Y-46393889D01*
X73934501Y-46382951D01*
X73929841Y-46376537D01*
X73894247Y-46347091D01*
X73885468Y-46339102D01*
X72604761Y-45058395D01*
X72596771Y-45049615D01*
X72596769Y-45049613D01*
X72592522Y-45042920D01*
X72540848Y-44994395D01*
X72538007Y-44991641D01*
X72517439Y-44971073D01*
X72513932Y-44968353D01*
X72504910Y-44960647D01*
X72477019Y-44934456D01*
X72471239Y-44929028D01*
X72464287Y-44925206D01*
X72452448Y-44918697D01*
X72435924Y-44907843D01*
X72425238Y-44899555D01*
X72418974Y-44894696D01*
X72411702Y-44891549D01*
X72411700Y-44891548D01*
X72376571Y-44876346D01*
X72365911Y-44871124D01*
X72332390Y-44852695D01*
X72332388Y-44852694D01*
X72325443Y-44848876D01*
X72304665Y-44843541D01*
X72285975Y-44837142D01*
X72266282Y-44828620D01*
X72220658Y-44821394D01*
X72209035Y-44818987D01*
X72181034Y-44811798D01*
X72164294Y-44807500D01*
X72142847Y-44807500D01*
X72123137Y-44805949D01*
X72109783Y-44803834D01*
X72101954Y-44802594D01*
X72055965Y-44806941D01*
X72044110Y-44807500D01*
X60522949Y-44807500D01*
X60454828Y-44787498D01*
X60433854Y-44770595D01*
X59280333Y-43617073D01*
X59246307Y-43554761D01*
X59251372Y-43483945D01*
X59293919Y-43427110D01*
X59343511Y-43405639D01*
X59343371Y-43405115D01*
X59346917Y-43404165D01*
X59346918Y-43404165D01*
X59348671Y-43403695D01*
X59348676Y-43403694D01*
X59550765Y-43349543D01*
X59550764Y-43349543D01*
X59556076Y-43348120D01*
X59755654Y-43255056D01*
X59936038Y-43128749D01*
X60091749Y-42973038D01*
X60218056Y-42792653D01*
X60220379Y-42787671D01*
X60220382Y-42787666D01*
X60308795Y-42598061D01*
X60311120Y-42593076D01*
X60339617Y-42486724D01*
X60366692Y-42385682D01*
X60366692Y-42385681D01*
X60368115Y-42380371D01*
X60371386Y-42342983D01*
X60397249Y-42276864D01*
X60407812Y-42264869D01*
X60649367Y-42023314D01*
X60711679Y-41989288D01*
X60782494Y-41994353D01*
X60839330Y-42036900D01*
X60864141Y-42103420D01*
X60863983Y-42123389D01*
X60862208Y-42143680D01*
X60860693Y-42161000D01*
X60879885Y-42380371D01*
X60936880Y-42593076D01*
X60939205Y-42598061D01*
X61027618Y-42787666D01*
X61027621Y-42787671D01*
X61029944Y-42792653D01*
X61156251Y-42973038D01*
X61311962Y-43128749D01*
X61492346Y-43255056D01*
X61691924Y-43348120D01*
X61904629Y-43405115D01*
X62124000Y-43424307D01*
X62343371Y-43405115D01*
X62556076Y-43348120D01*
X62755654Y-43255056D01*
X62936038Y-43128749D01*
X63091749Y-42973038D01*
X63218056Y-42792653D01*
X63220379Y-42787671D01*
X63220382Y-42787666D01*
X63308795Y-42598061D01*
X63311120Y-42593076D01*
X63368115Y-42380371D01*
X63387307Y-42161000D01*
X63368115Y-41941629D01*
X63366694Y-41936325D01*
X63366692Y-41936315D01*
X63365164Y-41930615D01*
X63366852Y-41859638D01*
X63397775Y-41808906D01*
X63836182Y-41370499D01*
X63898494Y-41336473D01*
X63969309Y-41341538D01*
X64026145Y-41384085D01*
X64050956Y-41450605D01*
X64034396Y-41522594D01*
X64033096Y-41524845D01*
X64029944Y-41529347D01*
X64027623Y-41534325D01*
X64027621Y-41534328D01*
X63998329Y-41597146D01*
X63936880Y-41728924D01*
X63879885Y-41941629D01*
X63860693Y-42161000D01*
X63879885Y-42380371D01*
X63936880Y-42593076D01*
X63939205Y-42598061D01*
X64027618Y-42787666D01*
X64027621Y-42787671D01*
X64029944Y-42792653D01*
X64156251Y-42973038D01*
X64311962Y-43128749D01*
X64492346Y-43255056D01*
X64691924Y-43348120D01*
X64904629Y-43405115D01*
X65124000Y-43424307D01*
X65343371Y-43405115D01*
X65556076Y-43348120D01*
X65755654Y-43255056D01*
X65936038Y-43128749D01*
X66091749Y-42973038D01*
X66218056Y-42792653D01*
X66220379Y-42787671D01*
X66220382Y-42787666D01*
X66308795Y-42598061D01*
X66311120Y-42593076D01*
X66368115Y-42380371D01*
X66387307Y-42161000D01*
X66860693Y-42161000D01*
X66879885Y-42380371D01*
X66936880Y-42593076D01*
X66939205Y-42598061D01*
X67027618Y-42787666D01*
X67027621Y-42787671D01*
X67029944Y-42792653D01*
X67156251Y-42973038D01*
X67311962Y-43128749D01*
X67492346Y-43255056D01*
X67691924Y-43348120D01*
X67904629Y-43405115D01*
X68124000Y-43424307D01*
X68343371Y-43405115D01*
X68556076Y-43348120D01*
X68755654Y-43255056D01*
X68936038Y-43128749D01*
X69091749Y-42973038D01*
X69218056Y-42792653D01*
X69220379Y-42787671D01*
X69220382Y-42787666D01*
X69308795Y-42598061D01*
X69311120Y-42593076D01*
X69368115Y-42380371D01*
X69387307Y-42161000D01*
X69368115Y-41941629D01*
X69311120Y-41728924D01*
X69267585Y-41635562D01*
X69220382Y-41534334D01*
X69220379Y-41534328D01*
X69218056Y-41529347D01*
X69214899Y-41524838D01*
X69094908Y-41353473D01*
X69094906Y-41353470D01*
X69091749Y-41348962D01*
X68936038Y-41193251D01*
X68755654Y-41066944D01*
X68556076Y-40973880D01*
X68343371Y-40916885D01*
X68124000Y-40897693D01*
X67904629Y-40916885D01*
X67691924Y-40973880D01*
X67643780Y-40996330D01*
X67497334Y-41064618D01*
X67497329Y-41064621D01*
X67492347Y-41066944D01*
X67487840Y-41070100D01*
X67487838Y-41070101D01*
X67316473Y-41190092D01*
X67316470Y-41190094D01*
X67311962Y-41193251D01*
X67156251Y-41348962D01*
X67153094Y-41353470D01*
X67153092Y-41353473D01*
X67033101Y-41524838D01*
X67029944Y-41529347D01*
X67027621Y-41534328D01*
X67027618Y-41534334D01*
X66980415Y-41635562D01*
X66936880Y-41728924D01*
X66879885Y-41941629D01*
X66860693Y-42161000D01*
X66387307Y-42161000D01*
X66368115Y-41941629D01*
X66311120Y-41728924D01*
X66267585Y-41635562D01*
X66220382Y-41534334D01*
X66220379Y-41534328D01*
X66218056Y-41529347D01*
X66214899Y-41524838D01*
X66094908Y-41353473D01*
X66094906Y-41353470D01*
X66091749Y-41348962D01*
X65936038Y-41193251D01*
X65755654Y-41066944D01*
X65556076Y-40973880D01*
X65343371Y-40916885D01*
X65124000Y-40897693D01*
X64904629Y-40916885D01*
X64691924Y-40973880D01*
X64643780Y-40996330D01*
X64497334Y-41064618D01*
X64497329Y-41064621D01*
X64492347Y-41066944D01*
X64487840Y-41070100D01*
X64483077Y-41072850D01*
X64481800Y-41070638D01*
X64424559Y-41089784D01*
X64355742Y-41072328D01*
X64307287Y-41020438D01*
X64294577Y-40950588D01*
X64323105Y-40886165D01*
X64321660Y-40885022D01*
X64339281Y-40862749D01*
X64342072Y-40859345D01*
X64384591Y-40809297D01*
X64384592Y-40809295D01*
X64389333Y-40803715D01*
X64392661Y-40797199D01*
X64396028Y-40792150D01*
X64399195Y-40787021D01*
X64403734Y-40781284D01*
X64434655Y-40715125D01*
X64436561Y-40711225D01*
X64449477Y-40685931D01*
X64469769Y-40646192D01*
X64471508Y-40639084D01*
X64473607Y-40633441D01*
X64475524Y-40627678D01*
X64478622Y-40621050D01*
X64493487Y-40549583D01*
X64494457Y-40545299D01*
X64498878Y-40527231D01*
X64511808Y-40474390D01*
X64512500Y-40463236D01*
X64512536Y-40463238D01*
X64512775Y-40459240D01*
X64513149Y-40455055D01*
X64514632Y-40447921D01*
X64539519Y-40384635D01*
X64597098Y-40343099D01*
X64667992Y-40339286D01*
X64682134Y-40343513D01*
X64697409Y-40349073D01*
X64899401Y-40403196D01*
X64910196Y-40405099D01*
X65118525Y-40423326D01*
X65129475Y-40423326D01*
X65337804Y-40405099D01*
X65348599Y-40403196D01*
X65550595Y-40349072D01*
X65560887Y-40345326D01*
X65750416Y-40256947D01*
X65759912Y-40251464D01*
X65801148Y-40222590D01*
X65809523Y-40212113D01*
X65802455Y-40198667D01*
X64853884Y-39250095D01*
X64819859Y-39187783D01*
X64821694Y-39162132D01*
X65488408Y-39162132D01*
X65488539Y-39163966D01*
X65492790Y-39170580D01*
X66162391Y-39840180D01*
X66174161Y-39846607D01*
X66186176Y-39837311D01*
X66214466Y-39796907D01*
X66219946Y-39787417D01*
X66308326Y-39597887D01*
X66312072Y-39587595D01*
X66366196Y-39385599D01*
X66368099Y-39374804D01*
X66386326Y-39166475D01*
X66386326Y-39161000D01*
X66860693Y-39161000D01*
X66879885Y-39380371D01*
X66936880Y-39593076D01*
X66939205Y-39598061D01*
X67027618Y-39787666D01*
X67027621Y-39787671D01*
X67029944Y-39792653D01*
X67033100Y-39797160D01*
X67033101Y-39797162D01*
X67148661Y-39962198D01*
X67156251Y-39973038D01*
X67311962Y-40128749D01*
X67316471Y-40131906D01*
X67316473Y-40131908D01*
X67391241Y-40184261D01*
X67492346Y-40255056D01*
X67691924Y-40348120D01*
X67904629Y-40405115D01*
X68124000Y-40424307D01*
X68343371Y-40405115D01*
X68556076Y-40348120D01*
X68755654Y-40255056D01*
X68856759Y-40184261D01*
X68931527Y-40131908D01*
X68931529Y-40131906D01*
X68936038Y-40128749D01*
X69091749Y-39973038D01*
X69099340Y-39962198D01*
X69214899Y-39797162D01*
X69214900Y-39797160D01*
X69218056Y-39792653D01*
X69220379Y-39787671D01*
X69220382Y-39787666D01*
X69308795Y-39598061D01*
X69311120Y-39593076D01*
X69368115Y-39380371D01*
X69387307Y-39161000D01*
X69368115Y-38941629D01*
X69311120Y-38728924D01*
X69235078Y-38565851D01*
X69220382Y-38534334D01*
X69220379Y-38534329D01*
X69218056Y-38529347D01*
X69213107Y-38522279D01*
X69094908Y-38353473D01*
X69094906Y-38353470D01*
X69091749Y-38348962D01*
X68936038Y-38193251D01*
X68755654Y-38066944D01*
X68556076Y-37973880D01*
X68343371Y-37916885D01*
X68124000Y-37897693D01*
X67904629Y-37916885D01*
X67691924Y-37973880D01*
X67598562Y-38017415D01*
X67497334Y-38064618D01*
X67497329Y-38064621D01*
X67492347Y-38066944D01*
X67487840Y-38070100D01*
X67487838Y-38070101D01*
X67316473Y-38190092D01*
X67316470Y-38190094D01*
X67311962Y-38193251D01*
X67156251Y-38348962D01*
X67153094Y-38353470D01*
X67153092Y-38353473D01*
X67034893Y-38522279D01*
X67029944Y-38529347D01*
X67027621Y-38534329D01*
X67027618Y-38534334D01*
X67012922Y-38565851D01*
X66936880Y-38728924D01*
X66879885Y-38941629D01*
X66860693Y-39161000D01*
X66386326Y-39161000D01*
X66386326Y-39155525D01*
X66368099Y-38947196D01*
X66366196Y-38936401D01*
X66312072Y-38734405D01*
X66308326Y-38724113D01*
X66219946Y-38534583D01*
X66214466Y-38525093D01*
X66185589Y-38483851D01*
X66175113Y-38475477D01*
X66161666Y-38482545D01*
X65496021Y-39148189D01*
X65488408Y-39162132D01*
X64821694Y-39162132D01*
X64824924Y-39116967D01*
X64853885Y-39071905D01*
X65124000Y-38801790D01*
X65803176Y-38122613D01*
X65809606Y-38110838D01*
X65800310Y-38098824D01*
X65759912Y-38070536D01*
X65750416Y-38065053D01*
X65560887Y-37976674D01*
X65550595Y-37972928D01*
X65348599Y-37918804D01*
X65337804Y-37916901D01*
X65129475Y-37898674D01*
X65118525Y-37898674D01*
X64910196Y-37916901D01*
X64899401Y-37918804D01*
X64697405Y-37972928D01*
X64687113Y-37976674D01*
X64497579Y-38065056D01*
X64488099Y-38070530D01*
X64464906Y-38086770D01*
X64397632Y-38109458D01*
X64328772Y-38092173D01*
X64305981Y-38075029D01*
X64297447Y-38066944D01*
X64283616Y-38053842D01*
X64281175Y-38051465D01*
X62824799Y-36595089D01*
X62812413Y-36580677D01*
X62803880Y-36569082D01*
X62803875Y-36569077D01*
X62799537Y-36563182D01*
X62793959Y-36558443D01*
X62793956Y-36558440D01*
X62759261Y-36528965D01*
X62751745Y-36522035D01*
X62746050Y-36516340D01*
X62739909Y-36511482D01*
X62723778Y-36498719D01*
X62720374Y-36495928D01*
X62670326Y-36453409D01*
X62670324Y-36453408D01*
X62664744Y-36448667D01*
X62658228Y-36445339D01*
X62653179Y-36441972D01*
X62648050Y-36438805D01*
X62642313Y-36434266D01*
X62576154Y-36403345D01*
X62572254Y-36401439D01*
X62507221Y-36368231D01*
X62500113Y-36366492D01*
X62494470Y-36364393D01*
X62488707Y-36362476D01*
X62482079Y-36359378D01*
X62410612Y-36344513D01*
X62406328Y-36343543D01*
X62371987Y-36335140D01*
X62335419Y-36326192D01*
X62329817Y-36325844D01*
X62329814Y-36325844D01*
X62324265Y-36325500D01*
X62324267Y-36325464D01*
X62320274Y-36325225D01*
X62316082Y-36324851D01*
X62308914Y-36323360D01*
X62245149Y-36325085D01*
X62231508Y-36325454D01*
X62228101Y-36325500D01*
X50931344Y-36325500D01*
X50863223Y-36305498D01*
X50816730Y-36251842D01*
X50806626Y-36181568D01*
X50832055Y-36121927D01*
X50950474Y-35970357D01*
X50950481Y-35970347D01*
X50953188Y-35966882D01*
X50955384Y-35963078D01*
X50955389Y-35963071D01*
X51091435Y-35727431D01*
X51093636Y-35723619D01*
X51198862Y-35463176D01*
X51232544Y-35328087D01*
X51265753Y-35194893D01*
X51265754Y-35194888D01*
X51266817Y-35190624D01*
X51296178Y-34911267D01*
X51291271Y-34770733D01*
X63971822Y-34770733D01*
X63981625Y-35051458D01*
X63982387Y-35055781D01*
X63982388Y-35055788D01*
X64006164Y-35190624D01*
X64030402Y-35328087D01*
X64117203Y-35595235D01*
X64240340Y-35847702D01*
X64242795Y-35851341D01*
X64242798Y-35851347D01*
X64315890Y-35959710D01*
X64397415Y-36080576D01*
X64585371Y-36289322D01*
X64800550Y-36469879D01*
X65038764Y-36618731D01*
X65295375Y-36732982D01*
X65565390Y-36810407D01*
X65569740Y-36811018D01*
X65569743Y-36811019D01*
X65672690Y-36825487D01*
X65843552Y-36849500D01*
X66054146Y-36849500D01*
X66056332Y-36849347D01*
X66056336Y-36849347D01*
X66259827Y-36835118D01*
X66259832Y-36835117D01*
X66264212Y-36834811D01*
X66538970Y-36776409D01*
X66543099Y-36774906D01*
X66543103Y-36774905D01*
X66798781Y-36681846D01*
X66798785Y-36681844D01*
X66802926Y-36680337D01*
X67050942Y-36548464D01*
X67054503Y-36545877D01*
X67274629Y-36385947D01*
X67274632Y-36385944D01*
X67278192Y-36383358D01*
X67290410Y-36371560D01*
X67477087Y-36191287D01*
X67480252Y-36188231D01*
X67653188Y-35966882D01*
X67655384Y-35963078D01*
X67655389Y-35963071D01*
X67791435Y-35727431D01*
X67793636Y-35723619D01*
X67898862Y-35463176D01*
X67932544Y-35328087D01*
X67965753Y-35194893D01*
X67965754Y-35194888D01*
X67966817Y-35190624D01*
X67996178Y-34911267D01*
X67986375Y-34630542D01*
X67962608Y-34495749D01*
X67938360Y-34358236D01*
X67937598Y-34353913D01*
X67850797Y-34086765D01*
X67727660Y-33834298D01*
X67725205Y-33830659D01*
X67725202Y-33830653D01*
X67644935Y-33711653D01*
X67570585Y-33601424D01*
X67382629Y-33392678D01*
X67167450Y-33212121D01*
X66929236Y-33063269D01*
X66672625Y-32949018D01*
X66402610Y-32871593D01*
X66398260Y-32870982D01*
X66398257Y-32870981D01*
X66295310Y-32856513D01*
X66124448Y-32832500D01*
X65913854Y-32832500D01*
X65911668Y-32832653D01*
X65911664Y-32832653D01*
X65708173Y-32846882D01*
X65708168Y-32846883D01*
X65703788Y-32847189D01*
X65429030Y-32905591D01*
X65424901Y-32907094D01*
X65424897Y-32907095D01*
X65169219Y-33000154D01*
X65169215Y-33000156D01*
X65165074Y-33001663D01*
X64917058Y-33133536D01*
X64913499Y-33136122D01*
X64913497Y-33136123D01*
X64808895Y-33212121D01*
X64689808Y-33298642D01*
X64487748Y-33493769D01*
X64314812Y-33715118D01*
X64312616Y-33718922D01*
X64312611Y-33718929D01*
X64198794Y-33916067D01*
X64174364Y-33958381D01*
X64069138Y-34218824D01*
X64068073Y-34223097D01*
X64068072Y-34223099D01*
X64034379Y-34358236D01*
X64001183Y-34491376D01*
X63971822Y-34770733D01*
X51291271Y-34770733D01*
X51286375Y-34630542D01*
X51262608Y-34495749D01*
X51238360Y-34358236D01*
X51237598Y-34353913D01*
X51150797Y-34086765D01*
X51027660Y-33834298D01*
X51025205Y-33830659D01*
X51025202Y-33830653D01*
X50944935Y-33711653D01*
X50870585Y-33601424D01*
X50682629Y-33392678D01*
X50467450Y-33212121D01*
X50229236Y-33063269D01*
X49972625Y-32949018D01*
X49702610Y-32871593D01*
X49698260Y-32870982D01*
X49698257Y-32870981D01*
X49595310Y-32856513D01*
X49424448Y-32832500D01*
X49213854Y-32832500D01*
X49211668Y-32832653D01*
X49211664Y-32832653D01*
X49008173Y-32846882D01*
X49008168Y-32846883D01*
X49003788Y-32847189D01*
X48729030Y-32905591D01*
X48724901Y-32907094D01*
X48724897Y-32907095D01*
X48469219Y-33000154D01*
X48469215Y-33000156D01*
X48465074Y-33001663D01*
X48217058Y-33133536D01*
X48213499Y-33136122D01*
X48213497Y-33136123D01*
X48108895Y-33212121D01*
X47989808Y-33298642D01*
X47787748Y-33493769D01*
X47614812Y-33715118D01*
X47612616Y-33718922D01*
X47612611Y-33718929D01*
X47498794Y-33916067D01*
X47474364Y-33958381D01*
X47369138Y-34218824D01*
X47368073Y-34223097D01*
X47368072Y-34223099D01*
X47334379Y-34358236D01*
X47301183Y-34491376D01*
X47271822Y-34770733D01*
X47281625Y-35051458D01*
X47282387Y-35055781D01*
X47282388Y-35055788D01*
X47306164Y-35190624D01*
X47330402Y-35328087D01*
X47417203Y-35595235D01*
X47540340Y-35847702D01*
X47542795Y-35851341D01*
X47542798Y-35851347D01*
X47615890Y-35959710D01*
X47697415Y-36080576D01*
X47700360Y-36083847D01*
X47700361Y-36083848D01*
X47728581Y-36115189D01*
X47759298Y-36179196D01*
X47750535Y-36249650D01*
X47705072Y-36304181D01*
X47634945Y-36325500D01*
X46054094Y-36325500D01*
X46035146Y-36324067D01*
X46027805Y-36322950D01*
X46020908Y-36321901D01*
X46020906Y-36321901D01*
X46013676Y-36320801D01*
X46006384Y-36321394D01*
X46006381Y-36321394D01*
X45961007Y-36325085D01*
X45950792Y-36325500D01*
X45942732Y-36325500D01*
X45929442Y-36327049D01*
X45914518Y-36328789D01*
X45910143Y-36329222D01*
X45844686Y-36334546D01*
X45844683Y-36334547D01*
X45837388Y-36335140D01*
X45830424Y-36337396D01*
X45824465Y-36338587D01*
X45818610Y-36339971D01*
X45811344Y-36340818D01*
X45742698Y-36365735D01*
X45738570Y-36367152D01*
X45676089Y-36387393D01*
X45676087Y-36387394D01*
X45669126Y-36389649D01*
X45662871Y-36393445D01*
X45657397Y-36395951D01*
X45651967Y-36398670D01*
X45645088Y-36401167D01*
X45584041Y-36441191D01*
X45580352Y-36443518D01*
X45571868Y-36448667D01*
X45522718Y-36478491D01*
X45522713Y-36478495D01*
X45517917Y-36481405D01*
X45509541Y-36488803D01*
X45509518Y-36488777D01*
X45506528Y-36491426D01*
X45503289Y-36494134D01*
X45497173Y-36498144D01*
X45492146Y-36503451D01*
X45492142Y-36503454D01*
X45443897Y-36554383D01*
X45441519Y-36556825D01*
X39959089Y-42039255D01*
X39944677Y-42051641D01*
X39933082Y-42060174D01*
X39933077Y-42060179D01*
X39927182Y-42064517D01*
X39922443Y-42070095D01*
X39922440Y-42070098D01*
X39892965Y-42104793D01*
X39886035Y-42112309D01*
X39880340Y-42118004D01*
X39878060Y-42120886D01*
X39862719Y-42140276D01*
X39859928Y-42143680D01*
X39817409Y-42193728D01*
X39812667Y-42199310D01*
X39809339Y-42205826D01*
X39805972Y-42210875D01*
X39802805Y-42216004D01*
X39798266Y-42221741D01*
X39767345Y-42287900D01*
X39765442Y-42291794D01*
X39732231Y-42356833D01*
X39730492Y-42363941D01*
X39728393Y-42369584D01*
X39726476Y-42375347D01*
X39723378Y-42381975D01*
X39721888Y-42389137D01*
X39721888Y-42389138D01*
X39708514Y-42453437D01*
X39707544Y-42457721D01*
X39690192Y-42528635D01*
X39689500Y-42539789D01*
X39689464Y-42539787D01*
X39689225Y-42543780D01*
X39688851Y-42547972D01*
X39687360Y-42555140D01*
X39687558Y-42562457D01*
X39689454Y-42632546D01*
X39689500Y-42635953D01*
X39689500Y-59674191D01*
X39669498Y-59742312D01*
X39652595Y-59763286D01*
X39335062Y-60080819D01*
X39272750Y-60114845D01*
X39201935Y-60109780D01*
X39145099Y-60067233D01*
X39120008Y-59994914D01*
X39115633Y-59822098D01*
X39112629Y-59806854D01*
X39081146Y-59647122D01*
X39071051Y-59595903D01*
X39064895Y-59579738D01*
X39022438Y-59468262D01*
X38988996Y-59380454D01*
X38892394Y-59216783D01*
X38874525Y-59186507D01*
X38874523Y-59186504D01*
X38871812Y-59181911D01*
X38722851Y-59005951D01*
X38546372Y-58857603D01*
X38347422Y-58741112D01*
X38313509Y-58728331D01*
X38256819Y-58685590D01*
X38232235Y-58618985D01*
X38247563Y-58549663D01*
X38272093Y-58518200D01*
X38375479Y-58421961D01*
X38375481Y-58421959D01*
X38379389Y-58418321D01*
X38492411Y-58270226D01*
X38516016Y-58239296D01*
X38516017Y-58239294D01*
X38519257Y-58235049D01*
X38542928Y-58189868D01*
X38558785Y-58159600D01*
X38626247Y-58030832D01*
X38697299Y-57811509D01*
X38719455Y-57658703D01*
X38729616Y-57588627D01*
X38729616Y-57588622D01*
X38730381Y-57583348D01*
X38724547Y-57352877D01*
X38679965Y-57126682D01*
X38668701Y-57097105D01*
X38629418Y-56993962D01*
X38597910Y-56911233D01*
X38480726Y-56712690D01*
X38331765Y-56536730D01*
X38155286Y-56388382D01*
X37956336Y-56271891D01*
X37740602Y-56190587D01*
X37735364Y-56189574D01*
X37735362Y-56189573D01*
X37519497Y-56147808D01*
X37519492Y-56147808D01*
X37514254Y-56146794D01*
X37508921Y-56146678D01*
X37508915Y-56146677D01*
X37372789Y-56143707D01*
X37283763Y-56141764D01*
X37279634Y-56142220D01*
X37261196Y-56144256D01*
X37261192Y-56144257D01*
X37259730Y-56144418D01*
X37258280Y-56144648D01*
X37258270Y-56144649D01*
X36974627Y-56189573D01*
X36852757Y-56208875D01*
X36764606Y-56230608D01*
X36690497Y-56248879D01*
X36690493Y-56248880D01*
X36685323Y-56250155D01*
X36473979Y-56342269D01*
X36469518Y-56345194D01*
X36469512Y-56345197D01*
X36285646Y-56465744D01*
X36285643Y-56465746D01*
X36281176Y-56468675D01*
X36112427Y-56625759D01*
X36109186Y-56630006D01*
X35979444Y-56800010D01*
X35972559Y-56809031D01*
X35865569Y-57013247D01*
X35794517Y-57232571D01*
X35778567Y-57342576D01*
X35764222Y-57441513D01*
X35761435Y-57460732D01*
X33554539Y-57460732D01*
X33199109Y-55120626D01*
X32751490Y-52173565D01*
X33276760Y-52173565D01*
X33284217Y-52183932D01*
X33523936Y-52378053D01*
X33529273Y-52381930D01*
X33849686Y-52590009D01*
X33855395Y-52593306D01*
X34195812Y-52766757D01*
X34201837Y-52769439D01*
X34558503Y-52906350D01*
X34564785Y-52908391D01*
X34933817Y-53007273D01*
X34940267Y-53008644D01*
X35317630Y-53068413D01*
X35324168Y-53069099D01*
X35705700Y-53089095D01*
X35712302Y-53089095D01*
X36093834Y-53069099D01*
X36100372Y-53068413D01*
X36477735Y-53008644D01*
X36484185Y-53007273D01*
X36853217Y-52908391D01*
X36859499Y-52906350D01*
X37216165Y-52769439D01*
X37222190Y-52766757D01*
X37562607Y-52593306D01*
X37568316Y-52590009D01*
X37888729Y-52381930D01*
X37894066Y-52378053D01*
X38132836Y-52184701D01*
X38141301Y-52172446D01*
X38134967Y-52161355D01*
X35721813Y-49748201D01*
X35707869Y-49740587D01*
X35706036Y-49740718D01*
X35699421Y-49744969D01*
X33283901Y-52160489D01*
X33276760Y-52173565D01*
X32751490Y-52173565D01*
X32714437Y-51929610D01*
X32723983Y-51859258D01*
X32770048Y-51805235D01*
X32838008Y-51784693D01*
X32910622Y-51807019D01*
X32912734Y-51808478D01*
X32923825Y-51802145D01*
X35348659Y-49377311D01*
X36073409Y-49377311D01*
X36073540Y-49379144D01*
X36077791Y-49385759D01*
X38493311Y-51801279D01*
X38506387Y-51808420D01*
X38516754Y-51800963D01*
X38710878Y-51561240D01*
X38714748Y-51555914D01*
X38922832Y-51235492D01*
X38926129Y-51229782D01*
X39099579Y-50889368D01*
X39102261Y-50883343D01*
X39239172Y-50526677D01*
X39241213Y-50520395D01*
X39340095Y-50151363D01*
X39341466Y-50144913D01*
X39401235Y-49767550D01*
X39401921Y-49761012D01*
X39421917Y-49379480D01*
X39421917Y-49372878D01*
X39401921Y-48991346D01*
X39401235Y-48984808D01*
X39341466Y-48607445D01*
X39340095Y-48600995D01*
X39241213Y-48231963D01*
X39239172Y-48225681D01*
X39102261Y-47869015D01*
X39099579Y-47862990D01*
X38926129Y-47522576D01*
X38922832Y-47516866D01*
X38714748Y-47196444D01*
X38710878Y-47191118D01*
X38517523Y-46952344D01*
X38505268Y-46943879D01*
X38494177Y-46950213D01*
X36081023Y-49363367D01*
X36073409Y-49377311D01*
X35348659Y-49377311D01*
X38134101Y-46591869D01*
X38141242Y-46578793D01*
X38133785Y-46568426D01*
X37894066Y-46374305D01*
X37888729Y-46370428D01*
X37568316Y-46162349D01*
X37562607Y-46159052D01*
X37222190Y-45985601D01*
X37216165Y-45982919D01*
X36859499Y-45846008D01*
X36853217Y-45843967D01*
X36484185Y-45745085D01*
X36477735Y-45743714D01*
X36100372Y-45683945D01*
X36093834Y-45683259D01*
X35712302Y-45663263D01*
X35705700Y-45663263D01*
X35324168Y-45683259D01*
X35317630Y-45683945D01*
X34940267Y-45743714D01*
X34933817Y-45745085D01*
X34777114Y-45787073D01*
X34706138Y-45785383D01*
X34647342Y-45745589D01*
X34619394Y-45680325D01*
X34631167Y-45610311D01*
X34650430Y-45581543D01*
X40563711Y-38945193D01*
X46787748Y-31960088D01*
X46801760Y-31946617D01*
X46820290Y-31931371D01*
X46825341Y-31923954D01*
X46825343Y-31923951D01*
X46831527Y-31914868D01*
X46845628Y-31897650D01*
X47045119Y-31693834D01*
X47053756Y-31685799D01*
X47294256Y-31482213D01*
X47303608Y-31475021D01*
X47562078Y-31294833D01*
X47572060Y-31288547D01*
X47846234Y-31133329D01*
X47846265Y-31133311D01*
X47856782Y-31127992D01*
X48144308Y-30999079D01*
X48155278Y-30994766D01*
X48320121Y-30938704D01*
X48453583Y-30893315D01*
X48464917Y-30890043D01*
X48771426Y-30816931D01*
X48783016Y-30814735D01*
X49094985Y-30770613D01*
X49106731Y-30769509D01*
X49384141Y-30756507D01*
X49409420Y-30757868D01*
X49412231Y-30758306D01*
X49412233Y-30758306D01*
X49421103Y-30759687D01*
X49430004Y-30758523D01*
X49430008Y-30758523D01*
X49452662Y-30755560D01*
X49469000Y-30754496D01*
X65791258Y-30754496D01*
X65810644Y-30755996D01*
G37*
%TD.AperFunction*%
%TA.AperFunction,Conductor*%
G36*
X55462051Y-57162502D02*
G01*
X55508544Y-57216158D01*
X55518648Y-57286432D01*
X55495019Y-57343713D01*
X55484234Y-57358208D01*
X55358246Y-57527542D01*
X55355830Y-57532293D01*
X55355828Y-57532297D01*
X55312482Y-57617553D01*
X55253760Y-57733051D01*
X55252180Y-57738141D01*
X55252177Y-57738148D01*
X55194565Y-57923689D01*
X55185393Y-57953227D01*
X55184692Y-57958516D01*
X55157204Y-58165918D01*
X55155102Y-58181774D01*
X55155302Y-58187103D01*
X55155302Y-58187105D01*
X55158423Y-58270226D01*
X55163751Y-58412158D01*
X55211093Y-58637791D01*
X55213051Y-58642750D01*
X55213052Y-58642752D01*
X55264170Y-58772189D01*
X55295776Y-58852221D01*
X55298543Y-58856780D01*
X55298544Y-58856783D01*
X55382478Y-58995101D01*
X55415377Y-59049317D01*
X55418874Y-59053347D01*
X55532839Y-59184680D01*
X55566477Y-59223445D01*
X55570608Y-59226832D01*
X55740627Y-59366240D01*
X55740633Y-59366244D01*
X55744755Y-59369624D01*
X55776250Y-59387552D01*
X55825555Y-59438632D01*
X55839417Y-59508262D01*
X55813434Y-59574333D01*
X55784284Y-59601573D01*
X55662681Y-59683441D01*
X55495865Y-59842576D01*
X55358246Y-60027542D01*
X55357656Y-60028702D01*
X55305664Y-60075250D01*
X55251471Y-60087500D01*
X53196949Y-60087500D01*
X53128828Y-60067498D01*
X53107854Y-60050595D01*
X51749405Y-58692145D01*
X51715379Y-58629833D01*
X51712500Y-58603050D01*
X51712500Y-57923513D01*
X51732502Y-57855392D01*
X51786158Y-57808899D01*
X51856432Y-57798795D01*
X51898814Y-57812887D01*
X51928041Y-57828822D01*
X52012827Y-57855392D01*
X52110886Y-57886122D01*
X52110889Y-57886123D01*
X52116768Y-57887965D01*
X52122891Y-57888630D01*
X52122895Y-57888631D01*
X52307263Y-57908659D01*
X52307267Y-57908659D01*
X52313388Y-57909324D01*
X52510413Y-57892087D01*
X52516330Y-57890368D01*
X52516335Y-57890367D01*
X52647064Y-57852386D01*
X52700336Y-57836909D01*
X52875926Y-57745892D01*
X52957393Y-57680858D01*
X52994221Y-57651459D01*
X52994222Y-57651458D01*
X52996973Y-57649262D01*
X53466829Y-57179405D01*
X53529142Y-57145380D01*
X53555925Y-57142500D01*
X55393930Y-57142500D01*
X55462051Y-57162502D01*
G37*
%TD.AperFunction*%
%TA.AperFunction,Conductor*%
G36*
X55777112Y-43370947D02*
G01*
X55899308Y-43403690D01*
X55899317Y-43403691D01*
X55904629Y-43405115D01*
X56124000Y-43424307D01*
X56343371Y-43405115D01*
X56348684Y-43403691D01*
X56348686Y-43403691D01*
X56373649Y-43397002D01*
X56444626Y-43398692D01*
X56495354Y-43429614D01*
X59447341Y-46381600D01*
X59455331Y-46390381D01*
X59455339Y-46390390D01*
X59459584Y-46397080D01*
X59488344Y-46424087D01*
X59511274Y-46445620D01*
X59514116Y-46448375D01*
X59534667Y-46468926D01*
X59537801Y-46471357D01*
X59538163Y-46471638D01*
X59547191Y-46479348D01*
X59580867Y-46510972D01*
X59587818Y-46514793D01*
X59587819Y-46514794D01*
X59599655Y-46521301D01*
X59616184Y-46532158D01*
X59626869Y-46540447D01*
X59626871Y-46540448D01*
X59633131Y-46545304D01*
X59675544Y-46563657D01*
X59686181Y-46568868D01*
X59726663Y-46591124D01*
X59734342Y-46593096D01*
X59734343Y-46593096D01*
X59747434Y-46596457D01*
X59766136Y-46602859D01*
X59785823Y-46611379D01*
X59793652Y-46612619D01*
X59831448Y-46618605D01*
X59843074Y-46621013D01*
X59880135Y-46630529D01*
X59880136Y-46630529D01*
X59887812Y-46632500D01*
X59909258Y-46632500D01*
X59928968Y-46634051D01*
X59950151Y-46637406D01*
X59996135Y-46633059D01*
X60007994Y-46632500D01*
X60504677Y-46632500D01*
X60572798Y-46652502D01*
X60619291Y-46706158D01*
X60629395Y-46776432D01*
X60599901Y-46841012D01*
X60591650Y-46849669D01*
X60550865Y-46888576D01*
X60413246Y-47073542D01*
X60410830Y-47078293D01*
X60410828Y-47078297D01*
X60395828Y-47107800D01*
X60308760Y-47279051D01*
X60307178Y-47284145D01*
X60307177Y-47284148D01*
X60245115Y-47484020D01*
X60240393Y-47499227D01*
X60239692Y-47504516D01*
X60212763Y-47707698D01*
X60210102Y-47727774D01*
X60218751Y-47958158D01*
X60266093Y-48183791D01*
X60268051Y-48188750D01*
X60268052Y-48188752D01*
X60313741Y-48304442D01*
X60350776Y-48398221D01*
X60470377Y-48595317D01*
X60473874Y-48599347D01*
X60595365Y-48739353D01*
X60621477Y-48769445D01*
X60625608Y-48772832D01*
X60657529Y-48799006D01*
X60697524Y-48857666D01*
X60699455Y-48928636D01*
X60662710Y-48989384D01*
X60643941Y-49003584D01*
X60504193Y-49090063D01*
X60492792Y-49099099D01*
X60378261Y-49213829D01*
X60369249Y-49225240D01*
X60284184Y-49363243D01*
X60278037Y-49376424D01*
X60226862Y-49530710D01*
X60223995Y-49544086D01*
X60214328Y-49638438D01*
X60214000Y-49644855D01*
X60214000Y-50019885D01*
X60218475Y-50035124D01*
X60219865Y-50036329D01*
X60227548Y-50038000D01*
X63211884Y-50038000D01*
X63227123Y-50033525D01*
X63228328Y-50032135D01*
X63229999Y-50024452D01*
X63229999Y-49644905D01*
X63229662Y-49638386D01*
X63219743Y-49542794D01*
X63216851Y-49529400D01*
X63165412Y-49375216D01*
X63159239Y-49362038D01*
X63073937Y-49224193D01*
X63064901Y-49212792D01*
X62950171Y-49098261D01*
X62938757Y-49089247D01*
X62799287Y-49003277D01*
X62751793Y-48950505D01*
X62740369Y-48880434D01*
X62768643Y-48815310D01*
X62778430Y-48804847D01*
X62778805Y-48804490D01*
X62893135Y-48695424D01*
X63030754Y-48510458D01*
X63135240Y-48304949D01*
X63171321Y-48188752D01*
X63202024Y-48089871D01*
X63203607Y-48084773D01*
X63216323Y-47988829D01*
X63233198Y-47861511D01*
X63233198Y-47861506D01*
X63233898Y-47856226D01*
X63225249Y-47625842D01*
X63177907Y-47400209D01*
X63097436Y-47196444D01*
X63095185Y-47190744D01*
X63095184Y-47190742D01*
X63093224Y-47185779D01*
X63048711Y-47112423D01*
X62976390Y-46993243D01*
X62973623Y-46988683D01*
X62845540Y-46841080D01*
X62816001Y-46776521D01*
X62826055Y-46706239D01*
X62872510Y-46652551D01*
X62940706Y-46632500D01*
X69648677Y-46632500D01*
X69716798Y-46652502D01*
X69763291Y-46706158D01*
X69773395Y-46776432D01*
X69743901Y-46841012D01*
X69735650Y-46849669D01*
X69694865Y-46888576D01*
X69557246Y-47073542D01*
X69554830Y-47078293D01*
X69554828Y-47078297D01*
X69539828Y-47107800D01*
X69452760Y-47279051D01*
X69451178Y-47284145D01*
X69451177Y-47284148D01*
X69389115Y-47484020D01*
X69384393Y-47499227D01*
X69383692Y-47504516D01*
X69366377Y-47635158D01*
X69337598Y-47700060D01*
X69330564Y-47707698D01*
X64743668Y-52294595D01*
X64681356Y-52328621D01*
X64654573Y-52331500D01*
X52285924Y-52331500D01*
X52217803Y-52311498D01*
X52196829Y-52294595D01*
X51767829Y-51865595D01*
X51733803Y-51803283D01*
X51738868Y-51732468D01*
X51781415Y-51675632D01*
X51847935Y-51650821D01*
X51856924Y-51650500D01*
X53124400Y-51650500D01*
X53127646Y-51650163D01*
X53127650Y-51650163D01*
X53223308Y-51640238D01*
X53223312Y-51640237D01*
X53230166Y-51639526D01*
X53236702Y-51637345D01*
X53236704Y-51637345D01*
X53368806Y-51593272D01*
X53397946Y-51583550D01*
X53548348Y-51490478D01*
X53557242Y-51481569D01*
X53668134Y-51370483D01*
X53673305Y-51365303D01*
X53766115Y-51214738D01*
X53821797Y-51046861D01*
X53832500Y-50942400D01*
X53832500Y-50939095D01*
X60214001Y-50939095D01*
X60214338Y-50945614D01*
X60224257Y-51041206D01*
X60227149Y-51054600D01*
X60278588Y-51208784D01*
X60284761Y-51221962D01*
X60370063Y-51359807D01*
X60379099Y-51371208D01*
X60493829Y-51485739D01*
X60505240Y-51494751D01*
X60643243Y-51579816D01*
X60656424Y-51585963D01*
X60810710Y-51637138D01*
X60824086Y-51640005D01*
X60918438Y-51649672D01*
X60924854Y-51650000D01*
X61449885Y-51650000D01*
X61465124Y-51645525D01*
X61466329Y-51644135D01*
X61468000Y-51636452D01*
X61468000Y-51631884D01*
X61976000Y-51631884D01*
X61980475Y-51647123D01*
X61981865Y-51648328D01*
X61989548Y-51649999D01*
X62519095Y-51649999D01*
X62525614Y-51649662D01*
X62621206Y-51639743D01*
X62634600Y-51636851D01*
X62788784Y-51585412D01*
X62801962Y-51579239D01*
X62939807Y-51493937D01*
X62951208Y-51484901D01*
X63065739Y-51370171D01*
X63074751Y-51358760D01*
X63159816Y-51220757D01*
X63165963Y-51207576D01*
X63217138Y-51053290D01*
X63220005Y-51039914D01*
X63229672Y-50945562D01*
X63230000Y-50939146D01*
X63230000Y-50564115D01*
X63225525Y-50548876D01*
X63224135Y-50547671D01*
X63216452Y-50546000D01*
X61994115Y-50546000D01*
X61978876Y-50550475D01*
X61977671Y-50551865D01*
X61976000Y-50559548D01*
X61976000Y-51631884D01*
X61468000Y-51631884D01*
X61468000Y-50564115D01*
X61463525Y-50548876D01*
X61462135Y-50547671D01*
X61454452Y-50546000D01*
X60232116Y-50546000D01*
X60216877Y-50550475D01*
X60215672Y-50551865D01*
X60214001Y-50559548D01*
X60214001Y-50939095D01*
X53832500Y-50939095D01*
X53832500Y-49641600D01*
X53832163Y-49638350D01*
X53822238Y-49542692D01*
X53822237Y-49542688D01*
X53821526Y-49535834D01*
X53765550Y-49368054D01*
X53672478Y-49217652D01*
X53547303Y-49092695D01*
X53401660Y-49002919D01*
X53354168Y-48950148D01*
X53342744Y-48880076D01*
X53371018Y-48814952D01*
X53380805Y-48804490D01*
X53491278Y-48699103D01*
X53495135Y-48695424D01*
X53632754Y-48510458D01*
X53737240Y-48304949D01*
X53773321Y-48188752D01*
X53804024Y-48089871D01*
X53805607Y-48084773D01*
X53818323Y-47988829D01*
X53835198Y-47861510D01*
X53835198Y-47861506D01*
X53835898Y-47856226D01*
X53832537Y-47766702D01*
X53849969Y-47697881D01*
X53869353Y-47672882D01*
X55279379Y-46262855D01*
X55289522Y-46253753D01*
X55314218Y-46233897D01*
X55319025Y-46230032D01*
X55351292Y-46191578D01*
X55354472Y-46187931D01*
X55356115Y-46186119D01*
X55358309Y-46183925D01*
X55385642Y-46150651D01*
X55386348Y-46149800D01*
X55442195Y-46083244D01*
X55446154Y-46078526D01*
X55448722Y-46073856D01*
X55452103Y-46069739D01*
X55495977Y-45987914D01*
X55496606Y-45986755D01*
X55538462Y-45910619D01*
X55538465Y-45910611D01*
X55541433Y-45905213D01*
X55543045Y-45900131D01*
X55545562Y-45895437D01*
X55572762Y-45806469D01*
X55573108Y-45805358D01*
X55577551Y-45791354D01*
X55601235Y-45716694D01*
X55601829Y-45711398D01*
X55603387Y-45706302D01*
X55612790Y-45613743D01*
X55612911Y-45612607D01*
X55618500Y-45562773D01*
X55618500Y-45559246D01*
X55618555Y-45558261D01*
X55619002Y-45552581D01*
X55623374Y-45509538D01*
X55619059Y-45463891D01*
X55618500Y-45452033D01*
X55618500Y-43492653D01*
X55638502Y-43424532D01*
X55692158Y-43378039D01*
X55762432Y-43367935D01*
X55777112Y-43370947D01*
G37*
%TD.AperFunction*%
%TD*%
M02*
