%TF.GenerationSoftware,KiCad,Pcbnew,(6.0.7)*%
%TF.CreationDate,2023-07-30T17:13:32-07:00*%
%TF.ProjectId,xol-pcb,786f6c2d-7063-4622-9e6b-696361645f70,rev?*%
%TF.SameCoordinates,Original*%
%TF.FileFunction,Legend,Bot*%
%TF.FilePolarity,Positive*%
%FSLAX46Y46*%
G04 Gerber Fmt 4.6, Leading zero omitted, Abs format (unit mm)*
G04 Created by KiCad (PCBNEW (6.0.7)) date 2023-07-30 17:13:32*
%MOMM*%
%LPD*%
G01*
G04 APERTURE LIST*
%ADD10C,0.100000*%
%ADD11C,0.150000*%
%ADD12C,0.250000*%
%ADD13C,0.120000*%
G04 APERTURE END LIST*
D10*
X41832926Y-55864747D02*
X41877622Y-56146944D01*
X41993305Y-55781490D02*
X41431979Y-56072889D01*
X42055879Y-56176566D01*
X41546523Y-56430805D02*
X41522772Y-56463494D01*
X41503492Y-56524403D01*
X41525840Y-56665502D01*
X41562998Y-56717471D01*
X41595688Y-56741222D01*
X41656597Y-56760502D01*
X41713036Y-56751563D01*
X41793225Y-56709935D01*
X42078227Y-56317664D01*
X42136331Y-56684520D01*
X42467955Y-57499823D02*
X41621365Y-57633909D01*
X42235186Y-58404517D02*
X42279882Y-58686714D01*
X42395565Y-58321260D02*
X41834239Y-58612659D01*
X42458139Y-58716336D01*
X42538591Y-59224290D02*
X42484956Y-58885654D01*
X42511774Y-59054972D02*
X41919161Y-59148832D01*
X41994881Y-59078984D01*
X42042381Y-59013606D01*
X42061661Y-58952697D01*
X42870215Y-60039593D02*
X42023625Y-60173680D01*
X42532104Y-61192392D02*
X42573733Y-61272582D01*
X42606422Y-61296332D01*
X42667331Y-61315612D01*
X42751990Y-61302204D01*
X42803960Y-61265045D01*
X42827710Y-61232356D01*
X42846990Y-61171447D01*
X42811234Y-60945689D01*
X42218621Y-61039550D01*
X42249908Y-61237088D01*
X42287067Y-61289058D01*
X42319756Y-61312808D01*
X42380665Y-61332088D01*
X42437104Y-61323149D01*
X42489074Y-61285990D01*
X42512824Y-61253301D01*
X42532104Y-61192392D01*
X42500818Y-60994855D01*
X42364451Y-61595004D02*
X42340701Y-61627694D01*
X42321421Y-61688602D01*
X42343768Y-61829701D01*
X42380927Y-61881671D01*
X42413616Y-61905421D01*
X42474525Y-61924701D01*
X42530965Y-61915762D01*
X42611154Y-61874134D01*
X42896155Y-61481863D01*
X42954260Y-61848719D01*
X43285884Y-62664022D02*
X42439294Y-62798109D01*
X42947773Y-63816821D02*
X42989402Y-63897011D01*
X43022091Y-63920761D01*
X43083000Y-63940041D01*
X43167659Y-63926633D01*
X43219628Y-63889474D01*
X43243379Y-63856785D01*
X43262659Y-63795876D01*
X43226903Y-63570118D01*
X42634290Y-63663979D01*
X42665577Y-63861517D01*
X42702735Y-63913487D01*
X42735425Y-63937237D01*
X42796333Y-63956517D01*
X42852773Y-63947578D01*
X42904743Y-63910419D01*
X42928493Y-63877730D01*
X42947773Y-63816821D01*
X42916486Y-63619284D01*
X43369928Y-64473148D02*
X43316294Y-64134512D01*
X43343111Y-64303830D02*
X42750498Y-64397690D01*
X42826218Y-64327842D01*
X42873718Y-64262464D01*
X42892999Y-64201555D01*
X54014571Y-43613428D02*
X53814571Y-44213428D01*
X53614571Y-43613428D01*
X53443142Y-44042000D02*
X53157428Y-44042000D01*
X53500285Y-44213428D02*
X53300285Y-43613428D01*
X53100285Y-44213428D01*
X52614571Y-44213428D02*
X52900285Y-44213428D01*
X52900285Y-43613428D01*
X52500285Y-43613428D02*
X52157428Y-43613428D01*
X52328857Y-44213428D02*
X52328857Y-43613428D01*
X56991142Y-37009428D02*
X56648285Y-37009428D01*
X56819714Y-37609428D02*
X56819714Y-37009428D01*
X56448285Y-37609428D02*
X56448285Y-37009428D01*
X56448285Y-37295142D02*
X56105428Y-37295142D01*
X56105428Y-37609428D02*
X56105428Y-37009428D01*
X55819714Y-37380857D02*
X55362571Y-37380857D01*
X65481142Y-37038000D02*
X65538285Y-37009428D01*
X65624000Y-37009428D01*
X65709714Y-37038000D01*
X65766857Y-37095142D01*
X65795428Y-37152285D01*
X65824000Y-37266571D01*
X65824000Y-37352285D01*
X65795428Y-37466571D01*
X65766857Y-37523714D01*
X65709714Y-37580857D01*
X65624000Y-37609428D01*
X65566857Y-37609428D01*
X65481142Y-37580857D01*
X65452571Y-37552285D01*
X65452571Y-37352285D01*
X65566857Y-37352285D01*
X65195428Y-37609428D02*
X65195428Y-37009428D01*
X64852571Y-37609428D01*
X64852571Y-37009428D01*
X64566857Y-37609428D02*
X64566857Y-37009428D01*
X64424000Y-37009428D01*
X64338285Y-37038000D01*
X64281142Y-37095142D01*
X64252571Y-37152285D01*
X64224000Y-37266571D01*
X64224000Y-37352285D01*
X64252571Y-37466571D01*
X64281142Y-37523714D01*
X64338285Y-37580857D01*
X64424000Y-37609428D01*
X64566857Y-37609428D01*
X47658285Y-37609428D02*
X47858285Y-37323714D01*
X48001142Y-37609428D02*
X48001142Y-37009428D01*
X47772571Y-37009428D01*
X47715428Y-37038000D01*
X47686857Y-37066571D01*
X47658285Y-37123714D01*
X47658285Y-37209428D01*
X47686857Y-37266571D01*
X47715428Y-37295142D01*
X47772571Y-37323714D01*
X48001142Y-37323714D01*
X47086857Y-37038000D02*
X47144000Y-37009428D01*
X47229714Y-37009428D01*
X47315428Y-37038000D01*
X47372571Y-37095142D01*
X47401142Y-37152285D01*
X47429714Y-37266571D01*
X47429714Y-37352285D01*
X47401142Y-37466571D01*
X47372571Y-37523714D01*
X47315428Y-37580857D01*
X47229714Y-37609428D01*
X47172571Y-37609428D01*
X47086857Y-37580857D01*
X47058285Y-37552285D01*
X47058285Y-37352285D01*
X47172571Y-37352285D01*
X46601142Y-37295142D02*
X46515428Y-37323714D01*
X46486857Y-37352285D01*
X46458285Y-37409428D01*
X46458285Y-37495142D01*
X46486857Y-37552285D01*
X46515428Y-37580857D01*
X46572571Y-37609428D01*
X46801142Y-37609428D01*
X46801142Y-37009428D01*
X46601142Y-37009428D01*
X46544000Y-37038000D01*
X46515428Y-37066571D01*
X46486857Y-37123714D01*
X46486857Y-37180857D01*
X46515428Y-37238000D01*
X46544000Y-37266571D01*
X46601142Y-37295142D01*
X46801142Y-37295142D01*
X51123714Y-37609428D02*
X51123714Y-37009428D01*
X50895142Y-37009428D01*
X50838000Y-37038000D01*
X50809428Y-37066571D01*
X50780857Y-37123714D01*
X50780857Y-37209428D01*
X50809428Y-37266571D01*
X50838000Y-37295142D01*
X50895142Y-37323714D01*
X51123714Y-37323714D01*
X50180857Y-37552285D02*
X50209428Y-37580857D01*
X50295142Y-37609428D01*
X50352285Y-37609428D01*
X50438000Y-37580857D01*
X50495142Y-37523714D01*
X50523714Y-37466571D01*
X50552285Y-37352285D01*
X50552285Y-37266571D01*
X50523714Y-37152285D01*
X50495142Y-37095142D01*
X50438000Y-37038000D01*
X50352285Y-37009428D01*
X50295142Y-37009428D01*
X50209428Y-37038000D01*
X50180857Y-37066571D01*
X49723714Y-37295142D02*
X49923714Y-37295142D01*
X49923714Y-37609428D02*
X49923714Y-37009428D01*
X49638000Y-37009428D01*
X49409428Y-37380857D02*
X48952285Y-37380857D01*
D11*
X68224380Y-63315904D02*
X68605333Y-63315904D01*
X68643428Y-63696857D01*
X68605333Y-63658761D01*
X68529142Y-63620666D01*
X68338666Y-63620666D01*
X68262476Y-63658761D01*
X68224380Y-63696857D01*
X68186285Y-63773047D01*
X68186285Y-63963523D01*
X68224380Y-64039714D01*
X68262476Y-64077809D01*
X68338666Y-64115904D01*
X68529142Y-64115904D01*
X68605333Y-64077809D01*
X68643428Y-64039714D01*
X67957714Y-63315904D02*
X67691047Y-64115904D01*
X67424380Y-63315904D01*
D10*
X66052571Y-44042000D02*
X65766857Y-44042000D01*
X66109714Y-44213428D02*
X65909714Y-43613428D01*
X65709714Y-44213428D01*
X65509714Y-43613428D02*
X65509714Y-44099142D01*
X65481142Y-44156285D01*
X65452571Y-44184857D01*
X65395428Y-44213428D01*
X65281142Y-44213428D01*
X65224000Y-44184857D01*
X65195428Y-44156285D01*
X65166857Y-44099142D01*
X65166857Y-43613428D01*
X64938285Y-43613428D02*
X64538285Y-44213428D01*
X64538285Y-43613428D02*
X64938285Y-44213428D01*
X63995428Y-44213428D02*
X64338285Y-44213428D01*
X64166857Y-44213428D02*
X64166857Y-43613428D01*
X64224000Y-43699142D01*
X64281142Y-43756285D01*
X64338285Y-43784857D01*
X50852285Y-44213428D02*
X50852285Y-43613428D01*
X50852285Y-43899142D02*
X50509428Y-43899142D01*
X50509428Y-44213428D02*
X50509428Y-43613428D01*
X50223714Y-43899142D02*
X50023714Y-43899142D01*
X49938000Y-44213428D02*
X50223714Y-44213428D01*
X50223714Y-43613428D01*
X49938000Y-43613428D01*
X49680857Y-43984857D02*
X49223714Y-43984857D01*
X62472857Y-43899142D02*
X62387142Y-43927714D01*
X62358571Y-43956285D01*
X62330000Y-44013428D01*
X62330000Y-44099142D01*
X62358571Y-44156285D01*
X62387142Y-44184857D01*
X62444285Y-44213428D01*
X62672857Y-44213428D01*
X62672857Y-43613428D01*
X62472857Y-43613428D01*
X62415714Y-43642000D01*
X62387142Y-43670571D01*
X62358571Y-43727714D01*
X62358571Y-43784857D01*
X62387142Y-43842000D01*
X62415714Y-43870571D01*
X62472857Y-43899142D01*
X62672857Y-43899142D01*
X62101428Y-43670571D02*
X62072857Y-43642000D01*
X62015714Y-43613428D01*
X61872857Y-43613428D01*
X61815714Y-43642000D01*
X61787142Y-43670571D01*
X61758571Y-43727714D01*
X61758571Y-43784857D01*
X61787142Y-43870571D01*
X62130000Y-44213428D01*
X61758571Y-44213428D01*
X56619714Y-43613428D02*
X56276857Y-43613428D01*
X56448285Y-44213428D02*
X56448285Y-43613428D01*
X56076857Y-44213428D02*
X56076857Y-43613428D01*
X56076857Y-43899142D02*
X55734000Y-43899142D01*
X55734000Y-44213428D02*
X55734000Y-43613428D01*
D11*
X53917714Y-64115904D02*
X53917714Y-63315904D01*
X53917714Y-63696857D02*
X53460571Y-63696857D01*
X53460571Y-64115904D02*
X53460571Y-63315904D01*
X53079619Y-63696857D02*
X52812952Y-63696857D01*
X52698666Y-64115904D02*
X53079619Y-64115904D01*
X53079619Y-63315904D01*
X52698666Y-63315904D01*
X52355809Y-63811142D02*
X51746285Y-63811142D01*
X52051047Y-64115904D02*
X52051047Y-63506380D01*
D10*
X59610571Y-37438000D02*
X59324857Y-37438000D01*
X59667714Y-37609428D02*
X59467714Y-37009428D01*
X59267714Y-37609428D01*
X58753428Y-37609428D02*
X59096285Y-37609428D01*
X58924857Y-37609428D02*
X58924857Y-37009428D01*
X58982000Y-37095142D01*
X59039142Y-37152285D01*
X59096285Y-37180857D01*
D11*
X72053333Y-59543904D02*
X72053333Y-58743904D01*
X72053333Y-59124857D02*
X71596190Y-59124857D01*
X71596190Y-59543904D02*
X71596190Y-58743904D01*
X71215238Y-59124857D02*
X70948571Y-59124857D01*
X70834285Y-59543904D02*
X71215238Y-59543904D01*
X71215238Y-58743904D01*
X70834285Y-58743904D01*
X70224761Y-59124857D02*
X70491428Y-59124857D01*
X70491428Y-59543904D02*
X70491428Y-58743904D01*
X70110476Y-58743904D01*
D10*
X68186285Y-37009428D02*
X68472000Y-37009428D01*
X68500571Y-37295142D01*
X68472000Y-37266571D01*
X68414857Y-37238000D01*
X68272000Y-37238000D01*
X68214857Y-37266571D01*
X68186285Y-37295142D01*
X68157714Y-37352285D01*
X68157714Y-37495142D01*
X68186285Y-37552285D01*
X68214857Y-37580857D01*
X68272000Y-37609428D01*
X68414857Y-37609428D01*
X68472000Y-37580857D01*
X68500571Y-37552285D01*
X67986285Y-37009428D02*
X67786285Y-37609428D01*
X67586285Y-37009428D01*
D11*
X61690095Y-63315904D02*
X61423428Y-64115904D01*
X61156761Y-63315904D01*
X60928190Y-63887333D02*
X60547238Y-63887333D01*
X61004380Y-64115904D02*
X60737714Y-63315904D01*
X60471047Y-64115904D01*
X59823428Y-64115904D02*
X60204380Y-64115904D01*
X60204380Y-63315904D01*
X59671047Y-63315904D02*
X59213904Y-63315904D01*
X59442476Y-64115904D02*
X59442476Y-63315904D01*
D12*
X66411904Y-68222761D02*
X66507142Y-68270380D01*
X66697619Y-68270380D01*
X66792857Y-68222761D01*
X66840476Y-68175142D01*
X66888095Y-68079904D01*
X66888095Y-67794190D01*
X66840476Y-67698952D01*
X66792857Y-67651333D01*
X66697619Y-67603714D01*
X66507142Y-67603714D01*
X66411904Y-67651333D01*
X65840476Y-68270380D02*
X65935714Y-68222761D01*
X65983333Y-68175142D01*
X66030952Y-68079904D01*
X66030952Y-67794190D01*
X65983333Y-67698952D01*
X65935714Y-67651333D01*
X65840476Y-67603714D01*
X65697619Y-67603714D01*
X65602380Y-67651333D01*
X65554761Y-67698952D01*
X65507142Y-67794190D01*
X65507142Y-68079904D01*
X65554761Y-68175142D01*
X65602380Y-68222761D01*
X65697619Y-68270380D01*
X65840476Y-68270380D01*
X65078571Y-68270380D02*
X65078571Y-67603714D01*
X65078571Y-67698952D02*
X65030952Y-67651333D01*
X64935714Y-67603714D01*
X64792857Y-67603714D01*
X64697619Y-67651333D01*
X64650000Y-67746571D01*
X64650000Y-68270380D01*
X64650000Y-67746571D02*
X64602380Y-67651333D01*
X64507142Y-67603714D01*
X64364285Y-67603714D01*
X64269047Y-67651333D01*
X64221428Y-67746571D01*
X64221428Y-68270380D01*
X63745238Y-68270380D02*
X63745238Y-67603714D01*
X63745238Y-67698952D02*
X63697619Y-67651333D01*
X63602380Y-67603714D01*
X63459523Y-67603714D01*
X63364285Y-67651333D01*
X63316666Y-67746571D01*
X63316666Y-68270380D01*
X63316666Y-67746571D02*
X63269047Y-67651333D01*
X63173809Y-67603714D01*
X63030952Y-67603714D01*
X62935714Y-67651333D01*
X62888095Y-67746571D01*
X62888095Y-68270380D01*
X62411904Y-68270380D02*
X62411904Y-67603714D01*
X62411904Y-67270380D02*
X62459523Y-67318000D01*
X62411904Y-67365619D01*
X62364285Y-67318000D01*
X62411904Y-67270380D01*
X62411904Y-67365619D01*
X62078571Y-67603714D02*
X61697619Y-67603714D01*
X61935714Y-67270380D02*
X61935714Y-68127523D01*
X61888095Y-68222761D01*
X61792857Y-68270380D01*
X61697619Y-68270380D01*
X60173809Y-68270380D02*
X60173809Y-67746571D01*
X60221428Y-67651333D01*
X60316666Y-67603714D01*
X60507142Y-67603714D01*
X60602380Y-67651333D01*
X60173809Y-68222761D02*
X60269047Y-68270380D01*
X60507142Y-68270380D01*
X60602380Y-68222761D01*
X60650000Y-68127523D01*
X60650000Y-68032285D01*
X60602380Y-67937047D01*
X60507142Y-67889428D01*
X60269047Y-67889428D01*
X60173809Y-67841809D01*
X59840476Y-67603714D02*
X59459523Y-67603714D01*
X59697619Y-67270380D02*
X59697619Y-68127523D01*
X59650000Y-68222761D01*
X59554761Y-68270380D01*
X59459523Y-68270380D01*
X59126190Y-68270380D02*
X59126190Y-67603714D01*
X59126190Y-67794190D02*
X59078571Y-67698952D01*
X59030952Y-67651333D01*
X58935714Y-67603714D01*
X58840476Y-67603714D01*
X58364285Y-68270380D02*
X58459523Y-68222761D01*
X58507142Y-68175142D01*
X58554761Y-68079904D01*
X58554761Y-67794190D01*
X58507142Y-67698952D01*
X58459523Y-67651333D01*
X58364285Y-67603714D01*
X58221428Y-67603714D01*
X58126190Y-67651333D01*
X58078571Y-67698952D01*
X58030952Y-67794190D01*
X58030952Y-68079904D01*
X58078571Y-68175142D01*
X58126190Y-68222761D01*
X58221428Y-68270380D01*
X58364285Y-68270380D01*
X57173809Y-68222761D02*
X57269047Y-68270380D01*
X57459523Y-68270380D01*
X57554761Y-68222761D01*
X57602380Y-68175142D01*
X57650000Y-68079904D01*
X57650000Y-67794190D01*
X57602380Y-67698952D01*
X57554761Y-67651333D01*
X57459523Y-67603714D01*
X57269047Y-67603714D01*
X57173809Y-67651333D01*
X56745238Y-68270380D02*
X56745238Y-67603714D01*
X56745238Y-67270380D02*
X56792857Y-67318000D01*
X56745238Y-67365619D01*
X56697619Y-67318000D01*
X56745238Y-67270380D01*
X56745238Y-67365619D01*
X56411904Y-67603714D02*
X56030952Y-67603714D01*
X56269047Y-67270380D02*
X56269047Y-68127523D01*
X56221428Y-68222761D01*
X56126190Y-68270380D01*
X56030952Y-68270380D01*
X55792857Y-67603714D02*
X55554761Y-68270380D01*
X55316666Y-67603714D02*
X55554761Y-68270380D01*
X55650000Y-68508476D01*
X55697619Y-68556095D01*
X55792857Y-68603714D01*
X53792857Y-68222761D02*
X53888095Y-68270380D01*
X54078571Y-68270380D01*
X54173809Y-68222761D01*
X54221428Y-68127523D01*
X54221428Y-67746571D01*
X54173809Y-67651333D01*
X54078571Y-67603714D01*
X53888095Y-67603714D01*
X53792857Y-67651333D01*
X53745238Y-67746571D01*
X53745238Y-67841809D01*
X54221428Y-67937047D01*
X53411904Y-67603714D02*
X53173809Y-68270380D01*
X52935714Y-67603714D01*
X52173809Y-68222761D02*
X52269047Y-68270380D01*
X52459523Y-68270380D01*
X52554761Y-68222761D01*
X52602380Y-68127523D01*
X52602380Y-67746571D01*
X52554761Y-67651333D01*
X52459523Y-67603714D01*
X52269047Y-67603714D01*
X52173809Y-67651333D01*
X52126190Y-67746571D01*
X52126190Y-67841809D01*
X52602380Y-67937047D01*
X51697619Y-68270380D02*
X51697619Y-67603714D01*
X51697619Y-67794190D02*
X51650000Y-67698952D01*
X51602380Y-67651333D01*
X51507142Y-67603714D01*
X51411904Y-67603714D01*
X51173809Y-67603714D02*
X50935714Y-68270380D01*
X50697619Y-67603714D02*
X50935714Y-68270380D01*
X51030952Y-68508476D01*
X51078571Y-68556095D01*
X51173809Y-68603714D01*
X49126190Y-68270380D02*
X49126190Y-67270380D01*
X49126190Y-68222761D02*
X49221428Y-68270380D01*
X49411904Y-68270380D01*
X49507142Y-68222761D01*
X49554761Y-68175142D01*
X49602380Y-68079904D01*
X49602380Y-67794190D01*
X49554761Y-67698952D01*
X49507142Y-67651333D01*
X49411904Y-67603714D01*
X49221428Y-67603714D01*
X49126190Y-67651333D01*
X48221428Y-68270380D02*
X48221428Y-67746571D01*
X48269047Y-67651333D01*
X48364285Y-67603714D01*
X48554761Y-67603714D01*
X48650000Y-67651333D01*
X48221428Y-68222761D02*
X48316666Y-68270380D01*
X48554761Y-68270380D01*
X48650000Y-68222761D01*
X48697619Y-68127523D01*
X48697619Y-68032285D01*
X48650000Y-67937047D01*
X48554761Y-67889428D01*
X48316666Y-67889428D01*
X48221428Y-67841809D01*
X47840476Y-67603714D02*
X47602380Y-68270380D01*
X47364285Y-67603714D02*
X47602380Y-68270380D01*
X47697619Y-68508476D01*
X47745238Y-68556095D01*
X47840476Y-68603714D01*
D10*
X54157428Y-37609428D02*
X54157428Y-37009428D01*
X54157428Y-37295142D02*
X53814571Y-37295142D01*
X53814571Y-37609428D02*
X53814571Y-37009428D01*
X53528857Y-37295142D02*
X53328857Y-37295142D01*
X53243142Y-37609428D02*
X53528857Y-37609428D01*
X53528857Y-37009428D01*
X53243142Y-37009428D01*
X52786000Y-37295142D02*
X52986000Y-37295142D01*
X52986000Y-37609428D02*
X52986000Y-37009428D01*
X52700285Y-37009428D01*
X52471714Y-37380857D02*
X52014571Y-37380857D01*
X59424857Y-43899142D02*
X59339142Y-43927714D01*
X59310571Y-43956285D01*
X59282000Y-44013428D01*
X59282000Y-44099142D01*
X59310571Y-44156285D01*
X59339142Y-44184857D01*
X59396285Y-44213428D01*
X59624857Y-44213428D01*
X59624857Y-43613428D01*
X59424857Y-43613428D01*
X59367714Y-43642000D01*
X59339142Y-43670571D01*
X59310571Y-43727714D01*
X59310571Y-43784857D01*
X59339142Y-43842000D01*
X59367714Y-43870571D01*
X59424857Y-43899142D01*
X59624857Y-43899142D01*
X58710571Y-44213428D02*
X59053428Y-44213428D01*
X58882000Y-44213428D02*
X58882000Y-43613428D01*
X58939142Y-43699142D01*
X58996285Y-43756285D01*
X59053428Y-43784857D01*
X62658571Y-37438000D02*
X62372857Y-37438000D01*
X62715714Y-37609428D02*
X62515714Y-37009428D01*
X62315714Y-37609428D01*
X62144285Y-37066571D02*
X62115714Y-37038000D01*
X62058571Y-37009428D01*
X61915714Y-37009428D01*
X61858571Y-37038000D01*
X61830000Y-37066571D01*
X61801428Y-37123714D01*
X61801428Y-37180857D01*
X61830000Y-37266571D01*
X62172857Y-37609428D01*
X61801428Y-37609428D01*
X47804285Y-44213428D02*
X47804285Y-43613428D01*
X47804285Y-43899142D02*
X47461428Y-43899142D01*
X47461428Y-44213428D02*
X47461428Y-43613428D01*
X47175714Y-43899142D02*
X46975714Y-43899142D01*
X46890000Y-44213428D02*
X47175714Y-44213428D01*
X47175714Y-43613428D01*
X46890000Y-43613428D01*
X46632857Y-43984857D02*
X46175714Y-43984857D01*
X46404285Y-44213428D02*
X46404285Y-43756285D01*
X69100571Y-44042000D02*
X68814857Y-44042000D01*
X69157714Y-44213428D02*
X68957714Y-43613428D01*
X68757714Y-44213428D01*
X68557714Y-43613428D02*
X68557714Y-44099142D01*
X68529142Y-44156285D01*
X68500571Y-44184857D01*
X68443428Y-44213428D01*
X68329142Y-44213428D01*
X68272000Y-44184857D01*
X68243428Y-44156285D01*
X68214857Y-44099142D01*
X68214857Y-43613428D01*
X67986285Y-43613428D02*
X67586285Y-44213428D01*
X67586285Y-43613428D02*
X67986285Y-44213428D01*
X67386285Y-43670571D02*
X67357714Y-43642000D01*
X67300571Y-43613428D01*
X67157714Y-43613428D01*
X67100571Y-43642000D01*
X67072000Y-43670571D01*
X67043428Y-43727714D01*
X67043428Y-43784857D01*
X67072000Y-43870571D01*
X67414857Y-44213428D01*
X67043428Y-44213428D01*
D11*
X72072380Y-62083904D02*
X72072380Y-61283904D01*
X71767619Y-61283904D01*
X71691428Y-61322000D01*
X71653333Y-61360095D01*
X71615238Y-61436285D01*
X71615238Y-61550571D01*
X71653333Y-61626761D01*
X71691428Y-61664857D01*
X71767619Y-61702952D01*
X72072380Y-61702952D01*
X70815238Y-62007714D02*
X70853333Y-62045809D01*
X70967619Y-62083904D01*
X71043809Y-62083904D01*
X71158095Y-62045809D01*
X71234285Y-61969619D01*
X71272380Y-61893428D01*
X71310476Y-61741047D01*
X71310476Y-61626761D01*
X71272380Y-61474380D01*
X71234285Y-61398190D01*
X71158095Y-61322000D01*
X71043809Y-61283904D01*
X70967619Y-61283904D01*
X70853333Y-61322000D01*
X70815238Y-61360095D01*
X70205714Y-61664857D02*
X70472380Y-61664857D01*
X70472380Y-62083904D02*
X70472380Y-61283904D01*
X70091428Y-61283904D01*
%TO.C,MOTOR1*%
X41357308Y-57895376D02*
X40369620Y-58051810D01*
X41127257Y-58269301D01*
X40473910Y-58710269D01*
X41461598Y-58553835D01*
X40578199Y-59368728D02*
X40607996Y-59556859D01*
X40669928Y-59643475D01*
X40778892Y-59722642D01*
X40974472Y-59739878D01*
X41303702Y-59687733D01*
X41484383Y-59610904D01*
X41563550Y-59501940D01*
X41595685Y-59400425D01*
X41565888Y-59212294D01*
X41503956Y-59125677D01*
X41394992Y-59046510D01*
X41199412Y-59029275D01*
X40870183Y-59081419D01*
X40689501Y-59158249D01*
X40610334Y-59267213D01*
X40578199Y-59368728D01*
X40689938Y-60074220D02*
X40779329Y-60638613D01*
X41722322Y-60199982D02*
X40734634Y-60356416D01*
X40861271Y-61155974D02*
X40891068Y-61344105D01*
X40953000Y-61430721D01*
X41061964Y-61509888D01*
X41257544Y-61527124D01*
X41586773Y-61474979D01*
X41767455Y-61398149D01*
X41846622Y-61289185D01*
X41878757Y-61187670D01*
X41848960Y-60999539D01*
X41787028Y-60912923D01*
X41678064Y-60833756D01*
X41482484Y-60816520D01*
X41153254Y-60868665D01*
X40972573Y-60945495D01*
X40893406Y-61054459D01*
X40861271Y-61155974D01*
X42072437Y-62410522D02*
X41549965Y-62155786D01*
X41983046Y-61846129D02*
X40995358Y-62002564D01*
X41054952Y-62378826D01*
X41116883Y-62465442D01*
X41171365Y-62505026D01*
X41272880Y-62537160D01*
X41413979Y-62514812D01*
X41500595Y-62452881D01*
X41540178Y-62398399D01*
X41572313Y-62296884D01*
X41512719Y-61920622D01*
X42221423Y-63351178D02*
X42132031Y-62786785D01*
X42176727Y-63068981D02*
X41189039Y-63225416D01*
X41315239Y-63109003D01*
X41394406Y-63000038D01*
X41426540Y-62898524D01*
D13*
%TO.C,JP4*%
X66672000Y-60722000D02*
X66672000Y-62722000D01*
X69472000Y-60722000D02*
X66672000Y-60722000D01*
X66672000Y-62722000D02*
X69472000Y-62722000D01*
X69472000Y-62722000D02*
X69472000Y-60722000D01*
%TO.C,MOTOR1*%
X40721677Y-63805672D02*
X39980910Y-63922998D01*
X38526070Y-54737497D02*
X39266836Y-54620171D01*
X40215562Y-65404531D02*
X40956328Y-65287205D01*
X39980910Y-63922998D02*
X39042304Y-57996868D01*
X38898286Y-66676255D02*
X35984605Y-67137737D01*
X39783070Y-57879542D02*
X40721677Y-63805672D01*
X41249352Y-67073356D02*
X35352852Y-68007270D01*
X37161863Y-55712915D02*
X34248183Y-56174396D01*
X39548418Y-56398010D02*
X38807652Y-56515336D01*
X35984605Y-67137737D02*
X35116394Y-61656067D01*
X39042304Y-57996868D02*
X39783070Y-57879542D01*
X39275149Y-54608730D02*
X41249352Y-67073356D01*
X40497144Y-67182370D02*
X40215562Y-65404531D01*
X37044537Y-54972148D02*
X37161863Y-55712915D01*
X41237910Y-67065044D02*
X40497144Y-67182370D01*
X39015612Y-67417021D02*
X38898286Y-66676255D01*
X35352852Y-68007270D02*
X33378649Y-55542643D01*
X34248183Y-56174396D02*
X35116394Y-61656067D01*
X38807652Y-56515336D02*
X38526070Y-54737497D01*
X41385604Y-66079810D02*
X41581147Y-67314420D01*
X39266836Y-54620171D02*
X39548418Y-56398010D01*
X41581147Y-67314420D02*
X40346537Y-67509963D01*
X33378649Y-55542643D02*
X39275149Y-54608730D01*
X40956328Y-65287205D02*
X41237910Y-67065044D01*
%TO.C,JP1*%
X66672000Y-60182000D02*
X69472000Y-60182000D01*
X69472000Y-58182000D02*
X66672000Y-58182000D01*
X69472000Y-60182000D02*
X69472000Y-58182000D01*
X66672000Y-58182000D02*
X66672000Y-60182000D01*
%TO.C,JP3*%
X51432000Y-60182000D02*
X54232000Y-60182000D01*
X54232000Y-60182000D02*
X54232000Y-58182000D01*
X51432000Y-58182000D02*
X51432000Y-60182000D01*
X54232000Y-58182000D02*
X51432000Y-58182000D01*
%TO.C,JP5*%
X61852000Y-62722000D02*
X61852000Y-60722000D01*
X59052000Y-62722000D02*
X61852000Y-62722000D01*
X59052000Y-60722000D02*
X59052000Y-62722000D01*
X61852000Y-60722000D02*
X59052000Y-60722000D01*
%TO.C,JP6*%
X51432000Y-60722000D02*
X51432000Y-62722000D01*
X54232000Y-62722000D02*
X54232000Y-60722000D01*
X54232000Y-60722000D02*
X51432000Y-60722000D01*
X51432000Y-62722000D02*
X54232000Y-62722000D01*
%TO.C,JP2*%
X61852000Y-60182000D02*
X61852000Y-58182000D01*
X59052000Y-58182000D02*
X59052000Y-60182000D01*
X59052000Y-60182000D02*
X61852000Y-60182000D01*
X61852000Y-58182000D02*
X59052000Y-58182000D01*
%TD*%
M02*
